<?xml version="1.0" encoding="utf-8"?>
<!-- Generator: Adobe Illustrator 23.0.2, SVG Export Plug-In . SVG Version: 6.00 Build 0)  -->
<svg version="1.1" id="Layer_1" xmlns="http://www.w3.org/2000/svg" xmlns:xlink="http://www.w3.org/1999/xlink" x="0px" y="0px"
	 viewBox="0 0 216.7 217" style="enable-background:new 0 0 216.7 217;" xml:space="preserve">
<style type="text/css">
	.st0{fill-rule:evenodd;clip-rule:evenodd;fill:#253143;}
	.st1{fill-rule:evenodd;clip-rule:evenodd;fill:#2F90C5;}
	.st2{fill-rule:evenodd;clip-rule:evenodd;fill:#FFFFFF;}
</style>
<title>QudosSchedule</title>
<g>
	<g id="Layer_1-2">
		<path class="st0" d="M178.5,103.8c-4.7-0.8-10.5-1-15.6,1c12.9,2.9,22.6,13.8,23.9,27h-6.5c-0.8,0-1.4,0.6-1.4,1.4v3.5
			c0,0.8,0.6,1.4,1.4,1.4c0,0,0,0,0,0h6.5c-1.6,14.5-13.1,25.9-27.6,27.3v-6.5c0-0.8-0.6-1.4-1.4-1.4h-3.5c-0.8,0-1.4,0.6-1.4,1.4
			v6.5c-2.1-0.2-4.2-0.7-6.3-1.3c-1.2,2.3-2.9,4.4-4.9,6.1c19.5,8,41.8-1.4,49.8-20.9C198.2,132.9,192.8,114.1,178.5,103.8
			L178.5,103.8z M172,145.8c0,0,3.1,1.2,4.2-1.2s-1.5-3.6-2.4-4.2s-14.9-7.2-14.9-7.2v-13.4c-0.1-1.4-1.2-2.4-2.6-2.4c0,0,0,0,0,0
			h-0.1c-1.6,0-2.9,1.1-3,2.7v16.4l0,0L172,145.8z M159.2,110.7v-3.9c-1.9,1.4-3.6,3.2-4.7,5.3h3.3
			C158.6,112.1,159.2,111.5,159.2,110.7C159.2,110.7,159.2,110.7,159.2,110.7L159.2,110.7z M75.7,83.3H53.9c-0.7,0-1.2,0.5-1.2,1.2
			c0,0,0,0,0,0v12.2c0,0.7,0.5,1.2,1.2,1.2h21.8c0.7,0,1.2-0.5,1.2-1.2V84.5C76.9,83.9,76.3,83.3,75.7,83.3L75.7,83.3z M75.7,107
			H53.9c-0.7,0-1.2,0.5-1.2,1.2c0,0,0,0,0,0v12.2c0,0.7,0.5,1.2,1.1,1.2c0,0,0,0,0.1,0h21.8c0.7,0,1.2-0.5,1.2-1.2c0,0,0,0,0,0
			v-12.2C76.9,107.6,76.3,107,75.7,107L75.7,107z M75.7,130.6H53.9c-0.7,0-1.2,0.5-1.2,1.2c0,0,0,0,0,0v12.3c0,0.7,0.5,1.2,1.2,1.2
			h21.8c0.7,0,1.2-0.5,1.2-1.2v-12.2C76.9,131.2,76.4,130.6,75.7,130.6C75.7,130.6,75.7,130.6,75.7,130.6z M109.5,83.3H87.7
			c-0.7,0-1.2,0.5-1.2,1.2c0,0,0,0,0,0v12.2c0,0.7,0.5,1.2,1.2,1.2h21.8c0.7,0,1.2-0.5,1.2-1.2V84.5
			C110.6,83.8,110.1,83.3,109.5,83.3L109.5,83.3z M109.5,107.3H87.7c-0.7,0-1.2,0.5-1.2,1.2v12.2c0,0.7,0.5,1.2,1.2,1.2h21.8
			c0.7,0,1.2-0.5,1.2-1.2v-12.2C110.7,107.9,110.1,107.3,109.5,107.3L109.5,107.3z M109.5,130.6H87.7c-0.7,0-1.2,0.5-1.2,1.2
			c0,0,0,0,0,0v12.3c0,0.7,0.5,1.2,1.2,1.2h21.8c0.7,0,1.2-0.5,1.2-1.2v-12.2C110.7,131.2,110.2,130.6,109.5,130.6
			C109.5,130.6,109.5,130.6,109.5,130.6L109.5,130.6z M177.7,59.9c0-6.3-2.1-10.5-5-13.4c-3.7-1.5-7.6-2.3-11.6-2.4H61.6
			C36.6,44,37.2,69.2,37.2,69.2v88.7c0,2.6,0.5,5.2,1.4,7.6c0.7,0.2,1.4,0.3,2.2,0.3h81.8l-6.5-9c0,0-65.4,0.1-71,0
			s-4.7-4.7-4.7-4.7s0.1-68,0-74.6c0-0.2,0-0.4,0-0.6c0.1-3.3,2.8-5.9,6.1-5.9c0,0,0,0,0,0c0,0,110.2-0.1,115.6,0h0.4
			c2.8,0,5,2.2,5,5c0,0,0,0,0,0.1v15.1l10.1,4C177.7,95.3,177.8,79.6,177.7,59.9z"/>
		<path class="st0" d="M187.1,102.3l0.1-34.1c-0.4-12.9-7.7-18.9-14.5-21.7c2.8,2.9,4.9,7.1,5,13.4c0.1,19.7,0,35.3,0,35.3l-10.1-4
			V76.1c0-2.8-2.2-5-4.9-5.1c0,0,0,0-0.1,0h-0.4c-5.5-0.1-115.6,0-115.6,0c-3.3-0.1-6.1,2.5-6.1,5.8c0,0,0,0,0,0c0,0.2,0,0.4,0,0.6
			c0.1,6.6,0,74.6,0,74.6s-0.9,4.6,4.7,4.7s71,0,71,0l6.5,9H40.8c-0.7,0-1.5-0.1-2.2-0.3c3.9,9.3,14.6,9.1,14.6,9.1s64.8-0.1,69.8,0
			c2.9,0,6.1-1.5,8.3-2.9c8.2,5.7,17.9,8.8,27.8,8.9c24.4,0,44.1-19.8,44.1-44.1C203.3,123.3,197.3,110.7,187.1,102.3L187.1,102.3z
			 M76.8,144.1c0,0.7-0.5,1.2-1.2,1.2H53.9c-0.7,0-1.2-0.5-1.2-1.2v-12.3c0-0.7,0.5-1.2,1.1-1.2c0,0,0,0,0.1,0h21.8
			c0.7,0,1.2,0.5,1.2,1.2L76.8,144.1z M76.8,120.4c0,0.7-0.5,1.2-1.1,1.2c0,0,0,0,0,0H53.9c-0.7,0-1.2-0.5-1.2-1.2c0,0,0,0,0,0
			v-12.2c0-0.7,0.5-1.2,1.2-1.2c0,0,0,0,0,0h21.8c0.7,0,1.2,0.5,1.2,1.2L76.8,120.4z M76.8,96.7c0,0.7-0.5,1.2-1.2,1.2H53.9
			c-0.7,0-1.2-0.5-1.2-1.2V84.5c0-0.7,0.5-1.2,1.2-1.2c0,0,0,0,0,0h21.8c0.7,0,1.2,0.5,1.2,1.2L76.8,96.7z M110.7,144.1
			c0,0.7-0.5,1.2-1.2,1.2H87.7c-0.7,0-1.2-0.5-1.2-1.2v-12.3c0-0.7,0.5-1.2,1.2-1.2c0,0,0,0,0,0h21.8c0.7,0,1.2,0.5,1.2,1.2
			L110.7,144.1z M110.7,120.7c0,0.7-0.5,1.2-1.2,1.2H87.7c-0.7,0-1.2-0.5-1.2-1.2v-12.2c0-0.7,0.5-1.2,1.2-1.2h21.8
			c0.7,0,1.2,0.5,1.2,1.2L110.7,120.7z M110.7,96.7c0,0.7-0.5,1.2-1.2,1.2H87.7c-0.7,0-1.2-0.5-1.2-1.2V84.5c0-0.7,0.5-1.2,1.2-1.2
			c0,0,0,0,0,0h21.8c0.7,0,1.2,0.5,1.2,1.2L110.7,96.7z M156.2,172.9c-21.1,0-38.2-17.1-38.1-38.2s17.1-38.2,38.2-38.1
			c21.1,0,38.1,17.1,38.1,38.2c0.1,20.9-16.7,38-37.6,38.2C156.6,172.9,156.4,172.9,156.2,172.9L156.2,172.9z"/>
		<path class="st1" d="M177.7,59.9c0-6.3-2.1-10.5-5-13.4c-6.1-6.2-15.6-6-15.6-6s-86.8,0-107,0S30.7,60.3,30.7,60.3s0,82.6,0,94
			c0,8,4.9,10.4,7.9,11.2c0.7,0.2,1.4,0.3,2.2,0.3h81.8l-6.5-9c0,0-65.4,0.1-71,0s-4.7-4.7-4.7-4.7s0.1-68,0-74.6c0-0.2,0-0.4,0-0.6
			c0.1-3.3,2.8-5.9,6.1-5.9c0,0,0,0,0,0c0,0,110.2-0.1,115.6,0h0.4c2.8,0,5,2.2,5,5c0,0,0,0,0,0.1v15.1l10.1,4
			C177.6,95.2,177.8,79.6,177.7,59.9z M80,61.2c0,2.1-1.7,3.8-3.8,3.8c-2.1,0-3.8-1.7-3.8-3.8v-9c0-2.1,1.7-3.8,3.8-3.8
			c2.1,0,3.8,1.7,3.8,3.8c0,0,0,0,0,0V61.2z M140.2,61.2c0,2.1-1.7,3.8-3.8,3.8c-2.1,0-3.7-1.7-3.7-3.8v-9c0-2.1,1.7-3.8,3.8-3.8
			c2.1,0,3.8,1.7,3.8,3.8c0,0,0,0,0,0L140.2,61.2z"/>
		<path class="st1" d="M178.5,103.8c-17.1-12.3-40.9-8.4-53.3,8.6s-8.4,40.9,8.6,53.3s40.9,8.4,53.3-8.6c4.7-6.5,7.2-14.3,7.2-22.3
			C194.4,122.5,188.5,111,178.5,103.8z M159.2,165.3v-6.5c0-0.8-0.6-1.4-1.4-1.4h-3.5c-0.8,0-1.4,0.6-1.4,1.4v6.5
			c-2.1-0.2-4.2-0.7-6.3-1.3c-11.5-3.8-19.7-13.9-21-25.9h6.2c0.8,0,1.4-0.6,1.4-1.4v-3.5c0-0.8-0.6-1.4-1.4-1.4h-6.3
			c1.4-14.5,12.8-26,27.3-27.5v6.5c0,0.8,0.6,1.4,1.4,1.4h3.4c0.8,0,1.4-0.6,1.4-1.4v-6.5c1.2,0.1,2.5,0.3,3.7,0.6
			c12.9,2.9,22.6,13.8,23.9,27h-6.5c-0.8,0-1.4,0.6-1.4,1.4v3.5c0,0.8,0.6,1.4,1.4,1.4c0,0,0,0,0,0h6.5
			C185.2,152.5,173.7,163.9,159.2,165.3z"/>
		<path class="st0" d="M178.9,136.6v-3.5c0-0.8,0.6-1.4,1.4-1.4h6.5c-1.3-13.2-10.9-24.1-23.9-27c-1.2-0.4-2.4-0.6-3.7-0.6v6.5
			c0,0.8-0.6,1.4-1.4,1.4h-3.4c-0.8,0-1.4-0.6-1.4-1.4v-6.5c-14.5,1.6-25.9,13.1-27.3,27.5h6.2c0.8,0,1.4,0.6,1.4,1.4v3.5
			c0,0.8-0.6,1.4-1.4,1.4h-6.2c1.3,12,9.5,22.2,21,25.9c2,0.7,4.1,1.1,6.3,1.3v-6.5c0-0.8,0.6-1.4,1.4-1.4h3.4
			c0.8,0,1.4,0.6,1.4,1.4v6.5c14.5-1.4,26-12.8,27.6-27.3h-6.5C179.5,138,178.9,137.4,178.9,136.6z M176.2,144.6
			c-1.1,2.4-4.2,1.2-4.2,1.2l-18.8-9.2l0,0v-16.4c0.1-1.5,1.4-2.7,3-2.7h0.1c1.4-0.1,2.6,1,2.6,2.4c0,0,0,0,0,0v13.4
			c0,0,14,6.6,14.9,7.2S177.3,142.2,176.2,144.6z"/>
		<path class="st2" d="M176.2,144.6c-1.1,2.4-4.2,1.2-4.2,1.2l-18.8-9.2l0,0v-16.4c0.1-1.5,1.4-2.7,3-2.7h0.1c1.4-0.1,2.6,1,2.6,2.4
			c0,0,0,0,0,0v13.4c0,0,14,6.6,14.9,7.2S177.3,142.2,176.2,144.6z"/>
		<path id="Shape_5_copy_2" class="st2" d="M109.5,130.6H87.7c-0.7,0-1.2,0.5-1.2,1.2c0,0,0,0,0,0v12.3c0,0.7,0.5,1.2,1.2,1.2h21.8
			c0.7,0,1.2-0.5,1.2-1.2v-12.2C110.7,131.2,110.2,130.6,109.5,130.6C109.5,130.6,109.5,130.6,109.5,130.6z M109.5,107.3H87.7
			c-0.7,0-1.2,0.5-1.2,1.2v12.2c0,0.7,0.5,1.2,1.2,1.2h21.8c0.7,0,1.2-0.5,1.2-1.2v-12.2C110.7,107.9,110.1,107.3,109.5,107.3
			L109.5,107.3z M109.5,83.3H87.7c-0.7,0-1.2,0.5-1.2,1.2c0,0,0,0,0,0v12.2c0,0.7,0.5,1.2,1.2,1.2h21.8c0.7,0,1.2-0.5,1.2-1.2V84.5
			C110.7,83.9,110.1,83.3,109.5,83.3L109.5,83.3z M75.7,130.6H53.9c-0.7,0-1.2,0.5-1.2,1.2c0,0,0,0,0,0v12.3c0,0.7,0.5,1.2,1.2,1.2
			h21.8c0.7,0,1.2-0.5,1.2-1.2v-12.2C76.9,131.2,76.4,130.6,75.7,130.6C75.7,130.6,75.7,130.6,75.7,130.6z M75.7,107H53.9
			c-0.7,0-1.2,0.5-1.2,1.2c0,0,0,0,0,0v12.2c0,0.7,0.5,1.2,1.1,1.3c0,0,0.1,0,0.1,0h21.8c0.7,0,1.2-0.5,1.2-1.2c0,0,0,0,0,0v-12.2
			C76.9,107.6,76.3,107,75.7,107L75.7,107L75.7,107z M75.7,83.3H53.9c-0.7,0-1.2,0.5-1.2,1.2c0,0,0,0,0,0.1v12.2
			c0,0.7,0.5,1.2,1.2,1.2h21.8c0.7,0,1.2-0.5,1.2-1.2V84.5C76.9,83.9,76.3,83.3,75.7,83.3L75.7,83.3L75.7,83.3z"/>
	</g>
</g>
</svg>
