<svg xmlns="http://www.w3.org/2000/svg" viewBox="0 0 296.09 261.04"><defs><style>.cls-1{fill:#e6e6e6;}.cls-1,.cls-10,.cls-11,.cls-12,.cls-13,.cls-14,.cls-2,.cls-3,.cls-4,.cls-5,.cls-6,.cls-7,.cls-8,.cls-9{fill-rule:evenodd;}.cls-2{fill:#b4b4b4;}.cls-3{fill:#989898;}.cls-4{fill:#676767;}.cls-5{fill:#211514;}.cls-6{fill:#202f42;}.cls-7{fill:#228ec8;}.cls-8{fill:#35a9e7;}.cls-9{fill:#1478ae;}.cls-10{fill:#232f41;}.cls-11{fill:#fff;}.cls-12{fill:#04689e;}.cls-13{fill:#2f90c5;}.cls-14{fill:#008fca;}</style></defs><title>QudosList</title><g id="Layer_2" data-name="Layer 2"><g id="Layer_1-2" data-name="Layer 1"><path id="Shape_21_copy_4" data-name="Shape 21 copy 4" class="cls-1" d="M134.81,21.39S113.38,38.51,66.28,67.57s-88.37,64.3-53,106.22,37.46,26.76,43,68.21c0,0-.66,21.34,23.78,10s55.91-35.48,93.15-9.69S238,268.77,271,234.69s32.59-85.92,4-118.78S230.72,83.17,215.89,40c0,0-6.49-33.39-27.23-39S143.58,13.27,134.81,21.39Z"/><path id="Shape_7_copy_3" data-name="Shape 7 copy 3" class="cls-2" d="M82.76,91.48l.33,4.3,7.72-2.13.18-3.6a13.34,13.34,0,0,0-1.07-2.52c-.21,0-1.79-1.13-2-1.09s-4.37-1.63-4.65-1.08-.72.32-.72.9S82.76,91.48,82.76,91.48Z"/><path id="Shape_6_copy_3" data-name="Shape 6 copy 3" class="cls-3" d="M68.68,50.38l-1.26-2L74.94,45l33.47,13.45-1.49,2.4a1.93,1.93,0,0,1-.53.9c-.58.76-8.79,2.77-10.2,2.52s0,0-2.69-.54-10-2.27-11.45-3.43S68.68,50.38,68.68,50.38Z"/><path id="Shape_5_copy_4" data-name="Shape 5 copy 4" class="cls-2" d="M100.67,61.24l7.87-2.88V93.52L101,96,100,95s-.5-4-.89-6.12A47.59,47.59,0,0,0,96.55,82a5,5,0,0,1-.35-3.42C96.75,77.17,100.67,61.24,100.67,61.24Z"/><path id="Shape_4_copy_3" data-name="Shape 4 copy 3" class="cls-4" d="M67.55,48.27,101,61.36l-.18,34.51-16.42-6-1.25,6.31-3-8.11L67.55,83.07Z"/><path id="Shape_20_copy_3" data-name="Shape 20 copy 3" class="cls-5" d="M220.09,209l8.69,2.41,9.6-3.48s2.4-.53,2-5-2-30.82-22.71-35.25a25.45,25.45,0,0,0,10.88-21c-.05-15.81-11.51-31.27-28.76-32.56,0,0-16-.93-24.74,7.1L183.8,150Z"/><path id="Shape_19_copy_3" data-name="Shape 19 copy 3" class="cls-6" d="M208.21,170.88s7-3.33,9.81-14.21-2.3-30-19.49-38.06c0,0-14.14-7-25,3.35s-8.59,30,1.89,41.41c0,0-13.64-3.14-20.3,11.13,0,0-3.83,8.11-3.9,15.94a4.43,4.43,0,0,0,3.62,4.69c4,1,70.71,15.55,70.71,15.55s5,1.88,5.11-2.14S229.79,176.91,208.21,170.88Z"/><path id="Shape_20_copy_4" data-name="Shape 20 copy 4" class="cls-4" d="M91.94,192l7.25,2,8-2.89s2-.44,1.68-4.11-1.64-25.54-19-29.21A21.1,21.1,0,0,0,99,140.3c0-13.11-9.6-25.92-24-27,0,0-13.32-.77-20.64,5.89l7.29,23.88Z"/><path id="Shape_7_copy" data-name="Shape 7 copy" class="cls-7" d="M132.19,87.81l.93,6,9.52-3.26.24-4.65s-1.12-3.23-1.4-3.26-2.33-1.45-2.55-1.4-5.68-2.1-6-1.4-.94.41-.93,1.17S132.19,87.81,132.19,87.81Z"/><path id="Shape_6_copy" data-name="Shape 6 copy" class="cls-8" d="M108.47,32.8l-1.63-2.56,9.37-3.33,43.45,16.36-1.93,3.1a2.52,2.52,0,0,1-.7,1.16c-.75,1-11.41,3.59-13.24,3.26s.05,0-3.49-.7-13-2.92-14.86-4.42S108.47,32.8,108.47,32.8Z"/><path id="Shape_5_copy" data-name="Shape 5 copy" class="cls-9" d="M149.61,46.82l10.22-3.72V88.51l-9.75,3.26-1.4-1.4s-.64-5.18-1.16-7.91-3.12-8.51-3.25-8.84-1.19-2.61-.46-4.42S149.61,46.82,149.61,46.82Z"/><path id="Shape_4_copy" data-name="Shape 4 copy" class="cls-10" d="M106.62,30.07,150.08,47l-.24,44.55-15.1-5.35-1.62,8.14-3.94-10.47L106.63,75V30.07Z"/><path class="cls-11" d="M132.79,49.6c6.67,2.24,11.91,9.45,11.7,16.1s-5.78,10.22-12.45,8-11.9-9.45-11.7-16.1S126.12,47.36,132.79,49.6Zm-.08,2.61c5.22,1.75,9.32,7.4,9.16,12.61s-4.52,8-9.74,6.25-9.33-7.4-9.17-12.61,4.52-8,9.75-6.25Zm-19.32,2.72,5.1,1.72a1.7,1.7,0,0,1,1.12,1.55.86.86,0,0,1-1.2.78l-5.1-1.72a1.71,1.71,0,0,1-1.12-1.55.85.85,0,0,1,.82-.86A1,1,0,0,1,113.39,54.93Zm-.13,4.25,6,2a1.72,1.72,0,0,1,1.12,1.55.85.85,0,0,1-.82.86.91.91,0,0,1-.37-.08l-6-2A1.69,1.69,0,0,1,112.07,60a.84.84,0,0,1,.81-.86A1,1,0,0,1,113.26,59.18Zm-.13,4.25,8,2.71a1.68,1.68,0,0,1,1.12,1.55.83.83,0,0,1-.81.85.84.84,0,0,1-.38-.08l-8-2.7a1.7,1.7,0,0,1-1.12-1.55.83.83,0,0,1,1.19-.78ZM133.83,69l0-.91a4.13,4.13,0,0,0,4.62-3.59,5,5,0,0,0,0-.78,9,9,0,0,0-5.8-8.08s-5.73-2.11-6.38,3.89a8.66,8.66,0,0,0,4.29,7.37l0,1Zm.15-4.85a1.53,1.53,0,0,0,1-1.62,3.68,3.68,0,0,0-2.35-3.35c-1.36-.44-2.68-.14-2.72,1.65a3,3,0,0,0,.85,2.22l0-1.21L134,62.89Z"/><path id="Shape_7_copy_2" data-name="Shape 7 copy 2" class="cls-10" d="M190.07,77.68l-.93,6.06-9.51-3.26-.24-4.66s1.12-3.22,1.4-3.26,2.32-1.45,2.55-1.4,5.67-2.11,6-1.4.93.41.93,1.17S190.07,77.68,190.07,77.68Z"/><path id="Shape_6_copy_2" data-name="Shape 6 copy 2" class="cls-9" d="M208.33,24.57,210,22l-9.74-3.34L156.81,35l1.93,3.1a2.56,2.56,0,0,0,.7,1.17c.75,1,11.4,3.59,13.23,3.26s-.06,0,3.48-.7,13-2.93,14.85-4.43S208.33,24.57,208.33,24.57Z"/><path id="Shape_5_copy_3" data-name="Shape 5 copy 3" class="cls-10" d="M166.85,38.6l-10.21-3.72V80.32l9.74,3.26,1.39-1.4s.65-5.18,1.16-7.91,3.12-8.52,3.25-8.85,1.19-2.62.47-4.42S166.85,38.6,166.85,38.6Z"/><path id="Shape_4_copy_2" data-name="Shape 4 copy 2" class="cls-7" d="M209.79,21.84l-43.4,16.92.23,44.59,21.28-7.68,1.63,8.15,3.94-10.48,16.32-6.52Z"/><path id="Shape_19_copy_4" data-name="Shape 19 copy 4" class="cls-2" d="M82,160.37s5.87-2.76,8.19-11.77S88.29,123.74,74,117.05c0,0-11.8-5.75-20.86,2.78s-7.18,24.83,1.57,34.32c0,0-11.38-2.6-16.94,9.22,0,0-3.19,6.72-3.26,13.21a3.69,3.69,0,0,0,3,3.89c3.36.83,59,12.88,59,12.88s4.16,1.56,4.26-1.77S100,165.37,82,160.37Z"/><path class="cls-12" d="M160.83,219.69l10.75,3,11.89-4.33s3-.66,2.5-6.16-2.45-38.27-28.14-43.76a31.65,31.65,0,0,0,13.49-26.13c-.07-19.64-14.26-38.84-35.63-40.44,0,0-19.78-1.16-30.64,8.82l10.83,35.78Z"/><path class="cls-13" d="M146.11,172.37s8.71-4.13,12.16-17.64-2.86-37.25-24.14-47.26c0,0-17.51-8.63-31,4.16s-10.64,37.2,2.33,51.42c0,0-16.88-3.9-25.14,13.82,0,0-4.73,10.07-4.82,19.8A5.51,5.51,0,0,0,80,202.49c5,1.24,87.57,19.31,87.57,19.31s6.17,2.33,6.33-2.67S172.83,179.86,146.11,172.37Z"/><path class="cls-14" d="M253,99.06s3.86-6.32,4.91-8.45L266.3,86l-8.44-4.63-4.64-9-4.9,8.73L239.87,86l8.72,4.91Z"/><path class="cls-14" d="M19.34,192s3.86-6.32,4.91-8.45l8.44-4.63-8.44-4.63-4.64-9L14.71,174l-8.45,4.9L15,183.85Z"/></g></g></svg>