<?xml version="1.0" encoding="utf-8"?>
<!-- Generator: Adobe Illustrator 23.0.2, SVG Export Plug-In . SVG Version: 6.00 Build 0)  -->
<svg version="1.1" id="Layer_1" xmlns="http://www.w3.org/2000/svg" xmlns:xlink="http://www.w3.org/1999/xlink" x="0px" y="0px"
	 viewBox="0 0 260.2 245.9" style="enable-background:new 0 0 260.2 245.9;" xml:space="preserve">
<style type="text/css">
	.st0{fill-rule:evenodd;clip-rule:evenodd;fill:#228EC8;}
	.st1{fill-rule:evenodd;clip-rule:evenodd;fill:#116897;}
	.st2{fill-rule:evenodd;clip-rule:evenodd;fill:#106694;}
	.st3{fill-rule:evenodd;clip-rule:evenodd;fill:#040707;}
	.st4{fill-rule:evenodd;clip-rule:evenodd;fill:#2A3647;}
	.st5{fill-rule:evenodd;clip-rule:evenodd;fill:#FFFFFF;}
	.st6{fill-rule:evenodd;clip-rule:evenodd;fill:#FEFEFE;}
</style>
<title>QudosFave</title>
<g>
	<g id="Layer_1-2">
		<path id="Shape_19_copy" class="st0" d="M8.1,96.3c0,0,21.5-17.1,67.1-3.9l-16.6,29.9c0,0-25.9-3-41.8,3.9c0,0-1.8-5.5,6.3-16.5
			C23.1,109.7,15.6,101.3,8.1,96.3z M252.1,96.6c0,0-21.5-17-67.1-3.9l16.6,29.7c0,0,25.9-2.9,41.8,3.9c0,0,1.8-5.5-6.3-16.4
			C237.1,109.8,244.6,101.4,252.1,96.6z"/>
		<path id="Shape_21_copy" class="st1" d="M70.6,106.2c0,0-11.6-0.8-17.1,3.5c0,0,5.6,5.1,15.8,6.5L70.6,106.2z"/>
		<path id="Shape_21_copy_3" class="st2" d="M186.4,105.6c0,0,13.8-1,20.4,4.1c0,0-6.6,6.1-18.8,7.7L186.4,105.6z"/>
		<path id="Shape_1_copy_3" class="st3" d="M139.8,171.3h33.8c0,0,21,0.6,23-25.1V88c0,0,0-23.3-22.8-26.1H93.5
			c0,0-20.9,1.3-21.6,25.1v60.5c0,0,1.3,21.2,21.6,23.8h14v24.1c0,0-0.4,2.8,1.8,3.6s3.5-0.3,4.7-1.6S139.8,171.3,139.8,171.3z"/>
		<path id="Shape_1_copy_2" class="st4" d="M133.7,166h33.8c0,0,21,0.6,23-25.1V82.7c0,0,0-23.3-22.8-26.1H87.3
			c0,0-20.9,1.3-21.6,25.1v60.5c0,0,1.3,21.2,21.6,23.8h14v24.1c0,0-0.4,2.8,1.8,3.6s3.5-0.3,4.7-1.6S133.7,166,133.7,166z"/>
		<path id="Shape_13_copy_2" class="st5" d="M133.2,156.9l39.7-38.1c0,0,7.1-7.2,6.8-17.3c-0.3-9.5-7.2-24.2-25.1-25
			c0,0-14.4-2.2-21.4,10c0,0-4.7,9.1-11.8-1.4c-4.8-5.6-11.8-8.7-19.2-8.6c-12.8,0-26,8.2-26,25.9c0,0-0.3,9.4,10,19.5
			s36.5,35.4,36.5,35.4S127.7,163.3,133.2,156.9z"/>
		<path id="Shape_20_copy" class="st0" d="M53.6,109.8c0,0-7.4,4.1-5.8,29.4c0,0,6.8,13.8,84,12.9s79.7-14.3,79.7-14.3
			s1.1-19.5-5-28c0,0-15.8,10.6-72.5,10.8S64.2,116.4,53.6,109.8z"/>
		<path id="MyFAVE" class="st6" d="M97.9,144.3l2.4-16.6l-4.2-0.6l-6.3,9.4l-3.3-10.8l-4.2-0.6L80,141.7l3.4,0.5L85,131l3,10.1
			l2.4,0.4l5.8-8.8l-1.7,11.2L97.9,144.3z M116.1,132.7l-3.7-0.3l-3.6,8.7l-2.8-9.1l-3.8-0.3l4.4,12.9l-0.4,0.7
			c-0.3,0.7-1,1.1-1.8,1c-0.6-0.1-1.2-0.4-1.6-0.8l-1.7,2.5c0.9,0.9,2.1,1.4,3.4,1.5c2.1,0.2,4.1-1,4.9-3L116.1,132.7z M130.9,132.2
			l0.1-3.1l-12-0.2l-0.2,16.8l3.8,0.1l0.1-6.3l7.6,0.1v-3.1l-7.6-0.1l0.1-4.1L130.9,132.2z M144.8,142.1l1.4,3.3l4-0.2l-7.9-16.4
			l-3.9,0.2l-6.6,17l3.9-0.2l1.2-3.3L144.8,142.1z M143.5,139.1l-5.3,0.2l2.4-6.6L143.5,139.1z M161.2,144l4.9-17.3l-3.9,0.4
			l-3.3,13l-5.8-12.1l-4.1,0.4l8.2,16L161.2,144z M181.8,127.3l-0.5-3.1l-12.6,2l2.7,16.5l12.8-2.1l-0.5-3.1l-9.1,1.5l-0.6-3.6
			l8-1.3l-0.5-3.1l-8,1.3l-0.6-3.6L181.8,127.3z"/>
	</g>
</g>
</svg>
