<svg id="long_platform_copy" data-name="long platform copy" xmlns="http://www.w3.org/2000/svg" width="4040.166" height="2431.593" viewBox="0 0 1346.722 810.531">
  <defs>
    <style>
      .cls-1 {
        fill: #4b7bc2;
      }

      .cls-1, .cls-2 {
        fill-rule: evenodd;
      }

      .cls-2 {
        fill: #3b8ecb;
      }
    </style>
  </defs>
  <path id="Rounded_Rectangle_9_copy_2" data-name="Rounded Rectangle 9 copy 2" class="cls-1" d="M1460.27,871.519L2037.1,1204.24c10.24,5.89,10.14,6.28-2.16,13.51l-728.99,421.99c-12.48,7.33-12.94,7.03-23.23,1.08L707.146,1307.96c-12.719-7.19-12.628-7.87,2.7-16.2L1436.68,871.924C1448.75,864.591,1448.55,864.7,1460.27,871.519Zm553.91,307.731h30.49v31.45h-30.49v-31.45ZM697.966,1269.22l30.629-.77v31.71l-30.629.78v-31.72Z" transform="translate(-697.938 -834.719)"/>
  <path id="Rounded_Rectangle_9" data-name="Rounded Rectangle 9" class="cls-2" d="M1460.27,839.8l576.83,332.72c10.24,5.89,10.14,6.28-2.16,13.51l-728.99,421.99c-12.48,7.33-12.94,7.03-23.23,1.08L707.146,1276.24c-12.719-7.19-12.628-7.87,2.7-16.2L1436.68,840.205C1448.75,832.872,1448.55,832.976,1460.27,839.8Z" transform="translate(-697.938 -834.719)"/>
</svg>
