<?xml version="1.0" encoding="utf-8"?>
<!-- Generator: Adobe Illustrator 23.0.2, SVG Export Plug-In . SVG Version: 6.00 Build 0)  -->
<svg version="1.1" id="Layer_1" xmlns="http://www.w3.org/2000/svg" xmlns:xlink="http://www.w3.org/1999/xlink" x="0px" y="0px"
	 viewBox="0 0 3840 2288.9" style="enable-background:new 0 0 3840 2288.9;" xml:space="preserve">
<style type="text/css">
	.st0{fill:none;}
	.st1{fill:#FFFFFF;}
	.st2{fill:url(#SVGID_1_);}
	.st3{fill:url(#SVGID_2_);}
	.st4{fill:url(#SVGID_3_);}
</style>
<title>hero-bg</title>
<g>
	<path class="st0" d="M3122,3.9l197.6-1.1H3120C3120.7,3.2,3121.3,3.5,3122,3.9z"/>
	<path class="st1" d="M1286,1815.1c-722.6-241.5-1114.4-179.9-1286-120v504v89.9h3840v-76.1V2100
		C2940.5,2201.5,2276.6,2146.2,1286,1815.1z"/>
	<linearGradient id="SVGID_1_" gradientUnits="userSpaceOnUse" x1="3309.4329" y1="34.5939" x2="3329.7866" y2="-28.991">
		<stop  offset="0" style="stop-color:#FFFFFF"/>
		<stop  offset="0.67" style="stop-color:#FBFBFB"/>
		<stop  offset="1" style="stop-color:#F6F6F6"/>
	</linearGradient>
	<polygon class="st2" points="3319.6,2.8 3319.6,2.8 3319.6,2.8 	"/>
	<linearGradient id="SVGID_2_" gradientUnits="userSpaceOnUse" x1="3309.7166" y1="-28.1129" x2="3329.5032" y2="33.7004">
		<stop  offset="0" style="stop-color:#FFFFFF"/>
		<stop  offset="0.67" style="stop-color:#FBFBFB"/>
		<stop  offset="1" style="stop-color:#F6F6F6"/>
	</linearGradient>
	<polygon class="st3" points="3319.6,2.8 3319.6,2.8 3319.6,2.8 	"/>
</g>
<g>
	<path class="st0" d="M0,1391.8V1616C20.2,1603,15.1,1518.9,0,1391.8z"/>
	<linearGradient id="SVGID_3_" gradientUnits="userSpaceOnUse" x1="1223.5854" y1="3226.9905" x2="2027.7559" y2="714.7707">
		<stop  offset="0" style="stop-color:#FFFFFF"/>
		<stop  offset="0.67" style="stop-color:#FBFBFB"/>
		<stop  offset="1" style="stop-color:#F6F6F6"/>
	</linearGradient>
	<path class="st4" d="M3319.6,2.8L3319.6,2.8L3319.6,2.8L3122,3.9c-0.7-0.4-1.3-0.7-2-1.1H0v1389C15.1,1518.9,20.2,1603,0,1616v79.1
		c171.6-59.9,563.4-121.5,1286,120c990.6,331.1,1654.5,386.4,2554,284.9V0L3319.6,2.8z"/>
</g>
</svg>
