<svg xmlns="http://www.w3.org/2000/svg" width="6843" height="6222" viewBox="0 0 2281 2074">
  <defs>
    <style>
      .cls-1 {
        fill: #f4f4f4;
        fill-rule: evenodd;
      }
    </style>
  </defs>
  <path class="cls-1" d="M1331.95,2639.96h413.03l-0.14,16.04,26.17-31-26.17-31,0.14,16.04H1331.95v29.92Zm758,0h415.03l-0.14,16.04,26.17-31-26.17-31,0.14,16.04H2089.95v29.92Zm443.1,1006H2117.02l0.14,16.04-26.17-31,26.17-31-0.14,16.04h416.03v29.92Zm-760,0H1357.02l0.14,16.04-26.17-31,26.17-31-0.14,16.04h416.03v29.92ZM3072,3616.04v29.92H2880l0.16,16.04-26.17-31,26.17-31-0.16,16.04h162.01V2639.99H2852.99v-29.98H3072v29.98h-0.01v976.05H3072ZM3251,5253,791,4622.04v29.92H983L982.842,4668l26.168-31-26.168-31L983,4622.04H820.988V3645.99H1010.01v-29.98H791v29.98h0.008v976.05H791Zm541.947,29.92h413.03l-0.14,16.04,26.17-31-26.17-31,0.14,16.04H1332.95v29.92Z" transform="translate(-791 -2594)"/>
</svg>
