<?xml version="1.0" encoding="UTF-8" standalone="no"?>
<svg width="160px" height="46px" viewBox="0 0 160 46" version="1.1" xmlns="http://www.w3.org/2000/svg" xmlns:xlink="http://www.w3.org/1999/xlink">
    <!-- Generator: Sketch 39.1 (31720) - http://www.bohemiancoding.com/sketch -->
    <title>download_play_store</title>
    <desc>Created with Sketch.</desc>
    <defs>
        <linearGradient x1="91.4895098%" y1="4.9604069%" x2="-38.3173161%" y2="71.909245%" id="linearGradient-1">
            <stop stop-color="#00A0FF" offset="0%"></stop>
            <stop stop-color="#00A1FF" offset="0.66%"></stop>
            <stop stop-color="#00BEFF" offset="26.01%"></stop>
            <stop stop-color="#00D2FF" offset="51.22%"></stop>
            <stop stop-color="#00DFFF" offset="76.04%"></stop>
            <stop stop-color="#00E3FF" offset="100%"></stop>
        </linearGradient>
        <linearGradient x1="107.585647%" y1="50.0163647%" x2="-130.492257%" y2="50.0163647%" id="linearGradient-2">
            <stop stop-color="#FFE000" offset="0%"></stop>
            <stop stop-color="#FFBD00" offset="40.87%"></stop>
            <stop stop-color="#FFA500" offset="77.54%"></stop>
            <stop stop-color="#FF9C00" offset="100%"></stop>
        </linearGradient>
        <linearGradient x1="86.237735%" y1="117.851014%" x2="-50.1313759%" y2="294.785269%" id="linearGradient-3">
            <stop stop-color="#FF3A44" offset="0%"></stop>
            <stop stop-color="#C31162" offset="100%"></stop>
        </linearGradient>
        <linearGradient x1="-18.8012883%" y1="-154.171052%" x2="42.0936259%" y2="-75.1365546%" id="linearGradient-4">
            <stop stop-color="#32A071" offset="0%"></stop>
            <stop stop-color="#2DA771" offset="6.85%"></stop>
            <stop stop-color="#15CF74" offset="47.62%"></stop>
            <stop stop-color="#06E775" offset="80.09%"></stop>
            <stop stop-color="#00F076" offset="100%"></stop>
        </linearGradient>
    </defs>
    <g id="Page-1" stroke="none" stroke-width="1" fill="none" fill-rule="evenodd">
        <g id="Artboard" transform="translate(-259.000000, -83.000000)">
            <g id="download_play_store" transform="translate(259.000000, 83.000000)">
                <g id="play_store">
                    <path d="M153.575705,0.360826875 L6.16507284,0.360826875 C2.92351303,0.360826875 0.268647544,2.92576428 0.268647544,6.05752294 L0.268647544,40.2376993 C0.268647544,43.369458 2.92351303,45.9343954 6.16507284,45.9343954 L153.575705,45.9343954 C156.817265,45.9343954 159.47213,43.369458 159.47213,40.2376993 L159.47213,6.05752294 C159.47213,2.92576428 156.817265,0.360826875 153.575705,0.360826875 L153.575705,0.360826875 Z" id="path14" fill="#000000" transform="translate(79.870389, 23.147611) scale(1, -1) translate(-79.870389, -23.147611) "></path>
                    <g id="Group-23" transform="translate(48.235294, 8.050000)" fill="#FFFFFF">
                        <path d="M7.9521027,3.98193293 C7.9521027,4.93328118 7.65728144,5.69521427 7.07648355,6.26345971 C6.40871338,6.93709402 5.53899065,7.27604743 4.47321178,7.27604743 C3.45460431,7.27604743 2.58488158,6.93139732 1.87141412,6.25206631 C1.15647255,5.56276609 0.799738821,4.71680673 0.799738821,3.704219 C0.799738821,2.69163127 1.15647255,1.84567191 1.87141412,1.16206838 C2.58488158,0.477040681 3.45460431,0.132390569 4.47321178,0.132390569 C4.98030435,0.132390569 5.46381123,0.233506924 5.92520651,0.421497894 C6.38512768,0.610913038 6.75955069,0.867264361 7.03078625,1.18343099 L6.41460981,1.78443243 C5.94142168,1.24467048 5.29723721,0.978349934 4.47321178,0.978349934 C3.73026219,0.978349934 3.08607773,1.22900456 2.53918428,1.73458634 C1.99818726,2.24159229 1.7269517,2.89813651 1.7269517,3.704219 C1.7269517,4.51030149 1.99818726,5.17254241 2.53918428,5.67954836 C3.08607773,6.17943344 3.73026219,6.43578476 4.47321178,6.43578476 C5.26185866,6.43578476 5.92520651,6.17943344 6.44851425,5.67385166 C6.79345513,5.33917077 6.98951127,4.87773839 7.041105,4.28813035 L4.47321178,4.28813035 L4.47321178,3.46495777 L7.89903488,3.46495777 C7.94030985,3.64297952 7.9521027,3.81530457 7.9521027,3.98193293 L7.9521027,3.98193293 Z" id="path20"></path>
                        <polygon id="path24" points="13.3871327 1.12788821 10.1691586 1.12788821 10.1691586 3.29263271 13.0701999 3.29263271 13.0701999 4.11580529 10.1691586 4.11580529 10.1691586 6.28054979 13.3871327 6.28054979 13.3871327 7.11938829 9.25816091 7.11938829 9.25816091 0.289049711 13.3871327 0.289049711"></polygon>
                        <polygon id="path28" points="17.2227574 7.11938829 16.3117597 7.11938829 16.3117597 1.12788821 14.3379313 1.12788821 14.3379313 0.289049711 19.1980598 0.289049711 19.1980598 1.12788821 17.2227574 1.12788821 17.2227574 7.11938829"></polygon>
                        <polygon id="path32" points="22.7152775 7.11938829 22.7152775 0.289049711 23.6248011 0.289049711 23.6248011 7.11938829"></polygon>
                        <polygon id="path36" points="27.6564819 7.11938829 26.7528548 7.11938829 26.7528548 1.12788821 24.7716559 1.12788821 24.7716559 0.289049711 29.6376808 0.289049711 29.6376808 1.12788821 27.6564819 1.12788821"></polygon>
                        <path d="M38.8390525,6.24067292 C38.1418002,6.93139732 37.2779739,7.27604743 36.2475736,7.27604743 C35.2112768,7.27604743 34.3474505,6.93139732 33.6501982,6.24067292 C32.9544201,5.5513727 32.6080051,4.70541333 32.6080051,3.704219 C32.6080051,2.70302467 32.9544201,1.8570653 33.6501982,1.16776508 C34.3474505,0.477040681 35.2112768,0.132390569 36.2475736,0.132390569 C37.2720775,0.132390569 38.1359038,0.477040681 38.8331561,1.17346177 C39.5348307,1.86845869 39.8812457,2.70872136 39.8812457,3.704219 C39.8812457,4.70541333 39.5348307,5.5513727 38.8390525,6.24067292 L38.8390525,6.24067292 Z M34.3238648,5.66815497 C34.8486467,6.17943344 35.4869347,6.43578476 36.2475736,6.43578476 C37.002316,6.43578476 37.6465005,6.17943344 38.1653859,5.66815497 C38.6886937,5.1568765 38.9540328,4.50033227 38.9540328,3.704219 C38.9540328,2.90810573 38.6886937,2.2515615 38.1653859,1.74028303 C37.6465005,1.22900456 37.002316,0.972653238 36.2475736,0.972653238 C35.4869347,0.972653238 34.8486467,1.22900456 34.3238648,1.74028303 C33.8005571,2.2515615 33.5352179,2.90810573 33.5352179,3.704219 C33.5352179,4.50033227 33.8005571,5.1568765 34.3238648,5.66815497 L34.3238648,5.66815497 Z" id="path40"></path>
                        <polygon id="path44" points="41.1592959 7.11938829 41.1592959 0.289049711 42.2648756 0.289049711 45.7024915 5.60121879 45.7422924 5.60121879 45.7024915 4.28813035 45.7024915 0.289049711 46.6120151 0.289049711 46.6120151 7.11938829 45.6626907 7.11938829 42.062923 1.54517119 42.0231222 1.54517119 42.062923 2.86395633 42.062923 7.11938829 41.1592959 7.11938829"></polygon>
                    </g>
                    <path d="M80.619235,33.8246437 C77.8493892,33.8246437 75.586636,31.7880749 75.586636,28.9781795 C75.586636,26.191071 77.8493892,24.1331395 80.619235,24.1331395 C83.3949772,24.1331395 85.6577304,26.191071 85.6577304,28.9781795 C85.6577304,31.7880749 83.3949772,33.8246437 80.619235,33.8246437 L80.619235,33.8246437 Z M80.619235,26.0415327 C79.0994314,26.0415327 77.7918991,27.2535048 77.7918991,28.9781795 C77.7918991,30.7256411 79.0994314,31.9162505 80.619235,31.9162505 C82.1390386,31.9162505 83.4524674,30.7256411 83.4524674,28.9781795 C83.4524674,27.2535048 82.1390386,26.0415327 80.619235,26.0415327 L80.619235,26.0415327 Z M69.638617,33.8246437 C66.8628748,33.8246437 64.606018,31.7880749 64.606018,28.9781795 C64.606018,26.191071 66.8628748,24.1331395 69.638617,24.1331395 C72.4128851,24.1331395 74.671216,26.191071 74.671216,28.9781795 C74.671216,31.7880749 72.4128851,33.8246437 69.638617,33.8246437 L69.638617,33.8246437 Z M69.638617,26.0415327 C68.1173393,26.0415327 66.8053847,27.2535048 66.8053847,28.9781795 C66.8053847,30.7256411 68.1173393,31.9162505 69.638617,31.9162505 C71.1584206,31.9162505 72.465953,30.7256411 72.465953,28.9781795 C72.465953,27.2535048 71.1584206,26.0415327 69.638617,26.0415327 L69.638617,26.0415327 Z M56.5721386,32.3392302 L56.5721386,30.2798746 L61.6622277,30.2798746 C61.513343,29.129142 61.1153343,28.2831826 60.5050542,27.6935746 C59.7621047,26.9814876 58.6049312,26.191071 56.5721386,26.191071 C53.4396626,26.191071 50.9867497,28.6335294 50.9867497,31.6598992 C50.9867497,34.686269 53.4396626,37.1287274 56.5721386,37.1287274 C58.2658867,37.1287274 59.4982396,36.4892733 60.4077632,35.660404 L61.9098776,37.1116373 C60.6377238,38.2851567 58.9454498,39.1866589 56.5721386,39.1866589 C52.2765927,39.1866589 48.6665064,35.8099423 48.6665064,31.6598992 C48.6665064,27.5098561 52.2765927,24.1331395 56.5721386,24.1331395 C58.893856,24.1331395 60.6377238,24.8680133 62.0086427,26.2466138 C63.413466,27.6038516 63.8512756,29.5122448 63.8512756,31.0532011 C63.8512756,31.5317236 63.8100006,31.9717933 63.7362953,32.3392302 L56.5721386,32.3392302 L56.5721386,32.3392302 Z M110.002596,30.7427312 C109.588372,31.8265276 108.310322,33.8246437 105.707051,33.8246437 C103.127364,33.8246437 100.979592,31.8607078 100.979592,28.9781795 C100.979592,26.2637039 103.105253,24.1331395 105.9547,24.1331395 C108.258729,24.1331395 109.588372,25.4903774 110.135266,26.280794 L108.425303,27.3816805 C107.854823,26.575598 107.077969,26.0415327 105.9547,26.0415327 C104.838802,26.0415327 104.038362,26.5357211 103.525373,27.5098561 L110.234031,30.1915758 L110.002596,30.7427312 L110.002596,30.7427312 Z M103.162743,29.129142 C103.105253,30.9976583 104.664857,31.9547032 105.78223,31.9547032 C106.657849,31.9547032 107.400799,31.5317236 107.648449,30.9264496 L103.162743,29.129142 L103.162743,29.129142 Z M97.7100237,24.4279436 L99.9152868,24.4279436 L99.9152868,38.6696837 L97.7100237,38.6696837 L97.7100237,24.4279436 L97.7100237,24.4279436 Z M94.0984632,32.7451198 L94.0247579,32.7451198 C93.5294582,33.3119411 92.5845561,33.8246437 91.3875817,33.8246437 C88.8757045,33.8246437 86.5790469,31.6940794 86.5790469,28.9625136 C86.5790469,26.2466138 88.8757045,24.1331395 91.3875817,24.1331395 C92.5845561,24.1331395 93.5294582,24.6501147 94.0247579,25.2340261 L94.0984632,25.2340261 L94.0984632,24.5390291 C94.0984632,22.6861787 93.0739594,21.6906811 91.4214862,21.6906811 C90.074153,21.6906811 89.2383347,22.630636 88.8933938,23.4210525 L86.9755815,22.647726 C87.5283714,21.3631211 88.9921589,19.7822879 91.4214862,19.7822879 C94.0070687,19.7822879 96.188746,21.2520355 96.188746,24.8281365 L96.188746,33.5298397 L94.0984632,33.5298397 L94.0984632,32.7451198 L94.0984632,32.7451198 Z M91.5762673,26.0415327 C90.0564637,26.0415327 88.78431,27.2705949 88.78431,28.9625136 C88.78431,30.6700983 90.0564637,31.9162505 91.5762673,31.9162505 C93.0739594,31.9162505 94.2547185,30.6700983 94.2547185,28.9625136 C94.2547185,27.2705949 93.0739594,26.0415327 91.5762673,26.0415327 L91.5762673,26.0415327 Z M120.327237,38.6696837 L115.052885,38.6696837 L115.052885,24.4279436 L117.252251,24.4279436 L117.252251,29.8241389 L120.327237,29.8241389 C122.769831,29.8241389 125.165254,31.5317236 125.165254,34.2476234 C125.165254,36.9620991 122.763935,38.6696837 120.327237,38.6696837 L120.327237,38.6696837 Z M120.384727,31.805165 L117.252251,31.805165 L117.252251,36.6886577 L120.384727,36.6886577 C122.026882,36.6886577 122.964413,35.3712967 122.964413,34.2476234 C122.964413,33.1453127 122.026882,31.805165 120.384727,31.805165 L120.384727,31.805165 Z M133.98041,33.851703 C132.391323,33.851703 130.73885,33.1737962 130.059287,31.6712926 L132.011004,30.880876 C132.431124,31.6712926 133.203556,31.9276439 134.020211,31.9276439 C135.161169,31.9276439 136.318342,31.265403 136.336032,30.0961561 L136.336032,29.9466179 C135.938023,30.168789 135.08599,30.4977732 134.0379,30.4977732 C131.935824,30.4977732 129.793948,29.3797966 129.793948,27.2933817 C129.793948,25.3849885 131.515704,24.1559263 133.451206,24.1559263 C134.931208,24.1559263 135.747863,24.8010772 136.260852,25.5516169 L136.336032,25.5516169 L136.336032,24.4507303 L138.460219,24.4507303 L138.460219,29.9138619 C138.460219,32.4389224 136.508502,33.851703 133.98041,33.851703 L133.98041,33.851703 Z M133.715071,26.0472294 C132.995707,26.0472294 131.993315,26.3918795 131.993315,27.2535048 C131.993315,28.3558155 133.243357,28.7787952 134.325351,28.7787952 C135.293839,28.7787952 135.747863,28.57229 136.336032,28.3002727 C136.163561,26.9814876 134.988699,26.0472294 133.715071,26.0472294 L133.715071,26.0472294 Z M146.199277,33.5398089 L143.671185,27.3660146 L143.596005,27.3660146 L140.982415,33.5398089 L138.610578,33.5398089 L142.537597,24.9121627 L140.296955,20.1112721 L142.595087,20.1112721 L148.646294,33.5398089 L146.199277,33.5398089 L146.199277,33.5398089 Z M126.374021,24.4279436 L128.579284,24.4279436 L128.579284,38.6696837 L126.374021,38.6696837 L126.374021,24.4279436 L126.374021,24.4279436 Z" id="path46" fill="#FFFFFF" transform="translate(98.656400, 29.484473) scale(1, -1) translate(-98.656400, -29.484473) "></path>
                    <g id="Group-22" transform="translate(11.764706, 8.050000)">
                        <path d="M0.809781251,29.2952019 C0.463366265,28.9448551 0.262887805,28.3993964 0.262887805,27.6930061 L0.262887805,2.49651943 C0.262887805,1.79012912 0.463366265,1.24467048 0.809781251,0.894323667 L0.895279417,0.81741827 L15.5095695,14.9309828 L15.5095695,15.2642395 L0.895279417,29.377804 L0.809781251,29.2952019 L0.809781251,29.2952019 Z" id="path64" fill="url(#linearGradient-1)" transform="translate(7.886229, 15.097611) scale(1, -1) translate(-7.886229, -15.097611) "></path>
                        <path d="M20.3755945,10.2240876 L15.5095695,14.9309828 L15.5095695,15.2642395 L20.3814909,19.9711346 L20.4905748,19.9098951 L26.2602269,16.7382596 C27.9068037,15.8381816 27.9068037,14.3570406 26.2602269,13.451266 L20.4905748,10.2853271 L20.3755945,10.2240876 L20.3755945,10.2240876 Z" id="path78" fill="url(#linearGradient-2)" transform="translate(21.502365, 15.097611) scale(1, -1) translate(-21.502365, -15.097611) "></path>
                        <path d="M20.4905748,24.9401624 L15.5095695,29.7524464 L0.809781251,15.549159 C1.3566747,14.9937311 2.24850902,14.9267949 3.26269417,15.4822228 L20.4905748,24.9401624" id="path88" fill="url(#linearGradient-3)" transform="translate(10.650178, 22.425029) scale(1, -1) translate(-10.650178, -22.425029) "></path>
                        <path d="M20.4905748,5.25990486 L3.26269417,14.7178445 C2.24850902,15.2675757 1.3566747,15.2006395 0.809781251,14.6452116 L15.5095695,0.447620863 L20.4905748,5.25990486 L20.4905748,5.25990486 Z" id="path104" fill="url(#linearGradient-4)" transform="translate(10.650178, 7.772616) scale(1, -1) translate(-10.650178, -7.772616) "></path>
                    </g>
                </g>
            </g>
        </g>
    </g>
</svg>