<?xml version="1.0" encoding="UTF-8" standalone="no"?>
<svg width="260px" height="580px" viewBox="0 0 260 580" version="1.1" xmlns="http://www.w3.org/2000/svg" xmlns:xlink="http://www.w3.org/1999/xlink">
    <!-- Generator: Sketch 39.1 (31720) - http://www.bohemiancoding.com/sketch -->
    <title>iphone</title>
    <desc>Created with Sketch.</desc>
    <defs></defs>
    <g id="Page-1" stroke="none" stroke-width="1" fill="none" fill-rule="evenodd">
        <g id="Artboard-2" transform="translate(-146.000000, -30.000000)">
            <g id="iphone" transform="translate(146.000000, 30.000000)">
                <path d="M40.0019374,-2.27373675e-13 L219.998063,-2.27373675e-13 C242.090523,-2.27373675e-13 260,17.914179 260,40.0087062 L260,539.991294 C260,562.087492 242.090708,580 219.998063,580 L40.0019374,580 C17.9094774,580 0,562.085821 0,539.991294 L0,40.0087062 C0,17.9125079 17.9092917,-2.27373675e-13 40.0019374,-2.27373675e-13 Z" id="Rectangle-4-Copy" fill="#DDDDDD"></path>
                <path d="M4,539.991294 C4,559.877436 20.1193708,576 40.0019374,576 L219.998063,576 C239.881351,576 256,559.878572 256,539.991294 L256,40.0087062 C256,20.1225635 239.880629,4 219.998063,4 L40.0019374,4 C20.1186492,4 4,20.1214284 4,40.0087062 L4,539.991294 Z" id="Path" fill="#EEEEEE"></path>
                <rect id="Rectangle-5" fill="#CCCCCC" x="110" y="40" width="40" height="6" rx="3"></rect>
                <ellipse id="Oval-2" fill="#CCCCCC" cx="97" cy="43" rx="3" ry="3"></ellipse>
                <rect id="Mask" fill="#464646" x="4" y="76" width="252" height="448"></rect>
            </g>
        </g>
    </g>
</svg>