<?xml version="1.0" encoding="UTF-8" standalone="no"?>
<svg width="813px" height="200px" viewBox="0 0 813 200" version="1.1" xmlns="http://www.w3.org/2000/svg" xmlns:xlink="http://www.w3.org/1999/xlink">
    <!-- Generator: Sketch 39.1 (31720) - http://www.bohemiancoding.com/sketch -->
    <title>layer_back</title>
    <desc>Created with Sketch.</desc>
    <defs></defs>
    <g id="Page-1" stroke="none" stroke-width="1" fill="none" fill-rule="evenodd">
        <path d="M307.946711,89.022 L307.946711,38.47 L307.88471,38.47 L330.085241,0 L352.281772,38.47 L352.239771,38.47 L352.239771,67.148 L352.239771,99.244 L355.179841,99.244 L355.179841,67.148 L396.53083,67.148 L396.53083,109.918 L396.53483,148.894 L403.088987,148.894 L403.092987,108.784 L440.823889,108.784 L440.823889,200 L396.53083,200 L352.239771,200 L307.946711,200 L263.655652,200 L263.655652,89.022 L304.14262,89.022 L304.14262,113.092 L307.946711,113.092 L307.946711,89.022 L307.946711,89.022 Z M218.207277,101.594346 L218.207277,147.041635 L192.046777,147.041635 L192.046777,135.473287 L151.991624,122.352338 L111.930613,135.473287 L111.930613,101.594346 L66.4793079,101.594346 L66.4793079,147.041635 L46.9482831,147.041635 L46.9482831,111.35816 L23.4770711,93.3333333 L0,111.35816 L0,155.680545 L0,200 L263.655652,200 L263.655652,101.594346 L218.207277,101.594346 L218.207277,101.594346 Z M440.823889,121.150174 L481.130562,104.605274 L521.428964,121.150174 L521.428964,154.351624 L527.636035,154.351624 L527.636035,137.860482 L556.616148,13.3333333 L585.534232,137.860482 L585.534232,154.442598 L591.753708,154.442598 L591.753708,133.71702 L607.252775,112.937684 L623.760854,112.937684 L623.760854,104.716924 L648.605677,104.716924 L648.605677,112.937684 L665.150972,112.937684 L680.65831,133.71702 L680.65831,146.130864 L686.877787,146.130864 L686.877787,117.110092 L720.964983,96.4424064 L755.093532,117.110092 L755.093532,158.478545 L761.308874,158.478545 L761.308874,81.8245054 L787.183384,75.5886371 L813,81.8245054 L813,200 L440.824432,200 L440.823889,121.150174 L440.823889,121.150174 Z" id="layer_back" fill="#2B2B2B"></path>
    </g>
</svg>