<?xml version="1.0" encoding="UTF-8" standalone="no"?>
<svg width="20px" height="20px" viewBox="0 0 20 20" version="1.1" xmlns="http://www.w3.org/2000/svg" xmlns:xlink="http://www.w3.org/1999/xlink">
    <!-- Generator: Sketch 39.1 (31720) - http://www.bohemiancoding.com/sketch -->
    <title>pint</title>
    <desc>Created with Sketch.</desc>
    <defs></defs>
    <g id="Page-1" stroke="none" stroke-width="1" fill="none" fill-rule="evenodd" opacity="0.7">
        <g id="pint" fill="#FFFFFF">
            <g id="Group-25">
                <path d="M11.1692906,15.0550837 C10.0735242,14.969949 9.61367218,14.4270681 8.75479639,13.9051316 C8.28228129,16.3832217 7.70511459,18.7590777 5.99559405,20 C5.46785872,16.2546601 6.77039579,13.4415952 7.37519522,10.4552752 C6.34387494,8.71869867 7.49929375,5.22401311 9.67463603,6.08540284 C12.3510759,7.14438476 7.3568337,12.5411665 10.7094387,13.2152327 C14.2101569,13.9189287 15.6391894,7.13990636 13.4686862,4.93540548 C10.3321231,1.75226236 4.33885156,4.86284645 5.07584486,9.42031377 C5.25520884,10.5345292 6.40601466,10.8725349 5.53569684,12.4102074 C3.52836696,11.9651274 2.92935639,10.3815853 3.00646572,8.27031641 C3.13056424,4.81457931 6.11064749,2.39516073 9.09982105,2.06054778 C12.8799418,1.6373169 16.4279206,3.44844288 16.9178022,7.00537359 C17.4693261,11.0198243 15.211357,15.3677571 11.1692906,15.0550837 L11.1692906,15.0550837 Z" id="Shape"></path>
            </g>
        </g>
    </g>
</svg>