<?xml version="1.0" encoding="utf-8"?>
<!-- Generator: Adobe Illustrator 23.0.2, SVG Export Plug-In . SVG Version: 6.00 Build 0)  -->
<svg version="1.1" id="platform" xmlns="http://www.w3.org/2000/svg" xmlns:xlink="http://www.w3.org/1999/xlink" x="0px" y="0px"
	 viewBox="0 0 2092.9 1238.6" style="enable-background:new 0 0 2092.9 1238.6;" xml:space="preserve">
<style type="text/css">
	.st0{fill-rule:evenodd;clip-rule:evenodd;fill:#4B7BC2;}
	.st1{fill-rule:evenodd;clip-rule:evenodd;fill:#3B8ECB;}
</style>
<path id="Rounded_Rectangle_15_copy" class="st0" d="M1031.4,47.3l1038.4,598.9c39.6,22.8,26.4,67.5-29.6,99.8l-800.4,462
	c-56.4,32.6-134.5,40.4-174.2,17.4L22.6,622.7C-17.1,599.8-3.2,555,53.5,522.6L858.1,64C914.3,32,991.9,24.5,1031.4,47.3z
	 M0.4,545.7H50v46.5l-31.4-15.9L0.4,545.7z M2058.8,644.9h34.1l-86.5,20.2l52.4,20.2V644.9z"/>
<path id="Rounded_Rectangle_15" class="st1" d="M1031.4,13.2l1038.4,598.9c39.6,22.8,26.4,67.5-29.6,99.8l-800.4,462
	c-56.4,32.6-134.5,40.4-174.2,17.4L22.6,588.6c-39.7-22.9-25.8-67.8,30.9-100.1L858.1,29.9C914.3-2.1,991.9-9.6,1031.4,13.2z"/>
</svg>
