<svg xmlns="http://www.w3.org/2000/svg" viewBox="0 0 862.19 725.74"><defs><style>.aa109071-552e-4848-991a-13be1879cc43{fill:none;stroke:#fff;stroke-linecap:round;stroke-linejoin:round;stroke-width:4px;}.be9a06b0-d711-4a3c-b927-19eec8831aae{fill:#fff;}</style></defs><title>fireworks</title><g id="b6c72409-4779-4428-bad1-3a4b7383db6e" data-name="Layer 2"><g id="ad709361-ece8-46d0-ada6-8625ecea6411" data-name="Object"><line class="aa109071-552e-4848-991a-13be1879cc43" x1="449.39" y1="252.78" x2="449.39" y2="195.79"/><line class="aa109071-552e-4848-991a-13be1879cc43" x1="449.39" y1="180.71" x2="449.39" y2="157.79"/><line class="aa109071-552e-4848-991a-13be1879cc43" x1="449.39" y1="143.31" x2="449.39" y2="131.85"/><line class="aa109071-552e-4848-991a-13be1879cc43" x1="498.17" y1="241.92" x2="510.83" y2="196.69"/><line class="aa109071-552e-4848-991a-13be1879cc43" x1="514.45" y1="184.02" x2="522.9" y2="153.87"/><line class="aa109071-552e-4848-991a-13be1879cc43" x1="532.43" y1="260.87" x2="556.79" y2="227.04"/><line class="aa109071-552e-4848-991a-13be1879cc43" x1="563.49" y1="218.48" x2="575.79" y2="200.06"/><line class="aa109071-552e-4848-991a-13be1879cc43" x1="521.84" y1="234.08" x2="550.79" y2="173.77"/><line class="aa109071-552e-4848-991a-13be1879cc43" x1="556.82" y1="163.52" x2="567.08" y2="142.41"/><line class="aa109071-552e-4848-991a-13be1879cc43" x1="476.91" y1="207.55" x2="481.13" y2="174.98"/><line class="aa109071-552e-4848-991a-13be1879cc43" x1="473.89" y1="220.81" x2="471.48" y2="236.5"/><line class="aa109071-552e-4848-991a-13be1879cc43" x1="566.67" y1="264.62" x2="592.84" y2="241.17"/><line class="aa109071-552e-4848-991a-13be1879cc43" x1="603.52" y1="231.21" x2="621.16" y2="215.61"/><line class="aa109071-552e-4848-991a-13be1879cc43" x1="580.95" y1="299.53" x2="628.6" y2="274.8"/><line class="aa109071-552e-4848-991a-13be1879cc43" x1="637.65" y1="270.57" x2="679.87" y2="247.65"/><line class="aa109071-552e-4848-991a-13be1879cc43" x1="689.52" y1="242.83" x2="700.98" y2="236.19"/><line class="aa109071-552e-4848-991a-13be1879cc43" x1="602.96" y1="381.25" x2="664.49" y2="381.25"/><line class="aa109071-552e-4848-991a-13be1879cc43" x1="677.15" y1="381.25" x2="697.96" y2="381.25"/><line class="aa109071-552e-4848-991a-13be1879cc43" x1="711.53" y1="381.25" x2="726.01" y2="381.25"/><line class="aa109071-552e-4848-991a-13be1879cc43" x1="614.73" y1="355.92" x2="650.01" y2="348.68"/><line class="aa109071-552e-4848-991a-13be1879cc43" x1="660.87" y1="345.97" x2="692.53" y2="339.63"/><line class="aa109071-552e-4848-991a-13be1879cc43" x1="593.92" y1="331.49" x2="622.87" y2="321.54"/><line class="aa109071-552e-4848-991a-13be1879cc43" x1="643.68" y1="314.3" x2="699.77" y2="298.92"/><line class="aa109071-552e-4848-991a-13be1879cc43" x1="711.53" y1="295.3" x2="726.01" y2="291.68"/><line class="aa109071-552e-4848-991a-13be1879cc43" x1="449.39" y1="506.39" x2="449.39" y2="563.38"/><line class="aa109071-552e-4848-991a-13be1879cc43" x1="449.39" y1="578.47" x2="449.39" y2="601.39"/><line class="aa109071-552e-4848-991a-13be1879cc43" x1="449.39" y1="615.86" x2="449.39" y2="627.32"/><line class="aa109071-552e-4848-991a-13be1879cc43" x1="498.17" y1="517.25" x2="510.83" y2="562.48"/><line class="aa109071-552e-4848-991a-13be1879cc43" x1="514.45" y1="575.15" x2="522.9" y2="605.31"/><line class="aa109071-552e-4848-991a-13be1879cc43" x1="534.81" y1="502.79" x2="556.79" y2="532.13"/><line class="aa109071-552e-4848-991a-13be1879cc43" x1="563.49" y1="540.69" x2="575.79" y2="559.11"/><line class="aa109071-552e-4848-991a-13be1879cc43" x1="521.84" y1="525.09" x2="550.79" y2="585.4"/><line class="aa109071-552e-4848-991a-13be1879cc43" x1="556.82" y1="595.66" x2="567.08" y2="616.77"/><line class="aa109071-552e-4848-991a-13be1879cc43" x1="476.91" y1="551.63" x2="481.13" y2="584.2"/><line class="aa109071-552e-4848-991a-13be1879cc43" x1="473.89" y1="538.36" x2="471.48" y2="522.68"/><line class="aa109071-552e-4848-991a-13be1879cc43" x1="572.81" y1="500.37" x2="592.84" y2="518"/><line class="aa109071-552e-4848-991a-13be1879cc43" x1="603.52" y1="527.96" x2="621.16" y2="543.56"/><line class="aa109071-552e-4848-991a-13be1879cc43" x1="611.41" y1="475.04" x2="628.6" y2="484.38"/><line class="aa109071-552e-4848-991a-13be1879cc43" x1="637.65" y1="488.6" x2="679.87" y2="511.52"/><line class="aa109071-552e-4848-991a-13be1879cc43" x1="689.52" y1="516.34" x2="700.98" y2="522.98"/><line class="aa109071-552e-4848-991a-13be1879cc43" x1="614.73" y1="403.25" x2="650.01" y2="410.49"/><line class="aa109071-552e-4848-991a-13be1879cc43" x1="660.87" y1="413.2" x2="692.53" y2="419.54"/><line class="aa109071-552e-4848-991a-13be1879cc43" x1="609.6" y1="432.82" x2="622.87" y2="437.63"/><line class="aa109071-552e-4848-991a-13be1879cc43" x1="643.68" y1="444.87" x2="699.77" y2="460.25"/><line class="aa109071-552e-4848-991a-13be1879cc43" x1="711.53" y1="463.87" x2="726.01" y2="467.49"/><line class="aa109071-552e-4848-991a-13be1879cc43" x1="400.63" y1="241.92" x2="387.96" y2="196.69"/><line class="aa109071-552e-4848-991a-13be1879cc43" x1="384.34" y1="184.02" x2="375.9" y2="153.87"/><line class="aa109071-552e-4848-991a-13be1879cc43" x1="366.36" y1="260.87" x2="342" y2="227.04"/><line class="aa109071-552e-4848-991a-13be1879cc43" x1="335.3" y1="218.48" x2="323.01" y2="200.06"/><line class="aa109071-552e-4848-991a-13be1879cc43" x1="376.95" y1="234.08" x2="348" y2="173.77"/><line class="aa109071-552e-4848-991a-13be1879cc43" x1="341.97" y1="163.52" x2="331.72" y2="142.41"/><line class="aa109071-552e-4848-991a-13be1879cc43" x1="421.89" y1="207.55" x2="417.67" y2="174.98"/><line class="aa109071-552e-4848-991a-13be1879cc43" x1="424.9" y1="220.81" x2="427.32" y2="236.5"/><line class="aa109071-552e-4848-991a-13be1879cc43" x1="332.13" y1="264.62" x2="305.95" y2="241.17"/><line class="aa109071-552e-4848-991a-13be1879cc43" x1="295.28" y1="231.21" x2="277.63" y2="215.61"/><line class="aa109071-552e-4848-991a-13be1879cc43" x1="317.84" y1="299.53" x2="270.2" y2="274.8"/><line class="aa109071-552e-4848-991a-13be1879cc43" x1="261.15" y1="270.57" x2="218.93" y2="247.65"/><line class="aa109071-552e-4848-991a-13be1879cc43" x1="209.28" y1="242.83" x2="197.82" y2="236.19"/><line class="aa109071-552e-4848-991a-13be1879cc43" x1="295.83" y1="381.25" x2="234.31" y2="381.25"/><line class="aa109071-552e-4848-991a-13be1879cc43" x1="221.64" y1="381.25" x2="200.83" y2="381.25"/><line class="aa109071-552e-4848-991a-13be1879cc43" x1="187.26" y1="381.25" x2="172.79" y2="381.25"/><line class="aa109071-552e-4848-991a-13be1879cc43" x1="284.07" y1="355.92" x2="248.78" y2="348.68"/><line class="aa109071-552e-4848-991a-13be1879cc43" x1="237.93" y1="345.97" x2="206.26" y2="339.63"/><line class="aa109071-552e-4848-991a-13be1879cc43" x1="304.88" y1="331.49" x2="275.93" y2="321.54"/><line class="aa109071-552e-4848-991a-13be1879cc43" x1="255.12" y1="314.3" x2="199.03" y2="298.92"/><line class="aa109071-552e-4848-991a-13be1879cc43" x1="187.26" y1="295.3" x2="172.79" y2="291.68"/><line class="aa109071-552e-4848-991a-13be1879cc43" x1="400.63" y1="517.25" x2="387.96" y2="562.48"/><line class="aa109071-552e-4848-991a-13be1879cc43" x1="384.34" y1="575.15" x2="375.9" y2="605.31"/><line class="aa109071-552e-4848-991a-13be1879cc43" x1="363.99" y1="502.79" x2="342" y2="532.13"/><line class="aa109071-552e-4848-991a-13be1879cc43" x1="335.3" y1="540.69" x2="323.01" y2="559.11"/><line class="aa109071-552e-4848-991a-13be1879cc43" x1="376.95" y1="525.09" x2="348" y2="585.4"/><line class="aa109071-552e-4848-991a-13be1879cc43" x1="341.97" y1="595.66" x2="331.72" y2="616.77"/><line class="aa109071-552e-4848-991a-13be1879cc43" x1="421.89" y1="551.63" x2="417.67" y2="584.2"/><line class="aa109071-552e-4848-991a-13be1879cc43" x1="424.9" y1="538.36" x2="427.32" y2="522.68"/><line class="aa109071-552e-4848-991a-13be1879cc43" x1="325.99" y1="500.37" x2="305.95" y2="518"/><line class="aa109071-552e-4848-991a-13be1879cc43" x1="295.28" y1="527.96" x2="277.63" y2="543.56"/><line class="aa109071-552e-4848-991a-13be1879cc43" x1="287.39" y1="475.04" x2="270.2" y2="484.38"/><line class="aa109071-552e-4848-991a-13be1879cc43" x1="261.15" y1="488.6" x2="218.93" y2="511.52"/><line class="aa109071-552e-4848-991a-13be1879cc43" x1="209.28" y1="516.34" x2="197.82" y2="522.98"/><line class="aa109071-552e-4848-991a-13be1879cc43" x1="284.07" y1="403.25" x2="248.78" y2="410.49"/><line class="aa109071-552e-4848-991a-13be1879cc43" x1="237.93" y1="413.2" x2="206.26" y2="419.54"/><line class="aa109071-552e-4848-991a-13be1879cc43" x1="289.2" y1="432.82" x2="275.93" y2="437.63"/><line class="aa109071-552e-4848-991a-13be1879cc43" x1="255.12" y1="444.87" x2="199.03" y2="460.25"/><line class="aa109071-552e-4848-991a-13be1879cc43" x1="187.26" y1="463.87" x2="172.79" y2="467.49"/><path class="be9a06b0-d711-4a3c-b927-19eec8831aae" d="M658.35,126a10.15,10.15,0,0,1-.68-1.64,9.81,9.81,0,0,1-.45-2.19,8,8,0,0,1,.36-3.16,7.63,7.63,0,0,1,2.23-3.32,7.91,7.91,0,0,1,4.18-1.85,10.33,10.33,0,0,1,4.86.48,10.67,10.67,0,0,1,3.5,2,12.56,12.56,0,0,1,1,1c2.49,2.75,3.66,6.48,4.16,10.16a44.64,44.64,0,0,1,0,11.61A38,38,0,0,1,673.85,151a30,30,0,0,1-8.21,10.09,28.06,28.06,0,0,1-11.83,5.56,24.26,24.26,0,0,1-6.52.39A22.29,22.29,0,0,1,641,165.6a23.24,23.24,0,0,1-9.64-7.19,18.83,18.83,0,0,1-3.68-7.51l-.12-.51a3.86,3.86,0,0,1-.12-.57l-.15-1.14c-.1-.76-.19-1.51-.28-2.25l0-.28a1,1,0,0,1,.26,0l.56-.05,1.11-.09c.75-.09,1.4-.06,2.08-.08h1a5.68,5.68,0,0,1,.66.08,9.54,9.54,0,0,1,1.21.2,16.15,16.15,0,0,1,4.26,1.58,17.74,17.74,0,0,1,5.52,4.71,18.28,18.28,0,0,1,2.35,4.09c.37,1,.54,1.6.54,1.6a20.38,20.38,0,0,1,.48,3,17.42,17.42,0,0,1-1,6.85,20.27,20.27,0,0,1-4.95,7.84A20.48,20.48,0,0,1,637,179a20.74,20.74,0,0,1-15,2.06,39.17,39.17,0,0,1-8.09-2.75c-4.47-2.09-7.21-3.82-7.11-4.05h0c.13-.28,3.14,1,7.69,2.61a43.64,43.64,0,0,0,7.89,2,20.71,20.71,0,0,0,8.94-.61,19.35,19.35,0,0,0,4.09-1.91,17.33,17.33,0,0,0,3.34-2.77,16.93,16.93,0,0,0,3.83-6.65,14.28,14.28,0,0,0,.57-5.42,17.46,17.46,0,0,0-.44-2.27l-.4-1.19a13.76,13.76,0,0,0-1.79-3.12,14.07,14.07,0,0,0-4.26-3.65,12.6,12.6,0,0,0-3.19-1.18,6.21,6.21,0,0,0-.88-.14l-.42-.07h-.18l0,.08a18,18,0,0,0,.65,2.05,17.7,17.7,0,0,0,2.31,3.95,19.13,19.13,0,0,0,8,5.92,18.85,18.85,0,0,0,10.54.86A24.08,24.08,0,0,0,663.16,158a26,26,0,0,0,7.12-8.77,33.7,33.7,0,0,0,3.25-10.66,40.66,40.66,0,0,0,0-10.52c-.43-3.28-1.46-6.17-3.15-8a8,8,0,0,0-.65-.65,8.33,8.33,0,0,0-.67-.5,6.53,6.53,0,0,0-1.48-.72,6.46,6.46,0,0,0-3-.3,3.73,3.73,0,0,0-3.19,2.48,4.67,4.67,0,0,0,.11,2.84,7.65,7.65,0,0,0,.44,1.08,9.7,9.7,0,0,0,1.25,1.94,12.47,12.47,0,0,0,1.71,1.7,10.71,10.71,0,0,0,1.18.83c.43.27,1,.51,1.49.79a18,18,0,0,0,7.78,1.62,19.28,19.28,0,0,0,8.83-2.44,20.49,20.49,0,0,0,6.89-6.19,18.84,18.84,0,0,0,3.13-7.51,19.66,19.66,0,0,0,.14-5.86c-.16-1.44-.34-2.26-.18-2.31s.54.71,1,2.15a16.88,16.88,0,0,1,.61,6.22,19.52,19.52,0,0,1-2.79,8.53,22.33,22.33,0,0,1-7.33,7.4,21.94,21.94,0,0,1-10.11,3.32,21,21,0,0,1-9.42-1.56c-.65-.31-1.26-.56-1.87-.9a16.35,16.35,0,0,1-1.66-1.06,16.73,16.73,0,0,1-2.37-2.2A13.2,13.2,0,0,1,658.35,126Z"/><path class="be9a06b0-d711-4a3c-b927-19eec8831aae" d="M504.69,22.61l.38,1.36c.1.44.18,1,.3,1.66a18.06,18.06,0,0,1,.32,2.26,34.17,34.17,0,0,1-1.63,13.92,38.17,38.17,0,0,1-4.1,8.43,33.63,33.63,0,0,1-7.1,7.72l-1.08.86c-.38.27-.77.51-1.16.76A20.43,20.43,0,0,1,488.19,61a28.2,28.2,0,0,1-5.3,2.21,21.38,21.38,0,0,1-11.91.32,15.49,15.49,0,0,1-9.56-7.62,12.11,12.11,0,0,1-1.32-6.2,13.38,13.38,0,0,1,1.8-5.83,15.67,15.67,0,0,1,8.61-7,13.18,13.18,0,0,1,5.27-.66,16.47,16.47,0,0,1,4.76,1.07A18.88,18.88,0,0,1,487.38,42a20.41,20.41,0,0,1,3.55,5.3,18.91,18.91,0,0,1,1.33,3.92c.21.92.27,1.42.27,1.42a23,23,0,0,1-.41,8.59,29.52,29.52,0,0,1-2.9,7.55,31.2,31.2,0,0,1-2.43,3.76c-.9,1.2-1.85,2.36-2.87,3.48a36.4,36.4,0,0,1-6.62,5.87,23.32,23.32,0,0,1-7,3.28,16.82,16.82,0,0,1-5.39.55c-1.29-.13-2-.33-2-.46,0-.35,3-.06,6.9-1.57A23.87,23.87,0,0,0,476,80.11a36.34,36.34,0,0,0,5.79-5.89c.89-1.11,1.72-2.27,2.5-3.43a30.15,30.15,0,0,0,2-3.5,26.22,26.22,0,0,0,2.23-6.77,20,20,0,0,0,.08-7.23s-.05-.41-.22-1.16A15.21,15.21,0,0,0,487.3,49a16.11,16.11,0,0,0-2.86-4.26A14.84,14.84,0,0,0,479.08,41a10.81,10.81,0,0,0-7.33-.33,11.62,11.62,0,0,0-6.38,5.23A9.19,9.19,0,0,0,464.1,50a8,8,0,0,0,.89,4.15,11.59,11.59,0,0,0,7.1,5.59,17.4,17.4,0,0,0,9.66-.32c.79-.24,1.58-.52,2.35-.83s1.49-.72,2.22-1.08a16.31,16.31,0,0,0,2.1-1.24c.34-.22.69-.43,1-.66l.94-.75a30.06,30.06,0,0,0,6.25-6.8,35,35,0,0,0,3.64-7.48,30.32,30.32,0,0,0,1.44-12.27,15.53,15.53,0,0,0-.28-2c-.1-.57-.17-1.06-.26-1.44-.22-.77-.33-1.18-.33-1.18a25,25,0,0,0-3-7,29.84,29.84,0,0,0-4.62-5.8,33,33,0,0,0-6.79-5.09c-4.94-2.86-11-3-15.52-3.66S463.57.3,463.67.07s3,.43,7.42.52c2.22.08,4.85.05,7.74.33a30.45,30.45,0,0,1,4.47.75,25.34,25.34,0,0,1,4.48,1.62,35.08,35.08,0,0,1,7.74,5.17A32.71,32.71,0,0,1,501,14.7,27.35,27.35,0,0,1,504.69,22.61Z"/><path class="be9a06b0-d711-4a3c-b927-19eec8831aae" d="M260.67,111.32s.11-.07.3-.22.46-.34.79-.65a12.29,12.29,0,0,0,2.44-2.93c.82-1.37,1.43-3.24.73-4.78a3.54,3.54,0,0,0-.74-1.07,4.47,4.47,0,0,0-1.21-.8,7,7,0,0,0-3.59-.38A11.58,11.58,0,0,0,252,105.2,15.71,15.71,0,0,0,248.8,115a16.26,16.26,0,0,0,4.27,10.2,19.31,19.31,0,0,0,10,6c7.8,1.84,16.64-1.19,21.81-6.45a12.13,12.13,0,0,0,2.75-4.37,8.13,8.13,0,0,0,.22-4.6,6.6,6.6,0,0,0-2.1-3.56,5.21,5.21,0,0,0-3.45-1.15,7.63,7.63,0,0,0-3.56,1,8.49,8.49,0,0,0-1.43,1,11.71,11.71,0,0,0-1.19,1.26,15.13,15.13,0,0,0-2.61,5.47,25.2,25.2,0,0,0-.73,4c-.09,1-.1,1.46-.1,1.46a28,28,0,0,0,.94,8.82,27.27,27.27,0,0,0,3.48,7.8,26.27,26.27,0,0,0,6.72,7,28.05,28.05,0,0,0,17.32,5.31,33.35,33.35,0,0,0,6.09-.83c1.44-.38,2.29-.58,2.35-.45s-.69.57-2.1,1.22a24.56,24.56,0,0,1-6.22,1.61,28,28,0,0,1-9.18-.42,30.1,30.1,0,0,1-9.85-4.1,28.94,28.94,0,0,1-7.87-7.47,30.89,30.89,0,0,1-4.28-8.65,30.41,30.41,0,0,1-1.4-10s0-.59.12-1.69a28.75,28.75,0,0,1,.85-4.71,19,19,0,0,1,3.35-6.92,12.16,12.16,0,0,1,9.24-4.76,9.28,9.28,0,0,1,6.06,2.07,10.52,10.52,0,0,1,3.43,5.7,12.21,12.21,0,0,1-.31,6.84,16.16,16.16,0,0,1-3.63,5.82,24.1,24.1,0,0,1-5.37,4.18,29.12,29.12,0,0,1-13.17,4,26.45,26.45,0,0,1-7.08-.61,23.3,23.3,0,0,1-12.12-7.2,20.3,20.3,0,0,1-5.28-12.74,19.7,19.7,0,0,1,4-12.35,17.31,17.31,0,0,1,4.53-4.19,13.44,13.44,0,0,1,5.58-2.07,11,11,0,0,1,5.68.68A8.54,8.54,0,0,1,267,98.8a7.83,7.83,0,0,1,1.59,2.31,8,8,0,0,1,.48,4.88,11.74,11.74,0,0,1-1.41,3.55,16.34,16.34,0,0,1-3.23,3.89c-.42.4-.79.66-1,.86l-.35.25a28.67,28.67,0,0,1-9.47,4.44,30,30,0,0,1-9.92.93,27.69,27.69,0,0,1-10.79-3,28.3,28.3,0,0,1-8.64-6.86,27.47,27.47,0,0,1-4.81-8.18c-1.9-5.26-1.47-9-1.28-9,.35,0,.48,3.62,2.72,8.38a27.47,27.47,0,0,0,5,7.29,26.72,26.72,0,0,0,8.21,5.81,25.23,25.23,0,0,0,9.74,2.28,26.82,26.82,0,0,0,8.74-1.17,25.26,25.26,0,0,0,5.82-2.57A26.38,26.38,0,0,0,260.67,111.32Z"/><path class="be9a06b0-d711-4a3c-b927-19eec8831aae" d="M51.65,331.14a8.52,8.52,0,0,0-1.24-1.06A10.89,10.89,0,0,0,46,328.33a10.68,10.68,0,0,0-7.15,1.16,14,14,0,0,0-6.07,7.6,17.12,17.12,0,0,0-1,5.69,20.14,20.14,0,0,0,1.06,6.2,29.79,29.79,0,0,0,7.63,11.65,37.84,37.84,0,0,0,12.72,8.2,35.76,35.76,0,0,0,15.36,2.44,32.71,32.71,0,0,0,25.26-15.38,27.93,27.93,0,0,0,1.68-3.2c.22-.55.45-1.1.68-1.64s.36-1.07.48-1.62a16.53,16.53,0,0,0,.41-6.49,9.1,9.1,0,0,0-2.25-5.13,6.35,6.35,0,0,0-2-1.38,5.69,5.69,0,0,0-2.34-.43A8.1,8.1,0,0,0,86,337.49a8.93,8.93,0,0,0-2.83,3.33,14,14,0,0,0-1.27,7.44,18.09,18.09,0,0,0,1.22,4.87l.52,1.23a4.06,4.06,0,0,0,.23.4,21,21,0,0,0,1.76,2.8,23.55,23.55,0,0,0,5.63,5.29,27.15,27.15,0,0,0,10,4.07,26.19,26.19,0,0,0,3,.35c.5,0,1,.08,1.52.07l1.53-.06a23.94,23.94,0,0,0,6.12-1.3c8.17-2.71,15.83-7.33,20.19-12a15.62,15.62,0,0,0,3.9-6.5c.45-1.79.31-2.91.49-2.92s.52,1.07.3,3.07a15,15,0,0,1-3.51,7.37,38.52,38.52,0,0,1-8.65,7.61,58.24,58.24,0,0,1-11.8,6.06,26.56,26.56,0,0,1-6.77,1.69l-1.74.14c-.57,0-1.15,0-1.72,0a28.71,28.71,0,0,1-3.37-.29,30.44,30.44,0,0,1-11.43-4.25,27.17,27.17,0,0,1-6.73-6,23.76,23.76,0,0,1-2.19-3.32s-.1-.16-.27-.49-.36-.85-.65-1.5a21.83,21.83,0,0,1-1.49-6,17.8,17.8,0,0,1,1.69-9.6,13.36,13.36,0,0,1,1.67-2.56,12.29,12.29,0,0,1,2.42-2.23A12,12,0,0,1,90.43,332a9.53,9.53,0,0,1,3.89.73,10.52,10.52,0,0,1,3.4,2.29,11.82,11.82,0,0,1,2.27,3.44,15.76,15.76,0,0,1,1.07,3.91,19.31,19.31,0,0,1,.15,4,20.84,20.84,0,0,1-.64,4c-.16.67-.39,1.33-.61,2s-.52,1.26-.77,1.89A33.47,33.47,0,0,1,97.27,358a36.69,36.69,0,0,1-28.39,17.3,39.92,39.92,0,0,1-17.1-2.7,41.91,41.91,0,0,1-14.07-9.07,33.81,33.81,0,0,1-8.62-13.25,24.08,24.08,0,0,1-1.27-7.45,21.06,21.06,0,0,1,1.21-7A17.94,17.94,0,0,1,36.9,326a14.32,14.32,0,0,1,5.19-1.73,15.58,15.58,0,0,1,10.6,2.51,16.62,16.62,0,0,1,1.36,1.1l.44.42.32.32.58.72a7.52,7.52,0,0,1,.77,1.11A10.25,10.25,0,0,1,57,332a12.61,12.61,0,0,1,1,4.4,14.9,14.9,0,0,1-.87,5.44,17.72,17.72,0,0,1-3.1,5.45,22.73,22.73,0,0,1-5.1,4.44,38.71,38.71,0,0,1-13.09,5,80.7,80.7,0,0,1-13.52,1.72,46.28,46.28,0,0,1-11.82-1,29.14,29.14,0,0,1-7.83-2.89,14.2,14.2,0,0,1-2-1.24c-.43-.32-.64-.51-.61-.57s.32,0,.82.21,1.18.54,2.11.87a34.53,34.53,0,0,0,7.78,2.09,48.64,48.64,0,0,0,11.4.28,82.53,82.53,0,0,0,13-2.25A36.12,36.12,0,0,0,47,349a19.74,19.74,0,0,0,4.21-3.88,14.35,14.35,0,0,0,2.34-4.42,9.88,9.88,0,0,0-.18-7.12,7.92,7.92,0,0,0-.56-1,5.34,5.34,0,0,0-.53-.73l-.4-.47Z"/><path class="be9a06b0-d711-4a3c-b927-19eec8831aae" d="M211.48,592.72s.18-.22.5-.66a14.85,14.85,0,0,0,1.18-2,12.91,12.91,0,0,0,1-8,14.41,14.41,0,0,0-2-5.09,11.61,11.61,0,0,0-4.33-4,7.91,7.91,0,0,0-5.76-.74,4.62,4.62,0,0,0-3.16,4.09,7.94,7.94,0,0,0,1.71,5.73A9,9,0,0,0,203,584a12.79,12.79,0,0,0,3,1.21,25.3,25.3,0,0,0,12.16-.29,28.4,28.4,0,0,0,8.08-3.38c.46-.27.84-.54,1.18-.78s.62-.43.83-.61l.68-.53A22.07,22.07,0,0,0,232.6,576a19.54,19.54,0,0,0,2.59-4.21,20.49,20.49,0,0,0,1.59-5.45,19.66,19.66,0,0,0,0-5.68,17.78,17.78,0,0,0-1.4-4.79,16.39,16.39,0,0,0-.93-1.79,3.77,3.77,0,0,0-.86-1.15,1.31,1.31,0,0,0-.79-.36c-.21,0-.32,0-.33-.05s.07-.23.33-.36a1.43,1.43,0,0,1,1.2.08,3.85,3.85,0,0,1,1.41,1.13,14.22,14.22,0,0,1,1.33,1.75,17,17,0,0,1,2.23,5.08,20.28,20.28,0,0,1,.61,6.42,22.17,22.17,0,0,1-4,11.59,23.92,23.92,0,0,1-4.09,4.51l-.79.62c-.25.21-.59.45-1,.72s-.83.58-1.36.89a31.88,31.88,0,0,1-9.22,3.87,37,37,0,0,1-6.6,1,24.58,24.58,0,0,1-7.59-.73,14.52,14.52,0,0,1-7.36-4.46,11.85,11.85,0,0,1-2.6-8.75,9.09,9.09,0,0,1,1.81-4.57,8.53,8.53,0,0,1,4.08-2.85,11.82,11.82,0,0,1,8.8,1,15.56,15.56,0,0,1,5.88,5.4,18.33,18.33,0,0,1,2.59,6.55,17,17,0,0,1-1.36,10.42,20.12,20.12,0,0,1-1.51,2.55c-.4.55-.63.83-.63.83a22.38,22.38,0,0,1-4.65,4.25,33.55,33.55,0,0,1-11.41,5,32.6,32.6,0,0,1-12.06.57c-3.24-.46-5.24-1.34-5.18-1.57s2.17,0,5.3,0a36.59,36.59,0,0,0,11.19-1.75,32.15,32.15,0,0,0,9.95-5.23A20.11,20.11,0,0,0,211.48,592.72Z"/><path class="be9a06b0-d711-4a3c-b927-19eec8831aae" d="M397.83,688.88a4.54,4.54,0,0,1,.42.27c.27.19.68.44,1.19.82a18.56,18.56,0,0,1,3.92,4,16.78,16.78,0,0,1,1,1.65c.16.31.29.64.45,1a6.53,6.53,0,0,1,.4,1,11.51,11.51,0,0,1,.57,5,8.69,8.69,0,0,1-.66,2.83,5.83,5.83,0,0,1-2.32,2.8,6.44,6.44,0,0,1-3.59.85,14.41,14.41,0,0,1-3.1-.53,41.77,41.77,0,0,1-11.43-4.9,35.56,35.56,0,0,1-10.25-9.48,30.77,30.77,0,0,1-5.48-14,26.41,26.41,0,0,1,2.51-15.4,24.72,24.72,0,0,1,11.21-10.94,22.07,22.07,0,0,1,7.57-2.12,19.36,19.36,0,0,1,7.7.85,21.26,21.26,0,0,1,11.37,8.79,18.38,18.38,0,0,1,2.53,6.38,14.9,14.9,0,0,1-.21,6.61,9.21,9.21,0,0,1-3.83,5.33,10.8,10.8,0,0,1-5.55,1.64,12.83,12.83,0,0,1-8.5-2.86,17.28,17.28,0,0,1-3.7-4.23c-.33-.54-.57-1-.72-1.25l-.24-.43a27.63,27.63,0,0,1-1.34-3.2,46.13,46.13,0,0,1-1.88-7.5,58.32,58.32,0,0,1-.9-10.48,53.7,53.7,0,0,1,1.41-11.81,46.61,46.61,0,0,1,4.15-11,32.77,32.77,0,0,1,6.12-8.2,21.57,21.57,0,0,1,5.92-4.09c1.59-.69,2.57-.86,2.61-.75s-.82.57-2.23,1.46a25.45,25.45,0,0,0-5.18,4.46,33.76,33.76,0,0,0-5.24,8.12,46.77,46.77,0,0,0-3.39,10.62,52.62,52.62,0,0,0-.85,11.17,57.63,57.63,0,0,0,1.19,9.82,44.58,44.58,0,0,0,2,6.85,25,25,0,0,0,1.22,2.72l.19.36c.13.24.32.58.6,1a13.1,13.1,0,0,0,2.83,3.25,8.27,8.27,0,0,0,2.5,1.43,9.05,9.05,0,0,0,3.36.54,6.85,6.85,0,0,0,3.49-1,5.39,5.39,0,0,0,2.17-3.08,10.93,10.93,0,0,0,.11-4.79,14.12,14.12,0,0,0-2-5,17.25,17.25,0,0,0-9.2-7.11,16.56,16.56,0,0,0-12.32,1.06,20.83,20.83,0,0,0-9.38,9.16,22.48,22.48,0,0,0-2.1,13.08,26.64,26.64,0,0,0,4.77,12.16,31.69,31.69,0,0,0,9.1,8.42,37.88,37.88,0,0,0,10.34,4.42c1.65.49,3.07.52,3.58.13a3.27,3.27,0,0,0,1.09-2.6,7.42,7.42,0,0,0-.38-3.29,4.25,4.25,0,0,0-.28-.73c-.11-.23-.2-.46-.32-.68a12,12,0,0,0-.76-1.22,14.79,14.79,0,0,0-3.06-3.09c-.41-.31-.75-.51-1-.67l-.33-.22a18.6,18.6,0,0,0-9.45-2.83,26.82,26.82,0,0,0-4.66.22,27.84,27.84,0,0,0-5,1.24,28.53,28.53,0,0,0-5,2.37,25.71,25.71,0,0,0-4.5,3.51,24.71,24.71,0,0,0-6,9.46,27.74,27.74,0,0,0-1.55,9.78,28.71,28.71,0,0,0,1,7c.2.85.43,1.49.55,1.94s.16.72.1.75-.22-.17-.47-.58a12.1,12.1,0,0,1-.94-1.84,24.33,24.33,0,0,1-1.81-7.19,28,28,0,0,1,1-10.56,26.43,26.43,0,0,1,6.07-10.75,27.38,27.38,0,0,1,4.86-4.14,31.14,31.14,0,0,1,5.51-2.88,30.57,30.57,0,0,1,5.65-1.6,29.31,29.31,0,0,1,5.32-.43c.83,0,1.64.07,2.4.14s1.49.16,2.19.32a15.68,15.68,0,0,1,1.94.49,14.68,14.68,0,0,1,1.63.56A21.42,21.42,0,0,1,397.83,688.88Z"/><path class="be9a06b0-d711-4a3c-b927-19eec8831aae" d="M639.52,654.26l-.57-.86c-.37-.56-1-1.32-1.75-2.32a40.47,40.47,0,0,0-7.57-7c-.87-.62-1.83-1.2-2.81-1.81s-2-1.17-3.18-1.63a34.13,34.13,0,0,0-7.27-2.44c-2.61-.58-5.41-1-7.34-.1a5.92,5.92,0,0,0-3.16,5.47,6.19,6.19,0,0,0,.84,3.26,7.31,7.31,0,0,0,2.47,2.41,9.73,9.73,0,0,0,6.93,1,11.85,11.85,0,0,0,5.84-3.56,16.18,16.18,0,0,0,3.34-5.51,21,21,0,0,0,1.17-5.45,26.12,26.12,0,0,0-.12-4.37,27.34,27.34,0,0,0-.48-2.8,10,10,0,0,0-.24-1,34.91,34.91,0,0,0-2-5.82,43.18,43.18,0,0,0-7.13-10.62,114.57,114.57,0,0,0-9.32-9.06c-2.66-2.38-4.41-4-4.24-4.23s2.23,1,5.2,3a78.4,78.4,0,0,1,10.4,8.33,43.75,43.75,0,0,1,8.41,11,34.53,34.53,0,0,1,2.55,6.41s.12.38.27,1.12a30.83,30.83,0,0,1,.55,3.22,28.34,28.34,0,0,1,.14,5.11,24.46,24.46,0,0,1-1.41,6.55,19.88,19.88,0,0,1-4.16,6.86,15.85,15.85,0,0,1-7.88,4.73,13.67,13.67,0,0,1-9.87-1.5,11.31,11.31,0,0,1-3.85-3.78,10.26,10.26,0,0,1-1.41-5.35,10.8,10.8,0,0,1,1.4-5.28,8.88,8.88,0,0,1,4.17-3.83,11.43,11.43,0,0,1,5.2-.82c.82,0,1.6.14,2.35.25l2.22.43a38.34,38.34,0,0,1,8.1,2.71c1.26.53,2.39,1.22,3.52,1.81s2.15,1.31,3.1,2a44.39,44.39,0,0,1,8.37,7.76c.83,1.1,1.52,1.94,1.93,2.55l.63.95a36.7,36.7,0,0,1,3.23,6.28c.38.93.7,2,1.08,3s.63,2.24.87,3.46a29.36,29.36,0,0,1,.46,7.7,25.34,25.34,0,0,1-1.68,7.43,17.64,17.64,0,0,1-3.54,5.61,12.69,12.69,0,0,1-3.75,2.73c-1,.4-1.65.56-1.7.43s.43-.53,1.29-1.12a16,16,0,0,0,3-3.05,17.39,17.39,0,0,0,2.62-5.34,24,24,0,0,0,1-6.81,27.27,27.27,0,0,0-.86-6.84c-.29-1.07-.66-2.1-1-3.08s-.74-1.87-1.13-2.69A35.9,35.9,0,0,0,639.52,654.26Z"/><path class="be9a06b0-d711-4a3c-b927-19eec8831aae" d="M823,502.12a11.16,11.16,0,0,1,1.85-.47,9.82,9.82,0,0,1,5.51.63,8.62,8.62,0,0,1,3.28,2.49,10.29,10.29,0,0,1,2,4.18A16.87,16.87,0,0,1,834.54,519c-2.66,6.81-9.41,13-18.08,15.25a28.42,28.42,0,0,1-13.6.07,34.7,34.7,0,0,1-12.6-5.87,37.13,37.13,0,0,1-9.49-10.11,23.56,23.56,0,0,1-3.93-13.19,15.66,15.66,0,0,1,.53-3.47,16,16,0,0,1,.53-1.66c.22-.54.51-1.1.79-1.63a13.42,13.42,0,0,1,4.9-4.73,13.87,13.87,0,0,1,6.14-1.85,10.16,10.16,0,0,1,6.12,1.58,10.36,10.36,0,0,1,2.27,2.1,11.48,11.48,0,0,1,1.4,2.45,15.69,15.69,0,0,1,1.11,4.78,18.78,18.78,0,0,1-1,7.68,22.17,22.17,0,0,1-2.17,4.43c-.62.95-1,1.43-1,1.43a7.84,7.84,0,0,1-.62.76,19.64,19.64,0,0,1-1.48,1.62,22.75,22.75,0,0,1-6,4.19,26.74,26.74,0,0,1-9.45,2.51,34.24,34.24,0,0,1-10.82-.86c-7.19-1.69-13.4-5.46-17.72-8.47s-6.94-5.38-6.79-5.58,3.11,1.65,7.62,4.26,10.75,5.81,17.47,7a32.12,32.12,0,0,0,9.89.34,23.69,23.69,0,0,0,8.14-2.52,18.71,18.71,0,0,0,4.82-3.65,20,20,0,0,0,1.69-2s.3-.4.82-1.18a18.29,18.29,0,0,0,1.77-3.61,15.11,15.11,0,0,0,.83-6c-.18-2.31-1-5.05-3-6.3a6,6,0,0,0-3.73-.93,9.88,9.88,0,0,0-4.35,1.32,9.55,9.55,0,0,0-3.43,3.28c-.17.35-.35.69-.51,1.07a10.39,10.39,0,0,0-.4,1.23,11.74,11.74,0,0,0-.39,2.61,19.75,19.75,0,0,0,3.32,10.91,33.3,33.3,0,0,0,8.46,9,30.87,30.87,0,0,0,11.14,5.21,24.48,24.48,0,0,0,11.7,0,26.51,26.51,0,0,0,5.24-2,23.79,23.79,0,0,0,4.44-3,22.08,22.08,0,0,0,3.43-3.71,21,21,0,0,0,2.26-4.09,12.84,12.84,0,0,0,.9-7.64,5.32,5.32,0,0,0-3-3.92,5.82,5.82,0,0,0-3.28-.35,7.82,7.82,0,0,0-1.23.31,8.33,8.33,0,0,0-2.16,1,7.13,7.13,0,0,0-1.76,1.63,5.85,5.85,0,0,0-.75,1.22,9.1,9.1,0,0,0-.58,1.57,12.72,12.72,0,0,0,.86,8.14,18.44,18.44,0,0,0,6.22,7.55,22.79,22.79,0,0,0,9.29,3.73,23.25,23.25,0,0,0,8.86-.18,24.56,24.56,0,0,0,6-2.18c1.34-.76,2.13-1.23,2.22-1.11s-.53.77-1.79,1.79a20.51,20.51,0,0,1-6,3,24,24,0,0,1-9.55.89,24.72,24.72,0,0,1-10.58-3.6,21.23,21.23,0,0,1-7.66-8.53,16.13,16.13,0,0,1-1.42-10.37,12.62,12.62,0,0,1,.73-2.25,10.49,10.49,0,0,1,1.1-1.95,11,11,0,0,1,2.59-2.57A11.6,11.6,0,0,1,823,502.12Z"/><path class="be9a06b0-d711-4a3c-b927-19eec8831aae" d="M839.91,339l-1.38-.31c-.89-.2-2.21-.47-3.87-.73A26.6,26.6,0,0,0,821.29,339a28.18,28.18,0,0,0-7.88,4.38,27.48,27.48,0,0,0-6.6,7.58,22.71,22.71,0,0,0-3.24,10,12.65,12.65,0,0,0,.65,5.06,7.28,7.28,0,0,0,2.87,3.65,8.67,8.67,0,0,0,4.63,1.29,10.22,10.22,0,0,0,4.78-1.18,8.52,8.52,0,0,0,1.93-1.4,9.62,9.62,0,0,0,1.52-1.89,11.82,11.82,0,0,0,1.67-4.58,14.77,14.77,0,0,0-1.64-9.23,20.38,20.38,0,0,0-5.86-6.53,27.52,27.52,0,0,0-6.73-3.63,33.68,33.68,0,0,0-5.73-1.62,38.37,38.37,0,0,0-3.82-.48l-1.36-.06a34.44,34.44,0,0,0-8.21.58,33.09,33.09,0,0,0-15.18,7.16A37,37,0,0,0,763,361.64c-.45,1.07-.85,2.07-1.15,3a3.1,3.1,0,0,0-.35,2.05c.11.42.71.38.92.25a.56.56,0,0,0,.2-.22c0-.09,0-.15.08-.15s.08,0,.12.12a.56.56,0,0,1-.12.54,1.16,1.16,0,0,1-.75.4,1.12,1.12,0,0,1-1.13-.5,3.54,3.54,0,0,1-.12-2.8,31.71,31.71,0,0,1,.85-3.21,36.17,36.17,0,0,1,9.72-15,35.68,35.68,0,0,1,8.06-5.65,37,37,0,0,1,17.32-4l1.52.07a42.34,42.34,0,0,1,4.27.54,36.64,36.64,0,0,1,6.43,1.82A31.81,31.81,0,0,1,816.5,343a24.25,24.25,0,0,1,7,7.84,18.7,18.7,0,0,1,2.08,11.75,15.93,15.93,0,0,1-2.23,6.1,13.7,13.7,0,0,1-2.13,2.64,12.93,12.93,0,0,1-2.83,2.05,14.32,14.32,0,0,1-6.67,1.65,12.55,12.55,0,0,1-6.79-1.93,10.83,10.83,0,0,1-2.71-2.48,11.86,11.86,0,0,1-1.73-3.13,16.37,16.37,0,0,1-.9-6.68A26.63,26.63,0,0,1,803.36,349a31.32,31.32,0,0,1,7.56-8.68,32,32,0,0,1,9-5,28.2,28.2,0,0,1,8.63-1.66,35,35,0,0,1,6.67.43c1.81.27,3.2.57,4.14.77l1.43.32,2.66.69a58.65,58.65,0,0,1,6.17,2,23.93,23.93,0,0,1,7.87,4.83,15.5,15.5,0,0,1,3.16,4.32,15.32,15.32,0,0,1,1.44,5.25,15.14,15.14,0,0,1-2.59,10.05,14.55,14.55,0,0,1-7.16,5.25,13.64,13.64,0,0,1-6.12.63c-1.47-.22-2.24-.6-2.21-.71s.86-.05,2.25-.09a15.29,15.29,0,0,0,5.52-1.28,13.31,13.31,0,0,0,5.86-5,12.92,12.92,0,0,0,1.64-8.48,12,12,0,0,0-4-7.47,20.89,20.89,0,0,0-6.91-3.81,55.14,55.14,0,0,0-5.83-1.64Z"/></g></g></svg>