<?xml version="1.0" encoding="utf-8"?>
<!-- Generator: Adobe Illustrator 23.0.2, SVG Export Plug-In . SVG Version: 6.00 Build 0)  -->
<svg version="1.1" id="Layer_1" xmlns="http://www.w3.org/2000/svg" xmlns:xlink="http://www.w3.org/1999/xlink" x="0px" y="0px"
	 viewBox="0 0 711.7 168.4" style="enable-background:new 0 0 711.7 168.4;" xml:space="preserve">
<style type="text/css">
	.st0{fill-rule:evenodd;clip-rule:evenodd;fill:#FFFFFF;}
</style>
<title>Qudoslist</title>
<g>
	<g id="Layer_1-2">
		<path class="st0" d="M123.7,66.1c0,0-5.6-5.3,0-6.3s34.2-3.2,34.2-3.2s2.6,6.5,0,19s-7.1,27.7-7.1,27.7s-6.4,18.6,10.3,9.5
			c0,0,9.1-37.2,9.5-53c0,0,7.1-3.4,31.8-2.4l-8.7,49.8c0,0-2.6,8.9,3.2,7.9s12.7-5.5,12.7-5.5s-2.8-33.8,20.6-49.8
			c10.1-5.7,22.5-5.7,32.6,0c0,0,6.3-24.8,6.3-48.3c0,0,15.7-4.9,29.4-4.8c0,0,4,8.1-1.6,34.8s-11.7,57.8-12.7,69.6
			c0,0,0.6,6.2,5.6,4c4.1-2.1,8.1-4.5,11.9-7.2c0,0-6.8-32.3,23.8-49c5.4-1.9,11-2.7,16.7-2.4c8.9,0.6,6.6-0.9,14.3-0.8
			s16.4,3.5,15.9,22.1c0,0,6.9,0.9,11.9-1.6c0,0-1.3-19.9,28.6-20.6s27.5,22.3,14.3,34c0,0,9.2,9.1,8.7,19.8S423,133.1,404,133.3
			s-35-8.5-29.4-18.2s13.8-15.3,18.3-10.3s7.5,11.9,9.5,16.6c0,0,5.2,1.6,5.6-4s-18.8-23.7-22.2-31.6c0,0-7.4,3.8-14.3,4
			c0,0-7.4,43.7-41.3,43.5c0,0-18.9,0.6-26.2-15.8c0,0-17.3,15.5-35,15c0,0-10.1,0.8-13.5-7.9c0,0-10.9,8.2-23,7.9
			s-19-6.5-20.7-14.2c0,0-18.9,14.8-36.5,15c0,0-10.8,0.7-13.5-8.7c0,0-12.9,9.5-27,8.7s-20.1-8.8-14.3-30.1S131.4,73.8,123.7,66.1z
			 M259.5,70.1c0,0-5.6,28.9-6.4,43.5c0,0-7.8,5.6-10.3-0.8s-1.3-25,5.6-39.6C248.4,73.2,249.8,68.1,259.5,70.1L259.5,70.1z
			 M360.4,91.4c0,0-4.6,23.5-19.9,24.5s-4.3-52.1,3.2-46.7C343.7,69.2,338.4,92.4,360.4,91.4L360.4,91.4z M419.9,81.9
			c0,0,9.9-9.2,5.6-13.4s-15.2-2.4-12.7,4C414.3,76.2,416.7,79.5,419.9,81.9L419.9,81.9z M571.6,56.6c0,0,5.3,6.7,1.6,21.4
			s-12.4,40.3-4,37.2s9.5-1,13.5-4s9.9-11.1,15.1-6.3s9.5,12.5,11.1,16.6c0,0,5.5,0.6,5.6-3.2s-3.7-8.7-8-13.4s-16.3-17.4-16.7-28.5
			s11.3-20.8,27.8-20.6s25.6,4.3,25.4,15.8c-0.8,7.1-4.2,13.6-9.5,18.2c0,0,8.7,6.1,8.7,19.8c0,0,8.9-7.3,15.1-11.9
			c0,0,7.1-24.1,7.2-26.9l-11.9,1.6c0,0-1.9-8.1,0-15h13.5V36.8c0,0,10.8-5.1,31-6.3c0,0,3.7,4.9-0.8,26.9h15.1
			c0,0,1.3,5.9-2.4,13.4L694.8,70c0,0-5.6,21.2-7.2,30.1s-4.2,22.9,10.3,12.7l4,8.7c0,0-12.8,12.1-30.2,11.9s-17.8-12.8-17.5-22.9
			c0,0-7.6,6.7-12.7,9.5s-10.2,7.7-15.1,9.5s-25.7,8.7-42.9-4c0,0-4.2-4.6-7.9-1.6c-7.6,5.7-16.7,9-26.2,9.5
			c-12.3,0.4-19.3-8.5-13.5-29.3s8.7-30.8,4.8-36.4s-6-7.9,4-9.5S571.6,56.6,571.6,56.6z M562.1,43.9c0,0,17.6-0.8,17.5-16.6
			s-15-13.3-17.5-13.4s-17.8,2.2-17.5,15.8S562.1,43.9,562.1,43.9z M625.6,81.9c3.6-2,6.2-5.5,7.2-9.5c1.5-6.8-9.3-8.5-12.7-4.8
			S623.1,76.9,625.6,81.9L625.6,81.9z M464.4,22.6c0,0-7.7-6.4-0.8-8.7s36.5-3.2,36.5-3.2s14.7,13.8-24.6,92.5l19.8,4.8
			c0,0,20.9,5.1,23-8.7l10.3,3.2c0,0-3.5,41.3-32.6,30.9l-27.8-13.4c0,0-15.9,19.5-23,11.1s-11.1-17.5-6.4-21.4s15.1-7.1,15.1-7.1
			c4.6-13.2,8.3-26.7,11.1-40.3C470.3,38.1,468.5,27,464.4,22.6z M71.4,0c0,0,59.1-1.7,41.2,73c0,0-7.8,50-58.7,56.8
			c4.3,2.4,8.7,4.5,13.4,6.1c8.3,3,26.4,13.2,35-1c0,0,5.6,1.6,7.2,4.1c0,0-0.3,25.4-23.7,29.4c0,0-9.1,1.8-20.6-10.1
			S42.6,144,42.6,144s-16.8,20.8-23.7,9.1s-8.6-20.7,10.3-24.3c0,0-33-10.3-28.8-51.7S24.8,0.3,71.4,0z M40.1,31.2
			c0,0-18.2,17.2-18.5,48.5S46.3,111,46.3,111s32.7,2,43.1-39.4S82.9,21.7,73,21.1s-23.4,9.3-25.7,29.3c0,0-1,12.1,9.2,13.1
			c10.2,1,7.8-12.7,17.4-8.1c0,0,3.3,3.7-2.1,9.1S61.3,73,55.5,72.6S24.8,69.6,40.1,31.2z"/>
	</g>
</g>
</svg>
