<?xml version="1.0" encoding="UTF-8" standalone="no"?>
<svg width="1920px" height="320px" viewBox="0 0 1920 320" version="1.1" xmlns="http://www.w3.org/2000/svg" xmlns:xlink="http://www.w3.org/1999/xlink">
    <!-- Generator: Sketch 39.1 (31720) - http://www.bohemiancoding.com/sketch -->
    <title>car_bg</title>
    <desc>Created with Sketch.</desc>
    <defs></defs>
    <g id="Page-1" stroke="none" stroke-width="1" fill="none" fill-rule="evenodd">
        <g id="car_bg">
            <g id="footer_bg">
                <g id="buildings" transform="translate(294.000000, 0.000000)">
                    <g id="Group-34-Copy" transform="translate(0.000000, 196.000000)">
                        <polygon id="Shape" fill="#2B2B2B" points="23.21 69.1 0.54 71.61 0.54 9.63 23.21 0.25"></polygon>
                        <polygon id="Shape" fill="#252525" points="48.53 71.52 23.21 70.71 23.21 0.26 48.53 3.51"></polygon>
                    </g>
                    <g id="Group-34-Copy-2" transform="translate(784.500000, 232.000000) scale(-1, 1) translate(-784.500000, -232.000000) translate(760.000000, 196.000000)">
                        <polygon id="Shape" fill="#2B2B2B" points="23.21 69.1 0.54 71.61 0.54 9.63 23.21 0.25"></polygon>
                        <polygon id="Shape" fill="#252525" points="48.53 71.52 23.21 70.71 23.21 0.26 48.53 3.51"></polygon>
                    </g>
                    <polygon id="Shape" fill="#2B2B2B" points="341.54 262.29 258 262.29 258 159.84 341.54 124.77"></polygon>
                    <polygon id="Shape" fill="#050505" points="398.14 262.29 341.54 262.29 341.54 124.75 398.14 137.06"></polygon>
                    <polygon id="Shape" fill="#202020" points="341.54 135.77 256.03 168.79 256.03 156.44 341.54 119.05"></polygon>
                    <polygon id="Shape" fill="#202020" points="341.54 173.19 256.03 196.44 256.03 191.73 341.54 166.81"></polygon>
                    <polygon id="Shape" fill="#101010" points="407.39 148.94 341.54 135.77 341.54 119.07 407.39 133.98"></polygon>
                    <polygon id="Shape" fill="#101010" points="407.39 182.47 341.54 173.2 341.54 166.81 407.39 176.75"></polygon>
                    <polygon id="Shape" fill="#2B2B2B" points="769.99 261.51 747.69 261.44 747.69 91.46 769.99 106.74"></polygon>
                    <polygon id="Shape" fill="#252525" points="747.69 261.5 711.54 261.54 711.54 100.16 747.69 91.47"></polygon>
                    <path d="M715.04,203.81 L718.79,203.49 L718.79,189.97 L715.04,190.37 L715.04,203.81 Z M738.46,186.87 L738.46,172.93 L734.43,173.45 L734.43,187.29 L738.46,186.87 Z M733.43,114.24 L729.49,115.08 L729.49,128.81 L733.43,128.05 L733.43,114.24 Z M738.46,113.17 L734.43,114.03 L734.43,127.86 L738.46,127.08 L738.46,113.17 Z M724.62,202.99 L728.49,202.66 L728.49,188.94 L724.62,189.35 L724.62,202.99 Z M718.79,117.37 L715.04,118.17 L715.04,131.59 L718.79,130.87 L718.79,117.37 Z M728.49,115.3 L724.62,116.12 L724.62,129.74 L728.49,129 L728.49,115.3 Z M723.62,160.21 L719.79,160.78 L719.79,174.31 L723.62,173.82 L723.62,160.21 Z M724.62,145.43 L724.62,159.05 L728.49,158.48 L728.49,144.77 L724.62,145.43 Z M728.49,187.93 L728.49,174.21 L724.62,174.71 L724.62,188.34 L728.49,187.93 Z M723.62,145.6 L719.79,146.25 L719.79,159.77 L723.62,159.2 L723.62,145.6 Z M718.79,160.93 L715.04,161.49 L715.04,174.92 L718.79,174.44 L718.79,160.93 Z M729.49,129.83 L729.49,143.58 L733.43,142.91 L733.43,129.07 L729.49,129.83 Z M719.79,131.69 L719.79,145.24 L723.62,144.58 L723.62,130.96 L719.79,131.69 Z M739.46,186.76 L743.54,186.32 L743.54,172.28 L739.46,172.8 L739.46,186.76 Z M718.79,146.42 L715.04,147.06 L715.04,160.48 L718.79,159.92 L718.79,146.42 Z M739.46,156.84 L743.54,156.23 L743.54,142.19 L739.46,142.89 L739.46,156.84 Z M734.43,202.15 L738.46,201.81 L738.46,187.87 L734.43,188.3 L734.43,202.15 Z M734.43,172.44 L738.46,171.92 L738.46,158 L734.43,158.6 L734.43,172.44 Z M724.62,130.76 L724.62,144.41 L728.49,143.75 L728.49,130.02 L724.62,130.76 Z M723.62,188.45 L723.62,174.83 L719.79,175.32 L719.79,188.86 L723.62,188.45 Z M739.46,126.89 L743.54,126.11 L743.54,112.09 L739.46,112.96 L739.46,126.89 Z M729.49,158.33 L733.43,157.74 L733.43,143.92 L729.49,144.59 L729.49,158.33 Z M728.49,173.2 L728.49,159.49 L724.62,160.06 L724.62,173.7 L728.49,173.2 Z M718.79,175.45 L715.04,175.93 L715.04,189.37 L718.79,188.97 L718.79,175.45 Z M733.43,187.4 L733.43,173.57 L729.49,174.08 L729.49,187.82 L733.43,187.4 Z M718.79,131.88 L715.04,132.6 L715.04,146.05 L718.79,145.41 L718.79,131.88 Z M733.43,172.57 L733.43,158.75 L729.49,159.34 L729.49,173.07 L733.43,172.57 Z M723.62,116.34 L719.79,117.15 L719.79,130.67 L723.62,129.94 L723.62,116.34 Z M729.49,202.57 L733.43,202.23 L733.43,188.41 L729.49,188.83 L729.49,202.57 Z M739.46,171.79 L743.54,171.27 L743.54,157.24 L739.46,157.85 L739.46,171.79 Z M734.43,157.59 L738.46,156.99 L738.46,143.06 L734.43,143.75 L734.43,157.59 Z M719.79,203.4 L723.62,203.07 L723.62,189.46 L719.79,189.86 L719.79,203.4 Z M739.46,201.72 L743.54,201.37 L743.54,187.33 L739.46,187.76 L739.46,201.72 Z M734.43,142.73 L738.46,142.05 L738.46,128.1 L734.43,128.88 L734.43,142.73 Z M739.46,141.88 L743.54,141.18 L743.54,127.13 L739.46,127.91 L739.46,141.88 Z" id="Combined-Shape" fill="#101010"></path>
                    <path d="M757.25,131.48 L757.25,145.19 L759.2,146.14 L759.2,132.55 L757.25,131.48 Z M756.25,160.75 L754.23,159.89 L754.23,173.89 L756.25,174.63 L756.25,160.75 Z M756.25,145.82 L754.23,144.84 L754.23,158.81 L756.25,159.66 L756.25,145.82 Z M759.2,117.8 L757.25,116.61 L757.25,130.34 L759.2,131.41 L759.2,117.8 Z M756.25,189.57 L756.25,175.69 L754.23,174.96 L754.23,188.96 L756.25,189.57 Z M756.25,116 L754.23,114.76 L754.23,128.69 L756.25,129.79 L756.25,116 Z M754.23,204.03 L756.25,204.51 L756.25,190.61 L754.23,190 L754.23,204.03 Z M753.23,174.6 L751.13,173.84 L751.13,188.03 L753.23,188.66 L753.23,174.6 Z M753.23,159.47 L751.13,158.58 L751.13,172.77 L753.23,173.53 L753.23,159.47 Z M754.23,129.82 L754.23,143.73 L756.25,144.71 L756.25,130.93 L754.23,129.82 Z M751.13,203.29 L753.23,203.79 L753.23,189.7 L751.13,189.07 L751.13,203.29 Z M753.23,144.35 L751.13,143.33 L751.13,157.49 L753.23,158.38 L753.23,144.35 Z M753.23,129.28 L751.13,128.13 L751.13,142.22 L753.23,143.24 L753.23,129.28 Z M765.88,206.8 L767.63,207.22 L767.63,194.02 L765.88,193.5 L765.88,206.8 Z M765.88,149.4 L767.63,150.24 L767.63,137.17 L765.88,136.22 L765.88,149.4 Z M765.88,178.12 L767.63,178.75 L767.63,165.57 L765.88,164.84 L765.88,178.12 Z M765.88,192.46 L767.63,192.98 L767.63,179.81 L765.88,179.18 L765.88,192.46 Z M765.88,135.07 L767.63,136.03 L767.63,122.94 L765.88,121.88 L765.88,135.07 Z M763.08,206.13 L764.88,206.56 L764.88,193.2 L763.08,192.66 L763.08,206.13 Z M765.88,163.75 L767.63,164.49 L767.63,151.36 L765.88,150.51 L765.88,163.75 Z M759.2,190.45 L759.2,176.76 L757.25,176.05 L757.25,189.87 L759.2,190.45 Z M762.08,176.74 L762.08,163.22 L760.2,162.42 L760.2,176.06 L762.08,176.74 Z M762.08,119.56 L760.2,118.41 L760.2,131.96 L762.08,132.99 L762.08,119.56 Z M757.25,204.75 L759.2,205.21 L759.2,191.5 L757.25,190.91 L757.25,204.75 Z M760.2,205.45 L762.08,205.9 L762.08,192.36 L760.2,191.79 L760.2,205.45 Z M762.08,191.31 L762.08,177.8 L760.2,177.12 L760.2,190.75 L762.08,191.31 Z M760.2,161.34 L762.08,162.13 L762.08,148.66 L760.2,147.74 L760.2,161.34 Z M760.2,133.1 L760.2,146.63 L762.08,147.54 L762.08,134.13 L760.2,133.1 Z M764.88,192.16 L764.88,178.82 L763.08,178.16 L763.08,191.62 L764.88,192.16 Z M763.08,162.56 L764.88,163.32 L764.88,150.02 L763.08,149.14 L763.08,162.56 Z M763.08,177.1 L764.88,177.76 L764.88,164.41 L763.08,163.64 L763.08,177.1 Z M763.08,148.03 L764.88,148.91 L764.88,135.67 L763.08,134.68 L763.08,148.03 Z M764.88,121.27 L763.08,120.17 L763.08,133.53 L764.88,134.53 L764.88,121.27 Z M759.2,175.69 L759.2,162 L757.25,161.17 L757.25,174.99 L759.2,175.69 Z M757.25,146.31 L757.25,160.09 L759.2,160.91 L759.2,147.26 L757.25,146.31 Z M753.23,114.15 L751.13,112.87 L751.13,126.99 L753.23,128.14 L753.23,114.15 Z" id="Combined-Shape" fill="#202020"></path>
                    <g id="Group-33-Copy" transform="translate(73.500000, 181.500000) scale(-1, 1) translate(-73.500000, -181.500000) translate(44.000000, 101.000000)">
                        <polygon id="Shape-Copy-3" fill="#2B2B2B" points="58.99 160.51 36.69 160.44 36.69 0.46 58.99 15.74"></polygon>
                        <polygon id="Shape-Copy-2" fill="#252525" points="36.69 160.5 0.54 160.54 0.54 9.16 36.69 0.47"></polygon>
                        <path d="M4.04,112.81 L7.79,112.49 L7.79,98.97 L4.04,99.37 L4.04,112.81 Z M27.46,95.87 L27.46,81.93 L23.43,82.45 L23.43,96.29 L27.46,95.87 Z M22.43,23.24 L18.49,24.08 L18.49,37.81 L22.43,37.05 L22.43,23.24 Z M27.46,22.17 L23.43,23.03 L23.43,36.86 L27.46,36.08 L27.46,22.17 Z M13.62,111.99 L17.49,111.66 L17.49,97.94 L13.62,98.35 L13.62,111.99 Z M7.79,26.37 L4.04,27.17 L4.04,40.59 L7.79,39.87 L7.79,26.37 Z M17.49,24.3 L13.62,25.12 L13.62,38.74 L17.49,38 L17.49,24.3 Z M12.62,69.21 L8.79,69.78 L8.79,83.31 L12.62,82.82 L12.62,69.21 Z M13.62,54.43 L13.62,68.05 L17.49,67.48 L17.49,53.77 L13.62,54.43 Z M17.49,96.93 L17.49,83.21 L13.62,83.71 L13.62,97.34 L17.49,96.93 Z M12.62,54.6 L8.79,55.25 L8.79,68.77 L12.62,68.2 L12.62,54.6 Z M7.79,69.93 L4.04,70.49 L4.04,83.92 L7.79,83.44 L7.79,69.93 Z M18.49,38.83 L18.49,52.58 L22.43,51.91 L22.43,38.07 L18.49,38.83 Z M8.79,40.69 L8.79,54.24 L12.62,53.58 L12.62,39.96 L8.79,40.69 Z M28.46,95.76 L32.54,95.32 L32.54,81.28 L28.46,81.8 L28.46,95.76 Z M7.79,55.42 L4.04,56.06 L4.04,69.48 L7.79,68.92 L7.79,55.42 Z M28.46,65.84 L32.54,65.23 L32.54,51.19 L28.46,51.89 L28.46,65.84 Z M23.43,111.15 L27.46,110.81 L27.46,96.87 L23.43,97.3 L23.43,111.15 Z M23.43,81.44 L27.46,80.92 L27.46,67 L23.43,67.6 L23.43,81.44 Z M13.62,39.76 L13.62,53.41 L17.49,52.75 L17.49,39.02 L13.62,39.76 Z M12.62,97.45 L12.62,83.83 L8.79,84.32 L8.79,97.86 L12.62,97.45 Z M28.46,35.89 L32.54,35.11 L32.54,21.09 L28.46,21.96 L28.46,35.89 Z M18.49,67.33 L22.43,66.74 L22.43,52.92 L18.49,53.59 L18.49,67.33 Z M17.49,82.2 L17.49,68.49 L13.62,69.06 L13.62,82.7 L17.49,82.2 Z M7.79,84.45 L4.04,84.93 L4.04,98.37 L7.79,97.97 L7.79,84.45 Z M22.43,96.4 L22.43,82.57 L18.49,83.08 L18.49,96.82 L22.43,96.4 Z M7.79,40.88 L4.04,41.6 L4.04,55.05 L7.79,54.41 L7.79,40.88 Z M22.43,81.57 L22.43,67.75 L18.49,68.34 L18.49,82.07 L22.43,81.57 Z M12.62,25.34 L8.79,26.15 L8.79,39.67 L12.62,38.94 L12.62,25.34 Z M18.49,111.57 L22.43,111.23 L22.43,97.41 L18.49,97.83 L18.49,111.57 Z M28.46,80.79 L32.54,80.27 L32.54,66.24 L28.46,66.85 L28.46,80.79 Z M23.43,66.59 L27.46,65.99 L27.46,52.06 L23.43,52.75 L23.43,66.59 Z M8.79,112.4 L12.62,112.07 L12.62,98.46 L8.79,98.86 L8.79,112.4 Z M28.46,110.72 L32.54,110.37 L32.54,96.33 L28.46,96.76 L28.46,110.72 Z M23.43,51.73 L27.46,51.05 L27.46,37.1 L23.43,37.88 L23.43,51.73 Z M28.46,50.88 L32.54,50.18 L32.54,36.13 L28.46,36.91 L28.46,50.88 Z" id="Combined-Shape-Copy-3" fill="#101010"></path>
                        <path d="M46.25,40.48 L46.25,54.19 L48.2,55.14 L48.2,41.55 L46.25,40.48 Z M45.25,69.75 L43.23,68.89 L43.23,82.89 L45.25,83.63 L45.25,69.75 Z M45.25,54.82 L43.23,53.84 L43.23,67.81 L45.25,68.66 L45.25,54.82 Z M48.2,26.8 L46.25,25.61 L46.25,39.34 L48.2,40.41 L48.2,26.8 Z M45.25,98.57 L45.25,84.69 L43.23,83.96 L43.23,97.96 L45.25,98.57 Z M45.25,25 L43.23,23.76 L43.23,37.69 L45.25,38.79 L45.25,25 Z M43.23,113.03 L45.25,113.51 L45.25,99.61 L43.23,99 L43.23,113.03 Z M42.23,83.6 L40.13,82.84 L40.13,97.03 L42.23,97.66 L42.23,83.6 Z M42.23,68.47 L40.13,67.58 L40.13,81.77 L42.23,82.53 L42.23,68.47 Z M43.23,38.82 L43.23,52.73 L45.25,53.71 L45.25,39.93 L43.23,38.82 Z M40.13,112.29 L42.23,112.79 L42.23,98.7 L40.13,98.07 L40.13,112.29 Z M42.23,53.35 L40.13,52.33 L40.13,66.49 L42.23,67.38 L42.23,53.35 Z M42.23,38.28 L40.13,37.13 L40.13,51.22 L42.23,52.24 L42.23,38.28 Z M54.88,115.8 L56.63,116.22 L56.63,103.02 L54.88,102.5 L54.88,115.8 Z M54.88,58.4 L56.63,59.24 L56.63,46.17 L54.88,45.22 L54.88,58.4 Z M54.88,87.12 L56.63,87.75 L56.63,74.57 L54.88,73.84 L54.88,87.12 Z M54.88,101.46 L56.63,101.98 L56.63,88.81 L54.88,88.18 L54.88,101.46 Z M54.88,44.07 L56.63,45.03 L56.63,31.94 L54.88,30.88 L54.88,44.07 Z M52.08,115.13 L53.88,115.56 L53.88,102.2 L52.08,101.66 L52.08,115.13 Z M54.88,72.75 L56.63,73.49 L56.63,60.36 L54.88,59.51 L54.88,72.75 Z M48.2,99.45 L48.2,85.76 L46.25,85.05 L46.25,98.87 L48.2,99.45 Z M51.08,85.74 L51.08,72.22 L49.2,71.42 L49.2,85.06 L51.08,85.74 Z M51.08,28.56 L49.2,27.41 L49.2,40.96 L51.08,41.99 L51.08,28.56 Z M46.25,113.75 L48.2,114.21 L48.2,100.5 L46.25,99.91 L46.25,113.75 Z M49.2,114.45 L51.08,114.9 L51.08,101.36 L49.2,100.79 L49.2,114.45 Z M51.08,100.31 L51.08,86.8 L49.2,86.12 L49.2,99.75 L51.08,100.31 Z M49.2,70.34 L51.08,71.13 L51.08,57.66 L49.2,56.74 L49.2,70.34 Z M49.2,42.1 L49.2,55.63 L51.08,56.54 L51.08,43.13 L49.2,42.1 Z M53.88,101.16 L53.88,87.82 L52.08,87.16 L52.08,100.62 L53.88,101.16 Z M52.08,71.56 L53.88,72.32 L53.88,59.02 L52.08,58.14 L52.08,71.56 Z M52.08,86.1 L53.88,86.76 L53.88,73.41 L52.08,72.64 L52.08,86.1 Z M52.08,57.03 L53.88,57.91 L53.88,44.67 L52.08,43.68 L52.08,57.03 Z M53.88,30.27 L52.08,29.17 L52.08,42.53 L53.88,43.53 L53.88,30.27 Z M48.2,84.69 L48.2,71 L46.25,70.17 L46.25,83.99 L48.2,84.69 Z M46.25,55.31 L46.25,69.09 L48.2,69.91 L48.2,56.26 L46.25,55.31 Z M42.23,23.15 L40.13,21.87 L40.13,35.99 L42.23,37.14 L42.23,23.15 Z" id="Combined-Shape-Copy-2" fill="#202020"></path>
                    </g>
                    <g id="Group-31" transform="translate(595.000000, 128.000000)">
                        <g id="Group-30">
                            <polygon id="Shape" fill="#050505" points="9.38 133.93 52.54 133.9 52.54 88.67 9.38 91.73"></polygon>
                            <polygon id="Shape" fill="#202020" points="52.38 134.29 126.38 134.29 126.38 98.38 52.38 87.43"></polygon>
                            <polygon id="Shape" fill="#2B2B2B" points="52.38 92.33 131.38 102.8 131.38 34.45 52.38 1.25"></polygon>
                            <path d="M131.88,34.45 L131.38,34.45 L131.57,33.99 L52.57,0.79 L52.38,1.25 L51.88,1.25 L51.88,92.4 L52.38,92.4 L52.31,92.9 L131.31,103.3 L131.37,102.8 L131.87,102.8 L131.88,34.45 Z M91.38,57.07 L79.21,53.71 L79.21,33.91 L91.38,38.15 L91.38,57.07 Z M92.38,38.49 L104.55,42.72 L104.55,60.72 L92.38,57.36 L92.38,38.49 Z M78.21,53.43 L66,50.08 L66,29.33 L78.17,33.56 L78.21,53.43 Z M78.21,54.43 L78.21,74.32 L66,71.89 L66,51.12 L78.21,54.43 Z M79.21,54.71 L91.38,58.07 L91.38,77.01 L79.21,74.53 L79.21,54.71 Z M92.38,58.34 L104.55,61.7 L104.55,79.7 L92.38,77.22 L92.38,58.34 Z M105.54,62 L117.71,65.36 L117.71,82.36 L105.54,79.88 L105.54,62 Z M105.54,61 L105.54,43.1 L117.71,47.34 L117.71,64.34 L105.54,61 Z M105.54,42 L105.54,24.14 L117.71,29.25 L117.71,46.25 L105.54,42 Z M104.54,41.65 L92.37,37.42 L92.37,18.61 L104.54,23.72 L104.54,41.65 Z M91.37,37.07 L79.2,32.84 L79.2,13.07 L91.37,18.18 L91.37,37.07 Z M78.2,32.49 L66,28.27 L66,7.54 L78.17,12.65 L78.2,32.49 Z M65,27.92 L52.83,23.69 L52.83,2 L65,7.12 L65,27.92 Z M65,28.98 L65,49.8 L52.83,46.44 L52.83,24.74 L65,28.98 Z M65,50.84 L65,71.68 L52.83,69.2 L52.83,47.48 L65,50.84 Z M65,72.7 L65,93.56 L52.87,92 L52.87,70.22 L65,72.7 Z M66,72.9 L78.17,75.38 L78.17,95.3 L66,93.69 L66,72.9 Z M79.17,75.58 L91.34,78.06 L91.34,97.06 L79.17,95.46 L79.17,75.58 Z M92.34,78.26 L104.51,80.74 L104.51,98.74 L92.34,97.14 L92.34,78.26 Z M105.54,81 L117.71,83.48 L117.71,100.5 L105.54,98.9 L105.54,81 Z M118.71,83.68 L130.88,86.16 L130.88,102.27 L118.71,100.67 L118.71,83.68 Z M118.71,82.68 L118.71,65.68 L130.88,69 L130.88,85.1 L118.71,82.68 Z M118.71,64.68 L118.71,47.68 L130.88,51.91 L130.88,68 L118.71,64.68 Z M118.71,46.68 L118.71,29.67 L130.88,34.78 L130.88,50.83 L118.71,46.68 Z" id="Shape" fill="#202020"></path>
                            <polygon id="Shape" fill="#101010" points="0.62 96.25 52.37 92.92 52.37 0.82 0.62 11.56"></polygon>
                        </g>
                    </g>
                    <polygon id="Shape" fill="#2B2B2B" points="567.08 224.09 492.37 229.25 492.37 80.6 567.08 52.23"></polygon>
                    <polygon id="Shape" fill="#252525" points="615.56 231.56 567.08 227.4 567.08 52.23 615.56 77.26"></polygon>
                    <rect id="Rectangle-path" fill="#0C6E9C" x="543.9" y="78.76" width="-0.1" height="0.1"></rect>
                    <path d="M508.26,188.43 L508.26,151.14 L523.92,147.59 L523.92,186.13 L508.26,188.43 Z M542.9,183.32 L542.9,143.32 L525.9,147.17 L525.9,185.87 L542.9,183.32 Z M544.9,183.03 L552.9,181.84 L552.9,141 L544.9,142.83 L544.9,183.03 Z M506.26,151.6 L499.88,153 L499.88,189.62 L506.27,188.68 L506.26,151.6 Z" id="Shape" fill="#202020"></path>
                    <path d="M544.9,119.62 L552.9,117.48 L552.9,76.7 L544.9,79.48 L544.9,119.62 Z M523.9,86.75 L508.24,92.17 L508.24,129.39 L523.9,125.21 L523.9,86.75 Z M542.9,80.18 L525.9,86.06 L525.9,124.69 L542.9,120.16 L542.9,80.18 Z M506.26,92.86 L499.87,95.07 L499.87,131.63 L506.26,129.93 L506.26,92.86 Z" id="Shape" fill="#202020"></path>
                    <path d="M508.26,131.46 L508.26,149.08 L523.92,145.53 L523.92,127.28 L508.26,131.46 Z M544.9,140.77 L552.9,138.94 L552.9,119.54 L544.9,121.69 L544.9,140.77 Z M525.9,145.08 L542.9,141.23 L542.9,122.23 L525.9,126.76 L525.9,145.08 Z M506.26,132 L499.87,133.7 L499.87,151 L506.26,149.55 L506.26,132 Z" id="Shape" fill="#202020"></path>
                    <rect id="Rectangle-path" fill="#0C6E9C" x="543.9" y="78.76" width="-0.1" height="0.1"></rect>
                    <path d="M523.92,86.8 L508.26,92.19 L508.26,98.05 L523.92,103.57 L523.92,86.8 Z M506.26,97.34 L506.26,92.87 L500.62,94.82 L499.88,95.07 L499.88,95.09 L506.26,97.34 Z M542.9,80.27 L525.92,86.11 L525.92,104.28 L542.9,110.26 L542.9,80.27 Z M552.95,76.81 L544.9,79.58 L544.9,110.97 L552.95,113.81 L552.95,76.81 Z M523.92,127.33 L508.26,131.48 L508.26,136 L523.92,140.25 L523.92,127.33 Z M506.26,135.46 L506.26,132.01 L500.49,133.54 L499.88,133.7 L499.88,133.73 L506.26,135.46 Z M542.9,141.22 L542.9,122.31 L525.92,126.81 L525.92,140.79 L534.53,143.12 L542.9,141.22 Z M544.9,121.78 L544.9,140.77 L552.95,138.94 L552.95,119.65 L544.9,121.78 Z M523.92,147.62 L508.26,151.14 L508.26,154.97 L523.92,158.58 L523.92,147.62 Z M542.9,143.35 L525.92,147.17 L525.92,159.04 L542.9,162.95 L542.9,143.35 Z M552.95,141.09 L544.9,142.9 L544.9,163.41 L552.95,165.27 L552.95,141.09 Z M506.26,154.51 L506.26,151.59 L499.88,153.04 L506.26,154.51 Z" id="Combined-Shape" fill="#101010"></path>
                    <g id="Group-32" transform="translate(169.000000, 20.000000)">
                        <polygon id="Shape-Copy-7" fill="#2B2B2B" points="0.38 241.68 59.21 241.57 59.21 0 0.38 36.98"></polygon>
                        <polygon id="Shape-Copy-6" fill="#252525" points="116.88 242.29 59.21 242.29 59.21 0 116.88 27.87"></polygon>
                        <path d="M106.39,74.62 L111.21,76.46 L111.21,102.95 L106.39,101.4 L106.39,74.62 Z M99.39,157.96 L104.39,158.96 L104.39,131.93 L99.39,130.6 L99.39,157.96 Z M97.39,187.03 L97.39,159.58 L92.18,158.51 L92.18,186.25 L97.39,187.03 Z M99.39,128.52 L104.39,129.85 L104.39,102.85 L99.39,101.23 L99.39,128.52 Z M106.39,72.46 L111.21,74.3 L111.21,47.77 L106.39,45.65 L106.39,72.46 Z M99.39,99.1 L104.39,100.72 L104.39,73.85 L99.39,71.94 L99.39,99.1 Z M106.39,159.38 L111.21,160.38 L111.21,133.73 L106.39,132.46 L106.39,159.38 Z M104.39,44.76 L99.39,42.55 L99.39,69.8 L104.39,71.71 L104.39,44.76 Z M104.39,188.04 L104.39,161 L99.39,160 L99.39,187.32 L104.39,188.04 Z M106.39,188.3 L111.21,189.01 L111.21,162.43 L106.39,161.43 L106.39,188.3 Z M106.39,130.3 L111.21,131.57 L111.21,105 L106.39,103.45 L106.39,130.3 Z M82.71,95.85 L77.08,94 L77.08,122.62 L82.71,124.11 L82.71,95.85 Z M77.08,63.45 L77.08,91.93 L82.71,93.75 L82.71,65.6 L77.08,63.45 Z M90.16,38.52 L84.71,36.13 L84.71,64.22 L90.16,66.3 L90.16,38.52 Z M90.16,185.96 L90.16,158.1 L84.71,157 L84.71,185.18 L90.16,185.96 Z M90.16,156.06 L90.16,128.17 L84.71,126.73 L84.71,154.93 L90.16,156.06 Z M97.37,157.54 L97.37,130.08 L92.16,128.7 L92.16,156.47 L97.37,157.54 Z M92.16,126.63 L97.37,128.01 L97.37,100.58 L92.16,98.9 L92.16,126.63 Z M92.16,69.19 L92.16,96.79 L97.37,98.47 L97.37,71.18 L92.16,69.19 Z M97.37,41.68 L92.16,39.39 L92.16,67.05 L97.37,69.05 L97.37,41.68 Z M84.71,96.49 L84.71,124.66 L90.16,126.1 L90.16,98.25 L84.71,96.49 Z M84.71,66.35 L84.71,94.35 L90.16,96.11 L90.16,68.43 L84.71,66.35 Z M82.71,126.2 L77.08,124.71 L77.08,153.36 L82.71,154.52 L82.71,126.2 Z M82.71,184.86 L82.71,156.56 L77.08,155.4 L77.08,184 L82.71,184.86 Z M82.71,35.24 L77.08,32.77 L77.08,61.31 L82.71,63.45 L82.71,35.24 Z M75.08,155 L69.21,153.79 L69.21,182.88 L75.08,183.74 L75.08,155 Z M75.08,124.17 L69.21,122.62 L69.21,151.73 L75.08,152.94 L75.08,124.17 Z M75.08,93.37 L69.21,91.48 L69.21,120.56 L75.08,122.11 L75.08,93.37 Z M75.08,31.87 L69.21,29.29 L69.21,58.29 L75.08,60.53 L75.08,31.87 Z M75.08,62.67 L69.21,60.43 L69.21,89.39 L75.08,91.28 L75.08,62.67 Z" id="Shape-Copy-5" fill="#101010"></path>
                        <path d="M43.21,95.42 L49.21,92.91 L49.21,121.45 L43.21,123.51 L43.21,95.42 Z M43.21,183.97 L49.21,182.81 L49.21,154.22 L43.21,155.83 L43.21,183.97 Z M43.21,153.76 L49.21,152.15 L49.21,123.57 L43.21,125.63 L43.21,153.76 Z M43.21,63.04 L49.21,60.04 L49.21,31.65 L43.21,35.06 L43.21,63.04 Z M41.21,36.2 L35.53,39.43 L35.53,66.83 L41.21,64.03 L41.21,36.2 Z M41.21,184.36 L41.21,156.36 L35.53,157.88 L35.53,185.44 L41.21,184.36 Z M35.53,155.82 L41.21,154.3 L41.21,126.3 L35.53,128.25 L35.53,155.82 Z M35.53,126.15 L41.21,124.2 L41.21,96.26 L35.53,98.64 L35.53,126.15 Z M33.53,156.35 L33.53,129 L28.14,130.85 L28.14,157.85 L33.53,156.35 Z M35.53,96.46 L41.21,94.08 L41.21,66.26 L35.53,69.06 L35.53,96.46 Z M33.53,185.86 L33.53,158.43 L28.14,159.87 L28.14,186.87 L33.53,185.86 Z M43.21,93.28 L49.21,90.77 L49.21,62.31 L43.21,65.31 L43.21,93.28 Z M33.53,40.61 L28.14,43.68 L28.14,70.48 L33.53,67.82 L33.53,40.61 Z M26.14,158.36 L26.14,131.49 L21,133.25 L21,159.71 L26.14,158.36 Z M21,104.71 L21,131.13 L26.13,129.37 L26.13,102.57 L21,104.71 Z M21,76.23 L21,102.54 L26.13,100.39 L26.13,73.7 L21,76.23 Z M26.13,44.79 L21,47.71 L21,74 L26.13,71.47 L26.13,44.79 Z M19,133.94 L14.15,135.6 L14.15,161.54 L19,160.24 L19,133.94 Z M26.13,187.27 L26.13,160.41 L21,161.78 L21,188.25 L26.13,187.27 Z M28.13,128.7 L33.52,126.85 L33.52,99.47 L28.13,101.72 L28.13,128.7 Z M28.13,72.7 L28.13,99.56 L33.52,97.31 L33.52,70.05 L28.13,72.7 Z M19,48.85 L14.15,51.61 L14.15,77.38 L19,75 L19,48.85 Z M12.15,164.16 L7.53,165.4 L7.53,190.86 L12.15,189.97 L12.15,164.16 Z M19,105.56 L14.15,107.56 L14.15,133.47 L19,131.8 L19,105.56 Z M14.15,79.63 L14.15,105.43 L19,103.43 L19,77.22 L14.15,79.63 Z M19,188.63 L19,162.32 L14.15,163.62 L14.15,189.62 L19,188.63 Z M12.16,136.29 L7.54,137.88 L7.54,163.32 L12.16,162.08 L12.16,136.29 Z M12.16,80.6 L7.54,82.88 L7.54,108.18 L12.16,106.25 L12.16,80.6 Z M12.16,108.41 L7.54,110.34 L7.54,135.75 L12.16,134.16 L12.16,108.41 Z M12.16,52.74 L7.54,55.37 L7.54,80.65 L12.16,78.37 L12.16,52.74 Z" id="Shape-Copy-4" fill="#202020"></path>
                        <path d="M90.17,68.43 L84.71,66.36 L84.71,94.39 L90.17,96.15 L90.17,68.43 Z M90.17,38.52 L84.71,36.12 L84.71,64.22 L90.17,66.29 L90.17,38.52 Z M82.71,35.24 L77.08,32.77 L77.08,61.31 L82.71,63.45 L82.71,35.24 Z M82.71,65.6 L77.08,63.45 L77.08,91.93 L82.71,93.75 L82.71,65.6 Z M77.08,122.65 L82.71,124.14 L82.71,95.85 L77.08,94.03 L77.08,122.65 Z M84.71,124.67 L90.17,126.11 L90.17,98.25 L84.71,96.49 L84.71,124.67 Z M104.39,44.77 L99.38,42.56 L99.38,69.8 L104.39,71.71 L104.39,44.77 Z M111.21,74.31 L111.21,47.77 L106.39,45.65 L106.39,72.47 L111.21,74.31 Z M97.38,41.69 L92.17,39.4 L92.17,67.06 L97.38,69.04 L97.38,41.69 Z M99.38,99.12 L104.39,100.74 L104.39,73.85 L99.38,71.94 L99.38,99.12 Z M92.17,96.8 L97.38,98.47 L97.38,71.18 L92.17,69.19 L92.17,96.8 Z M82.71,126.2 L77.08,124.72 L77.08,153.37 L78.48,153.65 L82.71,145.22 L82.71,126.2 Z M97.38,100.58 L92.17,98.9 L92.17,126.38 L97.38,115.99 L97.38,100.58 Z M90.17,128.17 L84.71,126.73 L84.71,141.23 L90.17,130.36 L90.17,128.17 Z M111.21,76.45 L106.39,74.61 L106.39,98.01 L111.21,88.4 L111.21,76.45 Z M99.38,101.22 L99.38,112 L104.03,102.72 L99.38,101.22 Z M75.08,160.43 L75.08,155 L69.21,153.79 L69.21,172.13 L75.08,160.43 Z M75.08,62.69 L69.21,60.45 L69.21,89.39 L75.08,91.29 L75.08,62.69 Z M75.08,93.39 L69.21,91.5 L69.21,120.57 L75.08,122.12 L75.08,93.39 Z M69.21,151.75 L75.08,152.95 L75.08,124.19 L69.21,122.64 L69.21,151.75 Z M75.08,31.89 L69.21,29.31 L69.21,58.31 L75.08,60.55 L75.08,31.89 Z M77.08,155.41 L77.08,156.44 L77.55,155.5 L77.08,155.41 Z" id="Combined-Shape-Copy-5" fill="#050505"></path>
                        <path d="M26.14,44.79 L21.01,47.71 L21.01,74 L26.14,71.47 L26.14,44.79 Z M26.14,73.7 L21.01,76.23 L21.01,102.54 L26.14,100.4 L26.14,73.7 Z M28.14,99.56 L33.54,97.31 L33.54,70.05 L28.14,72.71 L28.14,99.56 Z M14.17,133.49 L19.01,131.82 L19.01,105.55 L14.17,107.58 L14.17,133.49 Z M19.01,48.85 L14.17,51.61 L14.17,77.39 L19.01,74.99 L19.01,48.85 Z M19.01,77.22 L14.17,79.61 L14.17,105.41 L19.01,103.38 L19.01,77.22 Z M33.54,40.58 L28.14,43.65 L28.14,70.48 L33.54,67.82 L33.54,40.58 Z M49.21,60.08 L49.21,31.65 L43.21,35.06 L43.21,63.04 L49.21,60.08 Z M41.21,36.2 L35.54,39.43 L35.54,66.83 L41.21,64.03 L41.21,36.2 Z M35.54,96.47 L41.21,94.09 L41.21,66.26 L35.54,69.06 L35.54,96.47 Z M21.01,131.14 L26.14,129.38 L26.14,102.57 L21.01,104.71 L21.01,131.14 Z M12.17,80.6 L7.55,82.88 L7.55,108.18 L12.17,106.25 L12.17,80.6 Z M33.54,99.47 L28.14,101.73 L28.14,128.69 L29.06,128.38 L33.54,119.46 L33.54,99.47 Z M26.14,131.49 L21.01,133.25 L21.01,144.42 L26.14,134.19 L26.14,131.49 Z M49.21,62.31 L43.21,65.27 L43.21,93.26 L47.6,91.42 L49.21,88.2 L49.21,62.31 Z M43.21,95.42 L43.21,100.16 L46.22,94.17 L43.21,95.42 Z M41.21,96.26 L35.54,98.64 L35.54,115.47 L41.21,104.15 L41.21,96.26 Z M7.55,135.76 L12.17,134.18 L12.17,108.42 L7.55,110.35 L7.55,135.76 Z M12.17,52.74 L7.55,55.37 L7.55,80.65 L12.17,78.37 L12.17,52.74 Z M12.17,136.29 L7.55,137.88 L7.55,163.32 L12.15,162.08 L12.17,162.06 L12.17,136.29 Z M7.55,171.27 L10.95,164.48 L7.55,165.39 L7.55,171.27 Z M19.01,133.94 L14.17,135.6 L14.17,158.07 L19.01,148.41 L19.01,133.94 Z" id="Combined-Shape-Copy-4" fill="#101010"></path>
                    </g>
                    <g id="Group-31-Copy" transform="translate(159.000000, 195.500000) scale(-1, 1) translate(-159.000000, -195.500000) translate(93.000000, 128.000000)">
                        <g id="Group-30">
                            <polygon id="Shape" fill="#050505" points="9.38 133.93 52.54 133.9 52.54 88.67 9.38 91.73"></polygon>
                            <polygon id="Shape" fill="#202020" points="52.38 134.29 126.38 134.29 126.38 98.38 52.38 87.43"></polygon>
                            <polygon id="Shape" fill="#2B2B2B" points="52.38 92.33 131.38 102.8 131.38 34.45 52.38 1.25"></polygon>
                            <path d="M131.88,34.45 L131.38,34.45 L131.57,33.99 L52.57,0.79 L52.38,1.25 L51.88,1.25 L51.88,92.4 L52.38,92.4 L52.31,92.9 L131.31,103.3 L131.37,102.8 L131.87,102.8 L131.88,34.45 Z M91.38,57.07 L79.21,53.71 L79.21,33.91 L91.38,38.15 L91.38,57.07 Z M92.38,38.49 L104.55,42.72 L104.55,60.72 L92.38,57.36 L92.38,38.49 Z M78.21,53.43 L66,50.08 L66,29.33 L78.17,33.56 L78.21,53.43 Z M78.21,54.43 L78.21,74.32 L66,71.89 L66,51.12 L78.21,54.43 Z M79.21,54.71 L91.38,58.07 L91.38,77.01 L79.21,74.53 L79.21,54.71 Z M92.38,58.34 L104.55,61.7 L104.55,79.7 L92.38,77.22 L92.38,58.34 Z M105.54,62 L117.71,65.36 L117.71,82.36 L105.54,79.88 L105.54,62 Z M105.54,61 L105.54,43.1 L117.71,47.34 L117.71,64.34 L105.54,61 Z M105.54,42 L105.54,24.14 L117.71,29.25 L117.71,46.25 L105.54,42 Z M104.54,41.65 L92.37,37.42 L92.37,18.61 L104.54,23.72 L104.54,41.65 Z M91.37,37.07 L79.2,32.84 L79.2,13.07 L91.37,18.18 L91.37,37.07 Z M78.2,32.49 L66,28.27 L66,7.54 L78.17,12.65 L78.2,32.49 Z M65,27.92 L52.83,23.69 L52.83,2 L65,7.12 L65,27.92 Z M65,28.98 L65,49.8 L52.83,46.44 L52.83,24.74 L65,28.98 Z M65,50.84 L65,71.68 L52.83,69.2 L52.83,47.48 L65,50.84 Z M65,72.7 L65,93.56 L52.87,92 L52.87,70.22 L65,72.7 Z M66,72.9 L78.17,75.38 L78.17,95.3 L66,93.69 L66,72.9 Z M79.17,75.58 L91.34,78.06 L91.34,97.06 L79.17,95.46 L79.17,75.58 Z M92.34,78.26 L104.51,80.74 L104.51,98.74 L92.34,97.14 L92.34,78.26 Z M105.54,81 L117.71,83.48 L117.71,100.5 L105.54,98.9 L105.54,81 Z M118.71,83.68 L130.88,86.16 L130.88,102.27 L118.71,100.67 L118.71,83.68 Z M118.71,82.68 L118.71,65.68 L130.88,69 L130.88,85.1 L118.71,82.68 Z M118.71,64.68 L118.71,47.68 L130.88,51.91 L130.88,68 L118.71,64.68 Z M118.71,46.68 L118.71,29.67 L130.88,34.78 L130.88,50.83 L118.71,46.68 Z" id="Shape" fill="#202020"></path>
                            <polygon id="Shape" fill="#101010" points="0.62 96.25 52.37 92.92 52.37 0.82 0.62 11.56"></polygon>
                        </g>
                    </g>
                    <polygon id="Shape" fill="#252525" points="303.89 261.67 361.14 261.72 361.14 219.95 303.89 215.99"></polygon>
                    <polygon id="Shape" fill="#2B2B2B" points="303.88 261.67 212.21 261.87 212.21 230.24 303.88 215.42"></polygon>
                    <polygon id="Shape" fill="#2B2B2B" points="372.38 261.68 431.21 261.57 431.21 0 372.38 36.98"></polygon>
                    <polygon id="Shape" fill="#252525" points="488.88 262.29 431.21 262.29 431.21 0 488.88 27.87"></polygon>
                    <path d="M478.39,74.62 L483.21,76.46 L483.21,102.95 L478.39,101.4 L478.39,74.62 Z M471.39,157.96 L476.39,158.96 L476.39,131.93 L471.39,130.6 L471.39,157.96 Z M469.39,187.03 L469.39,159.58 L464.18,158.51 L464.18,186.25 L469.39,187.03 Z M464.18,216.03 L469.39,216.49 L469.39,189 L464.18,188.23 L464.18,216.03 Z M471.39,216.67 L476.39,217.12 L476.39,190.07 L471.39,189.33 L471.39,216.67 Z M471.39,128.52 L476.39,129.85 L476.39,102.85 L471.39,101.23 L471.39,128.52 Z M478.39,72.46 L483.21,74.3 L483.21,47.77 L478.39,45.65 L478.39,72.46 Z M471.39,99.1 L476.39,100.72 L476.39,73.85 L471.39,71.94 L471.39,99.1 Z M478.39,159.38 L483.21,160.38 L483.21,133.73 L478.39,132.46 L478.39,159.38 Z M476.39,44.76 L471.39,42.55 L471.39,69.8 L476.39,71.71 L476.39,44.76 Z M476.39,188.04 L476.39,161 L471.39,160 L471.39,187.32 L476.39,188.04 Z M478.39,217.3 L483.21,217.73 L483.21,191.08 L478.39,190.37 L478.39,217.3 Z M478.39,188.3 L483.21,189.01 L483.21,162.43 L478.39,161.43 L478.39,188.3 Z M478.39,130.3 L483.21,131.57 L483.21,105 L478.39,103.45 L478.39,130.3 Z M454.71,95.85 L449.08,94 L449.08,122.62 L454.71,124.11 L454.71,95.85 Z M449.08,63.45 L449.08,91.93 L454.71,93.75 L454.71,65.6 L449.08,63.45 Z M462.16,38.52 L456.71,36.13 L456.71,64.22 L462.16,66.3 L462.16,38.52 Z M462.16,185.96 L462.16,158.1 L456.71,157 L456.71,185.18 L462.16,185.96 Z M462.16,156.06 L462.16,128.17 L456.71,126.73 L456.71,154.93 L462.16,156.06 Z M469.37,157.54 L469.37,130.08 L464.16,128.7 L464.16,156.47 L469.37,157.54 Z M464.16,126.63 L469.37,128.01 L469.37,100.58 L464.16,98.9 L464.16,126.63 Z M464.16,69.19 L464.16,96.79 L469.37,98.47 L469.37,71.18 L464.16,69.19 Z M469.37,41.68 L464.16,39.39 L464.16,67.05 L469.37,69.05 L469.37,41.68 Z M456.71,215.39 L462.16,215.87 L462.16,188 L456.71,187.2 L456.71,215.39 Z M456.71,96.49 L456.71,124.66 L462.16,126.1 L462.16,98.25 L456.71,96.49 Z M456.71,66.35 L456.71,94.35 L462.16,96.11 L462.16,68.43 L456.71,66.35 Z M454.71,126.2 L449.08,124.71 L449.08,153.36 L454.71,154.52 L454.71,126.2 Z M449.08,214.71 L454.71,215.21 L454.71,186.88 L449.08,186.05 L449.08,214.71 Z M454.71,184.86 L454.71,156.56 L449.08,155.4 L449.08,184 L454.71,184.86 Z M454.71,35.24 L449.08,32.77 L449.08,61.31 L454.71,63.45 L454.71,35.24 Z M447.08,155 L441.21,153.79 L441.21,182.88 L447.08,183.74 L447.08,155 Z M441.21,214 L447.08,214.52 L447.08,185.76 L441.21,184.9 L441.21,214 Z M447.08,124.17 L441.21,122.62 L441.21,151.73 L447.08,152.94 L447.08,124.17 Z M447.08,93.37 L441.21,91.48 L441.21,120.56 L447.08,122.11 L447.08,93.37 Z M447.08,31.87 L441.21,29.29 L441.21,58.29 L447.08,60.53 L447.08,31.87 Z M447.08,62.67 L441.21,60.43 L441.21,89.39 L447.08,91.28 L447.08,62.67 Z" id="Shape" fill="#101010"></path>
                    <path d="M415.21,95.42 L421.21,92.91 L421.21,121.45 L415.21,123.51 L415.21,95.42 Z M415.21,214.21 L421.21,213.51 L421.21,184.85 L415.21,186.01 L415.21,214.21 Z M415.21,183.97 L421.21,182.81 L421.21,154.22 L415.21,155.83 L415.21,183.97 Z M415.21,153.76 L421.21,152.15 L421.21,123.57 L415.21,125.63 L415.21,153.76 Z M415.21,63.04 L421.21,60.04 L421.21,31.65 L415.21,35.06 L415.21,63.04 Z M407.53,215.11 L413.21,214.44 L413.21,186.4 L407.53,187.49 L407.53,215.11 Z M413.21,36.2 L407.53,39.43 L407.53,66.83 L413.21,64.03 L413.21,36.2 Z M413.21,184.36 L413.21,156.36 L407.53,157.88 L407.53,185.44 L413.21,184.36 Z M407.53,155.82 L413.21,154.3 L413.21,126.3 L407.53,128.25 L407.53,155.82 Z M407.53,126.15 L413.21,124.2 L413.21,96.26 L407.53,98.64 L407.53,126.15 Z M405.53,156.35 L405.53,129 L400.14,130.85 L400.14,157.85 L405.53,156.35 Z M407.53,96.46 L413.21,94.08 L413.21,66.26 L407.53,69.06 L407.53,96.46 Z M400.14,216 L405.53,215.37 L405.53,187.88 L400.14,188.88 L400.14,216 Z M405.53,185.86 L405.53,158.43 L400.14,159.87 L400.14,186.87 L405.53,185.86 Z M415.21,93.28 L421.21,90.77 L421.21,62.31 L415.21,65.31 L415.21,93.28 Z M405.53,40.61 L400.14,43.68 L400.14,70.48 L405.53,67.82 L405.53,40.61 Z M398.14,158.36 L398.14,131.49 L393,133.25 L393,159.71 L398.14,158.36 Z M393,104.71 L393,131.13 L398.13,129.37 L398.13,102.57 L393,104.71 Z M393,76.23 L393,102.54 L398.13,100.39 L398.13,73.7 L393,76.23 Z M398.13,44.79 L393,47.71 L393,74 L398.13,71.47 L398.13,44.79 Z M391,133.94 L386.15,135.6 L386.15,161.54 L391,160.24 L391,133.94 Z M393,216.82 L398.13,216.22 L398.13,189.3 L393,190.3 L393,216.82 Z M398.13,187.27 L398.13,160.41 L393,161.78 L393,188.25 L398.13,187.27 Z M400.13,128.7 L405.52,126.85 L405.52,99.47 L400.13,101.72 L400.13,128.7 Z M400.13,72.7 L400.13,99.56 L405.52,97.31 L405.52,70.05 L400.13,72.7 Z M391,48.85 L386.15,51.61 L386.15,77.38 L391,75 L391,48.85 Z M384.15,164.16 L379.53,165.4 L379.53,190.86 L384.15,189.97 L384.15,164.16 Z M391,105.56 L386.15,107.56 L386.15,133.47 L391,131.8 L391,105.56 Z M386.15,79.63 L386.15,105.43 L391,103.43 L391,77.22 L386.15,79.63 Z M386.15,217.63 L391,217.06 L391,190.68 L386.15,191.61 L386.15,217.63 Z M391,188.63 L391,162.32 L386.15,163.62 L386.15,189.62 L391,188.63 Z M379.54,218.4 L384.16,217.86 L384.16,192 L379.54,192.89 L379.54,218.4 Z M384.16,136.29 L379.54,137.88 L379.54,163.32 L384.16,162.08 L384.16,136.29 Z M384.16,80.6 L379.54,82.88 L379.54,108.18 L384.16,106.25 L384.16,80.6 Z M384.16,108.41 L379.54,110.34 L379.54,135.75 L384.16,134.16 L384.16,108.41 Z M384.16,52.74 L379.54,55.37 L379.54,80.65 L384.16,78.37 L384.16,52.74 Z" id="Shape" fill="#202020"></path>
                    <path d="M462.17,68.43 L456.71,66.36 L456.71,94.39 L462.17,96.15 L462.17,68.43 Z M462.17,38.52 L456.71,36.12 L456.71,64.22 L462.17,66.29 L462.17,38.52 Z M454.71,35.24 L449.08,32.77 L449.08,61.31 L454.71,63.45 L454.71,35.24 Z M454.71,65.6 L449.08,63.45 L449.08,91.93 L454.71,93.75 L454.71,65.6 Z M449.08,122.65 L454.71,124.14 L454.71,95.85 L449.08,94.03 L449.08,122.65 Z M456.71,124.67 L462.17,126.11 L462.17,98.25 L456.71,96.49 L456.71,124.67 Z M476.39,44.77 L471.38,42.56 L471.38,69.8 L476.39,71.71 L476.39,44.77 Z M483.21,74.31 L483.21,47.77 L478.39,45.65 L478.39,72.47 L483.21,74.31 Z M469.38,41.69 L464.17,39.4 L464.17,67.06 L469.38,69.04 L469.38,41.69 Z M471.38,99.12 L476.39,100.74 L476.39,73.85 L471.38,71.94 L471.38,99.12 Z M464.17,96.8 L469.38,98.47 L469.38,71.18 L464.17,69.19 L464.17,96.8 Z M454.71,126.2 L449.08,124.72 L449.08,153.37 L450.48,153.65 L454.71,145.22 L454.71,126.2 Z M469.38,100.58 L464.17,98.9 L464.17,126.38 L469.38,115.99 L469.38,100.58 Z M462.17,128.17 L456.71,126.73 L456.71,141.23 L462.17,130.36 L462.17,128.17 Z M483.21,76.45 L478.39,74.61 L478.39,98.01 L483.21,88.4 L483.21,76.45 Z M471.38,101.22 L471.38,112 L476.03,102.72 L471.38,101.22 Z M447.08,160.43 L447.08,155 L441.21,153.79 L441.21,172.13 L447.08,160.43 Z M447.08,62.69 L441.21,60.45 L441.21,89.39 L447.08,91.29 L447.08,62.69 Z M447.08,93.39 L441.21,91.5 L441.21,120.57 L447.08,122.12 L447.08,93.39 Z M441.21,151.75 L447.08,152.95 L447.08,124.19 L441.21,122.64 L441.21,151.75 Z M447.08,31.89 L441.21,29.31 L441.21,58.31 L447.08,60.55 L447.08,31.89 Z M449.08,155.41 L449.08,156.44 L449.55,155.5 L449.08,155.41 Z" id="Combined-Shape" fill="#050505"></path>
                    <path d="M398.14,44.79 L393.01,47.71 L393.01,74 L398.14,71.47 L398.14,44.79 Z M398.14,73.7 L393.01,76.23 L393.01,102.54 L398.14,100.4 L398.14,73.7 Z M400.14,99.56 L405.54,97.31 L405.54,70.05 L400.14,72.71 L400.14,99.56 Z M386.17,133.49 L391.01,131.82 L391.01,105.55 L386.17,107.58 L386.17,133.49 Z M391.01,48.85 L386.17,51.61 L386.17,77.39 L391.01,74.99 L391.01,48.85 Z M391.01,77.22 L386.17,79.61 L386.17,105.41 L391.01,103.38 L391.01,77.22 Z M405.54,40.58 L400.14,43.65 L400.14,70.48 L405.54,67.82 L405.54,40.58 Z M421.21,60.08 L421.21,31.65 L415.21,35.06 L415.21,63.04 L421.21,60.08 Z M413.21,36.2 L407.54,39.43 L407.54,66.83 L413.21,64.03 L413.21,36.2 Z M407.54,96.47 L413.21,94.09 L413.21,66.26 L407.54,69.06 L407.54,96.47 Z M393.01,131.14 L398.14,129.38 L398.14,102.57 L393.01,104.71 L393.01,131.14 Z M384.17,80.6 L379.55,82.88 L379.55,108.18 L384.17,106.25 L384.17,80.6 Z M405.54,99.47 L400.14,101.73 L400.14,128.69 L401.06,128.38 L405.54,119.46 L405.54,99.47 Z M398.14,131.49 L393.01,133.25 L393.01,144.42 L398.14,134.19 L398.14,131.49 Z M421.21,62.31 L415.21,65.27 L415.21,93.26 L419.6,91.42 L421.21,88.2 L421.21,62.31 Z M415.21,95.42 L415.21,100.16 L418.22,94.17 L415.21,95.42 Z M413.21,96.26 L407.54,98.64 L407.54,115.47 L413.21,104.15 L413.21,96.26 Z M379.55,135.76 L384.17,134.18 L384.17,108.42 L379.55,110.35 L379.55,135.76 Z M384.17,52.74 L379.55,55.37 L379.55,80.65 L384.17,78.37 L384.17,52.74 Z M384.17,136.29 L379.55,137.88 L379.55,163.32 L384.15,162.08 L384.17,162.06 L384.17,136.29 Z M379.55,171.27 L382.95,164.48 L379.55,165.39 L379.55,171.27 Z M391.01,133.94 L386.17,135.6 L386.17,158.07 L391.01,148.41 L391.01,133.94 Z" id="Combined-Shape" fill="#101010"></path>
                    <polygon id="Shape" fill="#18698F" points="406.54 38.86 406.54 38.85 406.54 38.86"></polygon>
                    <polygon id="Shape" fill="#252525" points="303.88 215.22 212.13 230.11 212.13 206.83 303.88 181.15"></polygon>
                    <polygon id="Shape" fill="#2B2B2B" points="303.94 192.77 212.13 214.59 212.13 215.62 303.88 193.86 303.88 193.26"></polygon>
                    <polygon id="Shape" fill="#2B2B2B" points="212.13 221.9 303.88 203.07 303.88 202.47 303.94 201.96 212.13 220.88"></polygon>
                    <polygon id="Shape" fill="#202020" points="303.88 185.64 208.13 210.95 208.13 203.73 303.88 174.86"></polygon>
                    <polygon id="Shape" fill="#101010" points="303.89 215.99 361.14 219.95 361.14 187.6 303.89 180.62"></polygon>
                    <polygon id="Shape" fill="#2B2B2B" points="361.14 208.07 361.14 207.07 303.94 201.96 303.89 202.46 303.89 202.96"></polygon>
                    <polygon id="Shape" fill="#2B2B2B" points="361.14 198.67 303.94 192.77 303.89 193.27 303.89 193.77 361.14 199.67"></polygon>
                    <polygon id="Shape" fill="#202020" points="303.88 220.83 208.13 234.52 208.13 227.3 303.88 210.04"></polygon>
                    <polygon id="Shape" fill="#101010" points="365.06 224.62 303.89 220.83 303.89 210.07 365.06 214.84"></polygon>
                    <polygon id="Shape" fill="#101010" points="365.06 192.69 303.89 185.69 303.89 174.9 365.06 182.88"></polygon>
                    <polygon id="Shape" fill="#2B2B2B" points="303.94 184.67 208.13 210.32 208.13 210.95 303.94 185.62"></polygon>
                    <polygon id="Shape" fill="#2B2B2B" points="303.94 210.95 208.13 227.91 208.13 227.3 303.94 210.03"></polygon>
                    <polygon id="Shape" fill="#2B2B2B" points="303.89 185.690979 303.89 184.69 365.06 191.76 365.06 192.69"></polygon>
                    <polygon id="Shape" fill="#2B2B2B" points="303.96 210.96 365.06 215.64 365.06 214.84 303.96 210.07"></polygon>
                    <rect id="Rectangle-path" fill="#2B2B2B" x="448.77" y="177.63" width="194.33" height="83.4"></rect>
                    <rect id="Rectangle-path" fill="#101010" x="457.5" y="184.13" width="176.88" height="76.89"></rect>
                    <rect id="Rectangle-path" fill="#050505" x="454.78" y="170.87" width="182.31" height="24.13"></rect>
                    <path d="M464.29,244.16 L464.29,199.35 L448.77,199.35 L448.77,177.63 L643.1,177.63 L643.1,199.35 L627.58,199.35 L627.58,244.16 L643.1,244.16 L643.1,246.79 L627.58,246.79 L627.58,261.02 L625.64,261.02 L625.64,246.79 L617.5,246.79 L617.5,261.02 L615.56,261.02 L615.56,246.79 L607.42,246.79 L607.42,261.02 L605.48,261.02 L605.48,246.79 L597.33,246.79 L597.33,261.02 L595.39,261.02 L595.39,246.79 L587.25,246.79 L587.25,261.02 L585.31,261.02 L585.31,246.79 L577.16,246.79 L577.16,261.02 L575.22,261.02 L575.22,246.79 L567.08,246.79 L567.08,261.02 L565.14,261.02 L565.14,246.79 L556.99,246.79 L556.99,261.02 L555.05,261.02 L555.05,246.79 L546.91,246.79 L546.91,261.02 L544.97,261.02 L544.97,246.79 L536.83,246.79 L536.83,261.02 L534.89,261.02 L534.89,246.79 L526.74,246.79 L526.74,261.02 L524.8,261.02 L524.8,246.79 L516.66,246.79 L516.66,261.02 L514.72,261.02 L514.72,246.79 L506.57,246.79 L506.57,261.02 L504.63,261.02 L504.63,246.79 L496.49,246.79 L496.49,261.02 L494.55,261.02 L494.55,246.79 L486.4,246.79 L486.4,261.02 L484.46,261.02 L484.46,246.79 L476.32,246.79 L476.32,261.02 L474.38,261.02 L474.38,246.79 L466.23,246.79 L466.23,261.02 L464.29,261.02 L464.29,246.79 L448.77,246.79 L448.77,244.16 L464.29,244.16 L464.29,244.16 Z M466.23,244.16 L466.23,199.35 L474.38,199.35 L474.38,244.16 L466.23,244.16 L466.23,244.16 Z M476.32,244.16 L476.32,199.35 L484.46,199.35 L484.46,244.16 L476.32,244.16 L476.32,244.16 Z M486.4,244.16 L486.4,199.35 L494.55,199.35 L494.55,244.16 L486.4,244.16 L486.4,244.16 Z M496.49,244.16 L496.49,199.35 L504.63,199.35 L504.63,244.16 L496.49,244.16 L496.49,244.16 Z M506.57,244.16 L506.57,199.35 L514.72,199.35 L514.72,244.16 L506.57,244.16 L506.57,244.16 Z M516.66,244.16 L516.66,199.35 L524.8,199.35 L524.8,244.16 L516.66,244.16 L516.66,244.16 Z M526.74,244.16 L526.74,199.35 L534.89,199.35 L534.89,244.16 L526.74,244.16 L526.74,244.16 Z M536.83,244.16 L536.83,199.35 L544.97,199.35 L544.97,244.16 L536.83,244.16 L536.83,244.16 Z M546.91,244.16 L546.91,199.35 L555.05,199.35 L555.05,244.16 L546.91,244.16 L546.91,244.16 Z M556.99,244.16 L556.99,199.35 L565.14,199.35 L565.14,244.16 L556.99,244.16 L556.99,244.16 Z M567.08,244.16 L567.08,199.35 L575.22,199.35 L575.22,244.16 L567.08,244.16 L567.08,244.16 Z M577.16,244.16 L577.16,199.35 L585.31,199.35 L585.31,244.16 L577.16,244.16 L577.16,244.16 Z M587.25,244.16 L587.25,199.35 L595.39,199.35 L595.39,244.16 L587.25,244.16 L587.25,244.16 Z M597.33,244.16 L597.33,199.35 L605.48,199.35 L605.48,244.16 L597.33,244.16 L597.33,244.16 Z M607.42,244.16 L607.42,199.35 L615.56,199.35 L615.56,244.16 L607.42,244.16 L607.42,244.16 Z M617.5,244.16 L617.5,199.35 L625.64,199.35 L625.64,244.16 L617.5,244.16 L617.5,244.16 Z" id="Combined-Shape" fill="#2B2B2B"></path>
                </g>
                <rect id="Rectangle-2" fill="#000000" x="0" y="260" width="1920" height="60"></rect>
                <path d="M0,290 L1920,290" id="Line" stroke="#2B2B2B" stroke-width="2" stroke-linecap="square" stroke-dasharray="8,14"></path>
                <g id="Group-7" transform="translate(1253.000000, 210.000000)">
                    <path d="M23.0543026,0 L90.276893,0 C100.653373,0 108.000694,20.8695652 113.738332,20.8695652 L128.296214,20.8695652 C135.903432,20.8695652 142,26.9817391 142,34.5568696 L142,43.4723478 C142,46.1233043 139.912443,48 137.250074,48 L4.73315867,48 C2.07078967,48 0,46.1233043 0,43.4723478 L0,22.8986087 C0,11.5142609 14.8963764,0 23.0543026,0" id="Fill-145" fill="#2B2B2B" transform="translate(71.000000, 24.000000) scale(-1, 1) translate(-71.000000, -24.000000) "></path>
                    <path d="M138.332103,30.830087 C138.332103,30.830087 142,30.5525217 142,33.8217391 L142,35.6551304 C142,37.7483478 139.904059,38.1344348 138.332103,38.1344348 L138.332103,30.830087" id="Fill-146" fill="#505050" transform="translate(140.166052, 34.479337) scale(-1, 1) translate(-140.166052, -34.479337) "></path>
                    <path d="M0.055266686,30.168 L0.055266686,24.6813913 C0.055266686,24.338087 -0.0437665243,24.0031304 0.0233035864,23.6796522 C3.30502314,26.1866087 5.29511908,30.12 5.29511908,34.5568696 C5.29511908,35.3118261 5.29511908,33.5050435 5.29511908,35.0504348 C5.29511908,35.0707826 5.06718551,35.1057391 4.87959879,35.1057391 C2.14020396,35.1057391 0.055266686,32.8946087 0.055266686,30.168" id="Fill-147" fill="#505050" transform="translate(2.647560, 29.392696) scale(-1, 1) translate(-2.647560, -29.392696) "></path>
                    <path d="M105.321033,6.4226087 C105.321033,4.60434783 103.840775,3.13043478 102.014686,3.13043478 L78.7602214,3.13043478 C76.9341328,3.13043478 75.4538745,4.60434783 75.4538745,6.4226087 L75.4538745,18.6208696 C75.4538745,20.4391304 76.9341328,21.9130435 78.7602214,21.9130435 L102.014686,21.9130435 C103.840775,21.9130435 105.321033,20.4391304 105.321033,18.6208696 L105.321033,6.4226087" id="Fill-148" fill="#505050" transform="translate(90.387454, 12.521739) scale(-1, 1) translate(-90.387454, -12.521739) "></path>
                    <path d="M109.56877,18.5566957 C109.162157,20.3290435 111.04798,21.9130435 112.874593,21.9130435 L134.91446,21.9130435 C136.741072,21.9130435 137.735596,20.4641739 137.735596,18.6464348 L137.735596,6.576 C137.735596,4.75826087 136.741072,3.13043478 134.91446,3.13043478 L126.098932,3.13043478 C119.210622,3.13043478 110.740925,13.4473043 109.56877,18.5566957" id="Fill-149" fill="#505050" transform="translate(123.624256, 12.521739) scale(-1, 1) translate(-123.624256, -12.521739) "></path>
                    <path d="M38.4992915,18.6464348 C38.4992915,20.4641739 39.7358967,21.9130435 41.5619852,21.9130435 L66.9076753,21.9130435 C68.7348118,21.9130435 70.2140221,20.546087 70.2140221,18.5566957 C70.2140221,13.0017391 61.7652841,3.13043478 55.8882657,3.13043478 L41.5619852,3.13043478 C39.7358967,3.13043478 38.4992915,4.75826087 38.4992915,6.576 L38.4992915,18.6464348" id="Fill-150" fill="#505050" transform="translate(54.356657, 12.521739) scale(-1, 1) translate(-54.356657, -12.521739) "></path>
                    <path d="M137.250074,48 L4.73315867,48 C2.07078967,48 0,46.1233043 0,43.4723478 L0,41.7391304 L142,41.7391304 L142,43.4723478 C142,46.1233043 139.912443,48 137.250074,48" id="Fill-151" fill="#101010" transform="translate(71.000000, 44.869565) scale(-1, 1) translate(-71.000000, -44.869565) "></path>
                    <path d="M37.1039188,48 C37.1039188,39.6521739 30.8407232,34.0706087 23.1145609,34.0706087 C15.3868266,34.0706087 9.12467897,39.6521739 9.12467897,48 L37.1039188,48" id="Fill-152" fill="#101010" transform="translate(23.114299, 41.035304) scale(-1, 1) translate(-23.114299, -41.035304) "></path>
                    <path d="M12.0679041,48.9688696 C12.0679041,54.9970435 16.9755498,59.8826087 23.0296753,59.8826087 C29.0832768,59.8826087 33.9888266,54.9970435 33.9888266,48.9688696 C33.9888266,42.9406957 29.0832768,38.0561739 23.0296753,38.0561739 C16.9755498,38.0561739 12.0679041,42.9406957 12.0679041,48.9688696" id="Fill-153" fill="#2B2B2B" transform="translate(23.028365, 48.969391) scale(-1, 1) translate(-23.028365, -48.969391) "></path>
                    <path d="M15.6603469,48.9688696 C15.6603469,53.0196522 18.957262,56.3034783 23.0260074,56.3034783 C27.0952768,56.3034783 30.3927159,53.0196522 30.3927159,48.9688696 C30.3927159,44.9170435 27.0952768,41.6337391 23.0260074,41.6337391 C18.957262,41.6337391 15.6603469,44.9170435 15.6603469,48.9688696" id="Fill-154" fill="#505050" transform="translate(23.026531, 48.968609) scale(-1, 1) translate(-23.026531, -48.968609) "></path>
                    <path d="M128.570782,48 C128.570782,39.6521739 122.307587,34.0706087 114.581424,34.0706087 C106.85369,34.0706087 100.591542,39.6521739 100.591542,48 L128.570782,48" id="Fill-155" fill="#101010" transform="translate(114.581162, 41.035304) scale(-1, 1) translate(-114.581162, -41.035304) "></path>
                    <path d="M103.534768,48.9688696 C103.534768,54.9970435 108.442413,59.8826087 114.496539,59.8826087 C120.550664,59.8826087 125.45569,54.9970435 125.45569,48.9688696 C125.45569,42.9406957 120.550664,38.0561739 114.496539,38.0561739 C108.442413,38.0561739 103.534768,42.9406957 103.534768,48.9688696" id="Fill-156" fill="#2B2B2B" transform="translate(114.495229, 48.969391) scale(-1, 1) translate(-114.495229, -48.969391) "></path>
                    <path d="M107.12721,48.9688696 C107.12721,53.0196522 110.424125,56.3034783 114.492871,56.3034783 C118.562664,56.3034783 121.859579,53.0196522 121.859579,48.9688696 C121.859579,44.9170435 118.562664,41.6337391 114.492871,41.6337391 C110.424125,41.6337391 107.12721,44.9170435 107.12721,48.9688696" id="Fill-157" fill="#505050" transform="translate(114.493395, 48.968609) scale(-1, 1) translate(-114.493395, -48.968609) "></path>
                    <path d="M60.3557638,28.4347826 C60.3557638,29.0864348 60.8493579,29.7391304 61.4582288,29.7391304 L69.2079705,29.7391304 C69.8168413,29.7391304 70.3099114,29.0864348 70.3099114,28.4347826 C70.3099114,27.7831304 69.8168413,27.1304348 69.2079705,27.1304348 L61.4582288,27.1304348 C60.8493579,27.1304348 60.3557638,27.7831304 60.3557638,28.4347826" id="Fill-158" fill="#202020" transform="translate(65.332838, 28.434783) scale(-1, 1) translate(-65.332838, -28.434783) "></path>
                    <path d="M104.273063,28.2276522 C104.273063,27.6213913 103.779993,27.1304348 103.171122,27.1304348 L95.4192841,27.1304348 C94.8104133,27.1304348 94.3173432,27.6213913 94.3173432,28.2276522 L94.3173432,28.641913 C94.3173432,29.2481739 94.8104133,29.7391304 95.4192841,29.7391304 L103.171122,29.7391304 C103.779993,29.7391304 104.273063,29.2481739 104.273063,28.641913 L104.273063,28.2276522" id="Fill-159" fill="#202020" transform="translate(99.295203, 28.434783) scale(-1, 1) translate(-99.295203, -28.434783) "></path>
                </g>
                <g id="Group-3" transform="translate(82.000000, 208.000000)">
                    <path d="M162,39.2232432 C162,40.5481081 160.92702,41.6216216 159.60348,41.6216216 L159.53598,41.6216216 C158.21298,41.6216216 157.14,40.5481081 157.14,39.2232432 L157.14,33.7497297 C157.14,32.4248649 158.21298,31.3513514 159.53598,31.3513514 L159.60348,31.3513514 C160.92702,31.3513514 162,32.4248649 162,33.7497297 L162,39.2232432" id="Fill-102" fill="#505050" transform="translate(159.570000, 36.486486) scale(-1, 1) translate(-159.570000, -36.486486) "></path>
                    <path d="M12.3058538,35.0108108 C12.7119338,36.6627027 11.7042938,38.3302703 10.0540538,38.7367568 L7.06839383,39.472973 C5.41707383,39.88 3.75225383,38.8713514 3.34455383,37.2194595 C2.93901383,35.5686486 3.94665383,33.9005405 5.59635383,33.4940541 L8.58255383,32.7572973 C10.2333338,32.3508108 11.8986938,33.36 12.3058538,35.0108108" id="Fill-103" fill="#505050" transform="translate(7.825307, 36.115254) scale(-1, 1) translate(-7.825307, -36.115254) "></path>
                    <path d="M116.0811,0.540540541 L76.26528,0.540540541 C62.21718,0.540540541 51.07104,15.6756757 46.93734,20 L15.60006,20 C8.80578,20 3.59586,25.2081081 3.59586,32.0102703 L3.59586,48.6486486 L158.76,48.6486486 C148.38012,-2.7027027 119.4426,0.540540541 116.0811,0.540540541" id="Fill-104" fill="#2B2B2B" transform="translate(81.177930, 24.574199) scale(-1, 1) translate(-81.177930, -24.574199) "></path>
                    <path d="M162,47.3560934 C162,48.6670025 160.73748,49.7297297 159.18012,49.7297297 L2.81988,49.7297297 C1.26252,49.7297297 0,48.6670025 0,47.3560934 L0,47.1033661 C0,45.792457 1.26252,44.7297297 2.81988,44.7297297 L159.18012,44.7297297 C160.73748,44.7297297 162,45.792457 162,47.1033661 L162,47.3560934" id="Fill-105" fill="#101010" transform="translate(81.000000, 47.229730) scale(-1, 1) translate(-81.000000, -47.229730) "></path>
                    <path d="M13.3000488,47.5675676 C13.3000488,37.1186217 21.3562823,28.6486486 31.2975074,28.6486486 C41.241637,28.6486486 49.3000488,37.1186217 49.3000488,47.5675676" id="Fill-106-Copy-2" fill="#101010" transform="translate(31.300049, 38.108108) scale(-1, 1) translate(-31.300049, -38.108108) "></path>
                    <path d="M111.800049,47.5675676 C111.800049,37.1186217 119.856282,28.6486486 129.797507,28.6486486 C139.741637,28.6486486 147.800049,37.1186217 147.800049,47.5675676" id="Fill-106-Copy-3" fill="#101010" transform="translate(129.800049, 38.108108) scale(-1, 1) translate(-129.800049, -38.108108) "></path>
                    <path d="M143.262,46.5097297 C143.262,53.9118919 137.26908,59.9108108 129.87378,59.9108108 C122.48064,59.9108108 116.48934,53.9118919 116.48934,46.5097297 C116.48934,39.1091892 122.48064,33.1102703 129.87378,33.1102703 C137.26908,33.1102703 143.262,39.1091892 143.262,46.5097297" id="Fill-106-Copy" fill="#2B2B2B" transform="translate(129.875670, 46.510541) scale(-1, 1) translate(-129.875670, -46.510541) "></path>
                    <path d="M138.8745,46.5097297 C138.8745,51.4843243 134.84448,55.5167568 129.8754,55.5167568 C124.90578,55.5167568 120.87846,51.4843243 120.87846,46.5097297 C120.87846,41.5345946 124.90578,37.5037838 129.8754,37.5037838 C134.84448,37.5037838 138.8745,41.5345946 138.8745,46.5097297" id="Fill-107" fill="#505050" transform="translate(129.876480, 46.510270) scale(-1, 1) translate(-129.876480, -46.510270) "></path>
                    <path d="M44.83188,46.5097297 C44.83188,53.9118919 38.83896,59.9108108 31.44366,59.9108108 C24.05106,59.9108108 18.05922,53.9118919 18.05922,46.5097297 C18.05922,39.1091892 24.05106,33.1102703 31.44366,33.1102703 C38.83896,33.1102703 44.83188,39.1091892 44.83188,46.5097297" id="Fill-109" fill="#2B2B2B" transform="translate(31.445550, 46.510541) scale(-1, 1) translate(-31.445550, -46.510541) "></path>
                    <path d="M40.44384,46.5097297 C40.44384,51.4843243 36.41328,55.5167568 31.4442,55.5167568 C26.47458,55.5167568 22.4478,51.4843243 22.4478,46.5097297 C22.4478,41.5345946 26.47458,37.5037838 31.4442,37.5037838 C36.41328,37.5037838 40.44384,41.5345946 40.44384,46.5097297" id="Fill-110" fill="#505050" transform="translate(31.445820, 46.510270) scale(-1, 1) translate(-31.445820, -46.510270) "></path>
                    <path d="M20.6415,20 L109.8441,20 C109.8441,20 100.61604,4.45189189 84.38256,4.45189189 C84.38256,4.45189189 54.8316,4.15135135 44.0316,4.15135135 C39.1608,4.15135135 30.21084,7.02702703 20.6415,20" id="Fill-112" fill="#505050" transform="translate(65.242800, 12.075676) scale(-1, 1) translate(-65.242800, -12.075676) "></path>
                    <polygon id="Fill-113" fill="#2B2B2B" transform="translate(68.580000, 12.972973) scale(-1, 1) translate(-68.580000, -12.972973) " points="66.42 22.1621622 70.74 22.1621622 70.74 3.78378378 66.42 3.78378378"></polygon>
                    <path d="M82.08,26.5962162 C82.08,27.7297297 81.162,28.6486486 80.02908,28.6486486 L72.79092,28.6486486 C71.658,28.6486486 70.74,27.7297297 70.74,26.5962162 L70.74,26.3767568 C70.74,25.2432432 71.658,24.3243243 72.79092,24.3243243 L80.02908,24.3243243 C81.162,24.3243243 82.08,25.2432432 82.08,26.3767568 L82.08,26.5962162" id="Fill-114" fill="#202020" transform="translate(76.410000, 26.486486) scale(-1, 1) translate(-76.410000, -26.486486) "></path>
                    <path d="M66.42,26.5962162 C66.42,27.7297297 65.502,28.6486486 64.36908,28.6486486 L57.13092,28.6486486 C55.998,28.6486486 55.08,27.7297297 55.08,26.5962162 L55.08,26.3767568 C55.08,25.2432432 55.998,24.3243243 57.13092,24.3243243 L64.36908,24.3243243 C65.502,24.3243243 66.42,25.2432432 66.42,26.3767568 L66.42,26.5962162" id="Fill-115" fill="#202020" transform="translate(60.750000, 26.486486) scale(-1, 1) translate(-60.750000, -26.486486) "></path>
                </g>
                <g id="Group-6" transform="translate(1595.000000, 210.000000)">
                    <path d="M158.230637,33.4725664 C156.803877,34.0502655 155.768787,35.4716814 155.844577,37.099646 L155.864187,37.5254867 C155.942627,39.1874336 157.079477,40.5292035 158.602167,40.940708 C158.364197,38.4907965 158.250247,35.859823 158.230637,33.4725664" id="Fill-132" fill="#505050" transform="translate(157.221419, 37.206637) scale(-1, 1) translate(-157.221419, -37.206637) "></path>
                    <path d="M85.0088789,1.14955752 C96.2909889,3.26442478 115.045569,19.9067257 115.045569,19.9067257 C152.092039,19.9067257 155.669539,30.7964602 156.587499,35.5752212 L156.462419,35.5752212 L156.462419,47.7876106 L2.52020889,47.7876106 C2.52020889,47.7876106 -1.04669111,32.7504425 2.52020889,30.0918584 C51.5346089,-6.43752212 79.6897989,0.152920354 85.0088789,1.14955752" id="Fill-133" fill="#2B2B2B" transform="translate(78.761209, 23.922527) scale(-1, 1) translate(-78.761209, -23.922527) "></path>
                    <path d="M157.41,44.4350442 C157.41,43.6741593 156.86092,43.0088496 156.34682,43.0088496 L0.79818,43.0088496 C0.28408,43.0088496 0,43.6741593 0,44.4350442 L0,46.4580531 C0,47.2189381 0.28408,47.7876106 0.79818,47.7876106 L156.34682,47.7876106 C156.86092,47.7876106 157.41,47.2189381 157.41,46.4580531 L157.41,44.4350442" id="Fill-134" fill="#101010" transform="translate(78.705000, 45.398230) scale(-1, 1) translate(-78.705000, -45.398230) "></path>
                    <path d="M132.13854,20.1769912 L48.75258,20.1769912 C48.75258,20.1769912 73.29688,1.81964602 103.38975,3.50336283 C103.38975,3.50336283 115.99739,3.18584071 132.13854,20.1769912" id="Fill-135" fill="#5C5E5E" transform="translate(90.445560, 11.785615) scale(-1, 1) translate(-90.445560, -11.785615) "></path>
                    <polygon id="Fill-136" fill="#2B2B2B" transform="translate(90.365000, 12.212389) scale(-1, 1) translate(-90.365000, -12.212389) " points="87.98 21.2389381 92.75 21.2389381 92.75 3.18584071 87.98 3.18584071"></polygon>
                    <path d="M43.70433,47.7876106 C43.70433,39.2920354 37.35546,33.5814159 29.52365,33.5814159 C21.68972,33.5814159 15.34191,39.2920354 15.34191,47.7876106 L43.70433,47.7876106" id="Fill-137" fill="#101010" transform="translate(29.523120, 40.684513) scale(-1, 1) translate(-29.523120, -40.684513) "></path>
                    <path d="M18.32528,48.7115044 C18.32528,54.860177 23.30039,59.8423009 29.43779,59.8423009 C35.57413,59.8423009 40.54606,54.860177 40.54606,48.7115044 C40.54606,42.5638938 35.57413,37.5812389 29.43779,37.5812389 C23.30039,37.5812389 18.32528,42.5638938 18.32528,48.7115044" id="Fill-138" fill="#2B2B2B" transform="translate(29.435670, 48.711770) scale(-1, 1) translate(-29.435670, -48.711770) "></path>
                    <path d="M21.96797,48.7115044 C21.96797,52.8424779 25.31174,56.1923894 29.43673,56.1923894 C33.5596,56.1923894 36.90231,52.8424779 36.90231,48.7115044 C36.90231,44.5784071 33.5596,41.2306195 29.43673,41.2306195 C25.31174,41.2306195 21.96797,44.5784071 21.96797,48.7115044" id="Fill-139" fill="#505050" transform="translate(29.435140, 48.711504) scale(-1, 1) translate(-29.435140, -48.711504) "></path>
                    <path d="M145.32017,47.7876106 C145.32017,39.2920354 138.97183,33.5814159 131.13949,33.5814159 C123.30662,33.5814159 116.95934,39.2920354 116.95934,47.7876106 L145.32017,47.7876106" id="Fill-140" fill="#101010" transform="translate(131.139755, 40.684513) scale(-1, 1) translate(-131.139755, -40.684513) "></path>
                    <path d="M119.94271,48.7115044 C119.94271,54.860177 124.91729,59.8423009 131.05469,59.8423009 C137.19156,59.8423009 142.16296,54.860177 142.16296,48.7115044 C142.16296,42.5638938 137.19156,37.5812389 131.05469,37.5812389 C124.91729,37.5812389 119.94271,42.5638938 119.94271,48.7115044" id="Fill-141" fill="#2B2B2B" transform="translate(131.052835, 48.711770) scale(-1, 1) translate(-131.052835, -48.711770) "></path>
                    <path d="M123.5854,48.7115044 C123.5854,52.8424779 126.92864,56.1923894 131.05363,56.1923894 C135.17703,56.1923894 138.51921,52.8424779 138.51921,48.7115044 C138.51921,44.5784071 135.17703,41.2306195 131.05363,41.2306195 C126.92864,41.2306195 123.5854,44.5784071 123.5854,48.7115044" id="Fill-142" fill="#505050" transform="translate(131.052305, 48.711504) scale(-1, 1) translate(-131.052305, -48.711504) "></path>
                    <path d="M87.98,26.8826549 C87.98,25.9688496 87.37315,24.9557522 86.46155,24.9557522 L77.57239,24.9557522 C76.66185,24.9557522 75.79,25.9688496 75.79,26.8826549 L75.79,27.2904425 C75.79,28.2042478 76.66185,28.6725664 77.57239,28.6725664 L86.46155,28.6725664 C87.37315,28.6725664 87.98,28.2042478 87.98,27.2904425 L87.98,26.8826549" id="Fill-143" fill="#202020" transform="translate(81.885000, 26.814159) scale(-1, 1) translate(-81.885000, -26.814159) "></path>
                    <path d="M1.70982965,31.280177 C2.24724965,30.5925664 2.93200965,30.2161062 3.88865965,30.1237168 C5.61115965,32.3155752 6.45385965,34.4553982 6.45385965,36.0509735 L6.45385965,39.6870796 C5.39385965,39.4067257 4.73453965,38.9421239 3.86056965,38.2571681 C1.20950965,36.1784071 0.322819652,33.0552212 1.70982965,31.280177" id="Fill-144" fill="#505050" transform="translate(3.756930, 34.905398) scale(-1, 1) translate(-3.756930, -34.905398) "></path>
                </g>
            </g>
        </g>
    </g>
</svg>