<?xml version="1.0" encoding="UTF-8" standalone="no"?>
<svg width="1260px" height="200px" viewBox="0 0 1260 200" version="1.1" xmlns="http://www.w3.org/2000/svg" xmlns:xlink="http://www.w3.org/1999/xlink">
    <!-- Generator: Sketch 39.1 (31720) - http://www.bohemiancoding.com/sketch -->
    <title>city_bg</title>
    <desc>Created with Sketch.</desc>
    <defs></defs>
    <g id="Page-1" stroke="none" stroke-width="1" fill="none" fill-rule="evenodd" opacity="0.100000001">
        <path d="M163,150 L163,70.4336184 C129.422683,31.5906262 72.4633608,22.9520186 28.8235196,50.0840441 L28.8235196,34.6482434 C30.0133108,33.9632508 30.5933836,32.5667732 30.2378045,31.2434692 C29.8822253,29.9201651 28.6796575,29 27.3058051,29 C25.9319526,29 24.7293848,29.9201651 24.3738057,31.2434692 C24.0182265,32.5667732 24.5982993,33.9632508 25.7880905,34.6482434 L25.7880905,52.0495536 C18.075987,57.2212522 11.0856931,63.3899393 5,70.3943082 L5,150 L0,150 L0,200 L1260,200 L1260,150 L1255,150 L1255,41.3076159 L1233.69156,41.3076159 L1204.09509,18.9449766 L1204.09509,41.3076159 L1191.9098,41.3076159 L1191.9098,16.2462558 C1193.04184,15.7235665 1193.7816,14.6051069 1193.82047,13.3574842 C1193.55096,11.4444336 1191.91593,10.02201 1189.98647,10.02201 C1188.05701,10.02201 1186.42198,11.4444336 1186.15247,13.3574842 C1186.19367,14.6080053 1186.93882,15.7272063 1188.0758,16.2462558 L1188.0758,41.3076159 L1177.1432,41.3076159 L1177.1432,6.22424573 C1178.27524,5.70155641 1179.015,4.58309688 1179.05387,3.33547419 C1178.78436,1.42242356 1177.14933,4.50130622e-15 1175.21987,0 C1173.29041,-4.50130622e-15 1171.65538,1.42242356 1171.38587,3.33547419 C1171.4241,4.58694622 1172.17021,5.7075719 1173.3092,6.22424573 L1173.3092,41.3076159 L1154,41.3076159 L1154,150 L1144,150 L1144,125.669223 L1144,111.712321 L1144,87.2711737 L1144,73.301017 L1117.19519,73.301017 L1079.99263,41 L1079.99263,73.301017 L1017,73.301017 L1017,87.2711737 L1017,111.712321 L1017,125.669223 L1017,150 L1005.13689,150 L1005.13689,135.839766 L1007,135.839766 L1007,129.906904 L1005.13689,129.906904 L826.863109,54 L826.863109,129.906904 L825,129.906904 L825,135.839766 L826.863109,135.839766 L826.863109,150 L808.84549,150 L808.84549,58.1473464 L815,58.1473464 L815,48.0555348 L808.84549,48.0555348 L808.84549,47.2344555 L748.507451,0 L688.169412,47.2344555 L688.169412,48.0555348 L682,48.0555348 L682,58.1473464 L688.169412,58.1473464 L688.169412,150 L672,150 L672,66.3140826 L664.476046,66.3140826 L616.004996,40 L567.533946,66.3140826 L560,66.3140826 L560,150 L547.451021,150 L547.451021,112.109269 L550,112.109269 L550,103.98206 L547.451021,103.98206 L547.451021,0 L303.548979,103.98206 L301,103.98206 L301,112.109269 L303.548979,112.109269 L303.548979,150 L291,150 L291,131.624917 L291,118.7863 L291,77.5637331 L291,64.7251164 L266.097323,64.7251164 L231.522515,35 L231.522515,64.7251164 L173,64.7251164 L173,77.5637331 L173,118.7863 L173,131.624917 L173,150 L163,150 Z" id="city_bg" fill="#000000"></path>
    </g>
</svg>