<?xml version="1.0" encoding="UTF-8" standalone="no"?>
<svg width="158px" height="46px" viewBox="0 0 158 46" version="1.1" xmlns="http://www.w3.org/2000/svg" xmlns:xlink="http://www.w3.org/1999/xlink">
    <!-- Generator: Sketch 39.1 (31720) - http://www.bohemiancoding.com/sketch -->
    <title>download_app_store</title>
    <desc>Created with Sketch.</desc>
    <defs></defs>
    <g id="Page-1" stroke="none" stroke-width="1" fill="none" fill-rule="evenodd">
        <g id="Artboard" transform="translate(-249.000000, -15.000000)">
            <g id="download_app_store" transform="translate(249.000000, 15.000000)">
                <g id="app_store">
                    <path d="M157.852741,41.3216 C157.852741,43.8608 155.821333,45.9176 153.308741,45.9176 L4.60474074,45.9176 C2.09333333,45.9176 0.0548148148,43.8608 0.0548148148,41.3216 L0.0548148148,4.67 C0.0548148148,2.132 2.09333333,0.068 4.60474074,0.068 L153.307556,0.068 C155.821333,0.068 157.851556,2.132 157.851556,4.67 L157.852741,41.3216 L157.852741,41.3216 L157.852741,41.3216 Z" id="Shape" fill="#000000"></path>
                    <g id="Group" transform="translate(13.222222, 6.200000)" fill="#FFFFFF">
                        <path d="M21.485037,16.5408 C21.4506667,12.6732 24.6127407,10.7916 24.7573333,10.704 C22.9665185,8.0604 20.1908148,7.6992 19.2154074,7.6704 C16.8841481,7.422 14.6228148,9.0828 13.4352593,9.0828 C12.224,9.0828 10.3952593,7.6944 8.4242963,7.7352 C5.888,7.7748 3.51525926,9.2616 2.21392593,11.5704 C-0.471703704,16.278 1.53125926,23.196 4.1042963,27.0012 C5.39140741,28.8648 6.89540741,30.9456 8.864,30.8724 C10.7899259,30.792 11.5093333,29.6292 13.8334815,29.6292 C16.1362963,29.6292 16.8118519,30.8724 18.8195556,30.8256 C20.8865185,30.792 22.1878519,28.9536 23.4299259,27.0732 C24.9173333,24.9372 25.5146667,22.8336 25.5383704,22.7256 C25.4897778,22.7088 21.5241481,21.1764 21.485037,16.5408 L21.485037,16.5408 Z" id="Shape"></path>
                        <path d="M17.6924444,5.1672 C18.7282963,3.8556 19.437037,2.0712 19.2402963,0.2604 C17.741037,0.3276 15.8660741,1.3104 14.7863704,2.5932 C13.8311111,3.7236 12.9777778,5.5764 13.1982222,7.3188 C14.8823704,7.446 16.6115556,6.4584 17.6924444,5.1672 L17.6924444,5.1672 Z" id="Shape"></path>
                    </g>
                    <g id="Group" transform="translate(48.777778, 20.600000)" fill="#FFFFFF">
                        <path d="M13.8014815,16.2048 L11.1099259,16.2048 L9.63555556,11.514 L4.51081481,11.514 L3.10637037,16.2048 L0.485925926,16.2048 L5.56325926,0.2352 L8.69925926,0.2352 L13.8014815,16.2048 L13.8014815,16.2048 Z M9.19111111,9.546 L7.85777778,5.376 C7.71674074,4.95 7.45244444,3.9468 7.06251852,2.3676 L7.01511111,2.3676 C6.85985185,3.0468 6.60977778,4.05 6.26607407,5.376 L4.95644444,9.546 L9.19111111,9.546 L9.19111111,9.546 Z" id="Shape"></path>
                        <path d="M26.8586667,10.3056 C26.8586667,12.264 26.336,13.812 25.2906667,14.9484 C24.3543704,15.96 23.1917037,16.4652 21.8038519,16.4652 C20.3057778,16.4652 19.2296296,15.9204 18.5742222,14.8308 L18.5268148,14.8308 L18.5268148,20.8968 L16,20.8968 L16,8.4804 C16,7.2492 15.968,5.9856 15.9063704,4.6896 L18.1285926,4.6896 L18.2696296,6.5148 L18.317037,6.5148 C19.1597037,5.1396 20.4385185,4.4532 22.1546667,4.4532 C23.4962963,4.4532 24.6162963,4.9896 25.5122963,6.0636 C26.4106667,7.1388 26.8586667,8.5524 26.8586667,10.3056 L26.8586667,10.3056 Z M24.2844444,10.3992 C24.2844444,9.2784 24.0355556,8.3544 23.5354074,7.6272 C22.989037,6.8688 22.2554074,6.4896 21.3357037,6.4896 C20.7122963,6.4896 20.1457778,6.7008 19.6397037,7.1172 C19.1324444,7.5372 18.8005926,8.0856 18.6453333,8.7648 C18.5671111,9.0816 18.528,9.3408 18.528,9.5448 L18.528,11.4648 C18.528,12.3024 18.7816296,13.0092 19.2888889,13.5864 C19.7961481,14.1636 20.4551111,14.4516 21.2657778,14.4516 C22.2174815,14.4516 22.9582222,14.0796 23.488,13.338 C24.018963,12.5952 24.2844444,11.616 24.2844444,10.3992 L24.2844444,10.3992 Z" id="Shape"></path>
                        <path d="M39.9395556,10.3056 C39.9395556,12.264 39.4168889,13.812 38.3703704,14.9484 C37.4352593,15.96 36.2725926,16.4652 34.8847407,16.4652 C33.3866667,16.4652 32.3105185,15.9204 31.6562963,14.8308 L31.6088889,14.8308 L31.6088889,20.8968 L29.0820741,20.8968 L29.0820741,8.4804 C29.0820741,7.2492 29.0500741,5.9856 28.9884444,4.6896 L31.2106667,4.6896 L31.3517037,6.5148 L31.3991111,6.5148 C32.2405926,5.1396 33.5194074,4.4532 35.2367407,4.4532 C36.5771852,4.4532 37.6971852,4.9896 38.5955556,6.0636 C39.4903704,7.1388 39.9395556,8.5524 39.9395556,10.3056 L39.9395556,10.3056 Z M37.3653333,10.3992 C37.3653333,9.2784 37.1152593,8.3544 36.6151111,7.6272 C36.0687407,6.8688 35.3374815,6.4896 34.4165926,6.4896 C33.792,6.4896 33.2266667,6.7008 32.7194074,7.1172 C32.2121481,7.5372 31.8814815,8.0856 31.7262222,8.7648 C31.6491852,9.0816 31.6088889,9.3408 31.6088889,9.5448 L31.6088889,11.4648 C31.6088889,12.3024 31.8625185,13.0092 32.3674074,13.5864 C32.8746667,14.1624 33.5336296,14.4516 34.3466667,14.4516 C35.2983704,14.4516 36.0391111,14.0796 36.5688889,13.338 C37.0998519,12.5952 37.3653333,11.616 37.3653333,10.3992 L37.3653333,10.3992 Z" id="Shape"></path>
                        <path d="M54.5647407,11.7264 C54.5647407,13.0848 54.098963,14.19 53.1638519,15.0432 C52.1362963,15.9756 50.7057778,16.4412 48.8675556,16.4412 C47.1703704,16.4412 45.8097778,16.11 44.7798519,15.4464 L45.3653333,13.314 C46.4746667,13.9932 47.6918519,14.334 49.0180741,14.334 C49.9697778,14.334 50.7105185,14.1156 51.2426667,13.6812 C51.7724444,13.2468 52.0367407,12.6636 52.0367407,11.9364 C52.0367407,11.2884 51.8186667,10.7424 51.3813333,10.2996 C50.9463704,9.8568 50.2198519,9.4452 49.2053333,9.0648 C46.4438519,8.022 45.0642963,6.4944 45.0642963,4.4856 C45.0642963,3.1728 45.5478519,2.0964 46.5161481,1.2588 C47.4808889,0.42 48.768,0.0012 50.3774815,0.0012 C51.8127407,0.0012 53.005037,0.2544 53.9567407,0.7596 L53.325037,2.8452 C52.4361481,2.3556 51.4311111,2.1108 50.3063704,2.1108 C49.4174815,2.1108 48.722963,2.3328 48.2251852,2.7744 C47.8044444,3.1692 47.5934815,3.6504 47.5934815,4.2204 C47.5934815,4.8516 47.8340741,5.3736 48.3176296,5.784 C48.7383704,6.1632 49.5028148,6.5736 50.6121481,7.0164 C51.9691852,7.5696 52.9659259,8.2164 53.6071111,8.958 C54.2459259,9.6972 54.5647407,10.6224 54.5647407,11.7264 L54.5647407,11.7264 Z" id="Shape"></path>
                        <path d="M62.9191111,6.6096 L60.1339259,6.6096 L60.1339259,12.2004 C60.1339259,13.6224 60.6245926,14.3328 61.6082963,14.3328 C62.0598519,14.3328 62.4343704,14.2932 62.7306667,14.214 L62.8005926,16.1568 C62.3028148,16.3452 61.6474074,16.44 60.8355556,16.44 C59.8376296,16.44 59.0577778,16.1316 58.4948148,15.516 C57.9342222,14.8992 57.6521481,13.8648 57.6521481,12.4116 L57.6521481,6.6072 L55.9928889,6.6072 L55.9928889,4.6872 L57.6521481,4.6872 L57.6521481,2.5788 L60.1339259,1.8204 L60.1339259,4.6872 L62.9191111,4.6872 L62.9191111,6.6096 L62.9191111,6.6096 Z" id="Shape"></path>
                        <path d="M75.4856296,10.3524 C75.4856296,12.1224 74.9854815,13.5756 73.9875556,14.712 C72.941037,15.882 71.552,16.4652 69.8204444,16.4652 C68.1517037,16.4652 66.8231111,15.9048 65.8322963,14.784 C64.8414815,13.6632 64.3460741,12.2484 64.3460741,10.5432 C64.3460741,8.7588 64.8557037,7.2972 65.8785185,6.1608 C66.898963,5.0232 68.2761481,4.4544 70.0077037,4.4544 C71.6764444,4.4544 73.0192593,5.0148 74.0325926,6.1368 C75.0020741,7.2252 75.4856296,8.6304 75.4856296,10.3524 L75.4856296,10.3524 Z M72.864,10.4352 C72.864,9.3732 72.64,8.4624 72.1860741,7.7028 C71.6562963,6.7836 70.898963,6.3252 69.9176296,6.3252 C68.9019259,6.3252 68.1303704,6.7848 67.6005926,7.7028 C67.1466667,8.4636 66.9226667,9.3888 66.9226667,10.4832 C66.9226667,11.5452 67.1466667,12.456 67.6005926,13.2144 C68.146963,14.1336 68.9102222,14.592 69.8951111,14.592 C70.8598519,14.592 71.6171852,14.124 72.1635556,13.1904 C72.6293333,12.4164 72.864,11.496 72.864,10.4352 L72.864,10.4352 Z" id="Shape"></path>
                        <path d="M83.698963,6.9396 C83.4488889,6.8928 83.1822222,6.8688 82.9025185,6.8688 C82.0136296,6.8688 81.3262222,7.2084 80.8426667,7.8888 C80.4219259,8.4888 80.210963,9.2472 80.210963,10.1628 L80.210963,16.2048 L77.6853333,16.2048 L77.709037,8.316 C77.709037,6.9888 77.677037,5.7804 77.6142222,4.6908 L79.8151111,4.6908 L79.9075556,6.894 L79.9774815,6.894 C80.2441481,6.1368 80.6648889,5.5272 81.2408889,5.07 C81.8038519,4.6584 82.4118519,4.4532 83.0672593,4.4532 C83.3007407,4.4532 83.5117037,4.47 83.698963,4.5 L83.698963,6.9396 L83.698963,6.9396 Z" id="Shape"></path>
                        <path d="M94.9997037,9.9024 C94.9997037,10.3608 94.9700741,10.7472 94.9072593,11.0628 L87.3268148,11.0628 C87.3564444,12.2004 87.7226667,13.0704 88.4266667,13.6704 C89.0654815,14.2068 89.8915556,14.4756 90.9060741,14.4756 C92.0284444,14.4756 93.0524444,14.2944 93.9733333,13.9308 L94.3691852,15.7068 C93.293037,16.182 92.0225185,16.4184 90.5564444,16.4184 C88.7928889,16.4184 87.4085926,15.8928 86.4011852,14.8428 C85.3961481,13.7928 84.8924444,12.3828 84.8924444,10.614 C84.8924444,8.8776 85.3605926,7.4316 86.2980741,6.2784 C87.2794074,5.0472 88.6056296,4.4316 90.2743704,4.4316 C91.9134815,4.4316 93.1543704,5.0472 93.997037,6.2784 C94.6642963,7.2564 94.9997037,8.466 94.9997037,9.9024 L94.9997037,9.9024 Z M92.5902222,9.2388 C92.6068148,8.4804 92.4420741,7.8252 92.0995556,7.272 C91.6622222,6.5604 90.9902222,6.2052 90.0859259,6.2052 C89.2598519,6.2052 88.5878519,6.552 88.0746667,7.248 C87.6539259,7.8012 87.4038519,8.4648 87.3268148,9.2376 L92.5902222,9.2376 L92.5902222,9.2388 Z" id="Shape"></path>
                    </g>
                    <g id="Group" transform="translate(49.962963, 6.200000)" fill="#FFFFFF">
                        <path d="M7.17037037,4.8108 C7.17037037,6.2232 6.752,7.2864 5.91644444,8.0004 C5.14251852,8.6592 4.04266667,8.9892 2.61807407,8.9892 C1.9117037,8.9892 1.30725926,8.958 0.801185185,8.8956 L0.801185185,1.1784 C1.46133333,1.0704 2.17244444,1.0152 2.94044444,1.0152 C4.29748148,1.0152 5.3202963,1.314 6.01007407,1.9116 C6.78281481,2.5872 7.17037037,3.5532 7.17037037,4.8108 L7.17037037,4.8108 Z M5.86074074,4.8456 C5.86074074,3.93 5.62133333,3.228 5.14251852,2.7384 C4.6637037,2.25 3.96444444,2.0052 3.04355556,2.0052 C2.65244444,2.0052 2.31940741,2.0316 2.04325926,2.0868 L2.04325926,7.9536 C2.19614815,7.9776 2.47585185,7.9884 2.88237037,7.9884 C3.83288889,7.9884 4.56651852,7.7208 5.08325926,7.1856 C5.6,6.6504 5.86074074,5.8704 5.86074074,4.8456 L5.86074074,4.8456 Z" id="Shape"></path>
                        <path d="M14.1143704,6.0444 C14.1143704,6.9144 13.869037,7.6272 13.3783704,8.1864 C12.864,8.7612 12.1825185,9.048 11.3315556,9.048 C10.5114074,9.048 9.85837037,8.7732 9.37125926,8.2212 C8.88533333,7.6704 8.64237037,6.9756 8.64237037,6.138 C8.64237037,5.262 8.89244444,4.5432 9.39496296,3.9852 C9.89748148,3.4272 10.573037,3.1476 11.424,3.1476 C12.2441481,3.1476 12.9031111,3.4224 13.4020741,3.9732 C13.8761481,4.5084 14.1143704,5.1996 14.1143704,6.0444 L14.1143704,6.0444 Z M12.8260741,6.0852 C12.8260741,5.5632 12.7146667,5.1156 12.493037,4.7424 C12.2322963,4.2912 11.8613333,4.0656 11.378963,4.0656 C10.88,4.0656 10.5007407,4.2912 10.24,4.7424 C10.0171852,5.1156 9.90696296,5.5704 9.90696296,6.108 C9.90696296,6.63 10.0183704,7.0776 10.24,7.4508 C10.509037,7.902 10.8835556,8.1276 11.3671111,8.1276 C11.8411852,8.1276 12.2133333,7.8984 12.4811852,7.4388 C12.7111111,7.0584 12.8260741,6.6072 12.8260741,6.0852 L12.8260741,6.0852 Z" id="Shape"></path>
                        <path d="M23.4251852,3.2628 L21.677037,8.9196 L20.5392593,8.9196 L19.8151111,6.4632 C19.6314074,5.85 19.4820741,5.2404 19.3659259,4.6356 L19.3434074,4.6356 C19.2355556,5.2572 19.0862222,5.8656 18.8942222,6.4632 L18.125037,8.9196 L16.9742222,8.9196 L15.3303704,3.2628 L16.6068148,3.2628 L17.2385185,5.952 C17.3914074,6.588 17.517037,7.194 17.6177778,7.7676 L17.6402963,7.7676 C17.7327407,7.2948 17.8856296,6.6924 18.1013333,5.964 L18.8942222,3.264 L19.9063704,3.264 L20.6660741,5.9064 C20.8497778,6.5508 20.9991111,7.1712 21.1140741,7.7688 L21.1484444,7.7688 C21.2325926,7.1868 21.3594074,6.5664 21.5277037,5.9064 L22.2056296,3.264 L23.4251852,3.264 L23.4251852,3.2628 Z" id="Shape"></path>
                        <path d="M29.8642963,8.9196 L28.6222222,8.9196 L28.6222222,5.6796 C28.6222222,4.6812 28.2477037,4.182 27.4962963,4.182 C27.1277037,4.182 26.8302222,4.3188 26.5991111,4.5936 C26.3703704,4.8684 26.2542222,5.1924 26.2542222,5.5632 L26.2542222,8.9184 L25.0121481,8.9184 L25.0121481,4.8792 C25.0121481,4.3824 24.9967407,3.8436 24.9671111,3.2604 L26.0586667,3.2604 L26.1167407,4.1448 L26.1511111,4.1448 C26.2957037,3.87 26.5114074,3.6432 26.7946667,3.462 C27.1312593,3.2508 27.5081481,3.144 27.9205926,3.144 C28.4420741,3.144 28.8758519,3.3144 29.2207407,3.6564 C29.6497778,4.0752 29.8642963,4.7004 29.8642963,5.5308 L29.8642963,8.9196 L29.8642963,8.9196 Z" id="Shape"></path>
                        <polygon id="Shape" points="33.2894815 8.9196 32.0485926 8.9196 32.0485926 0.6672 33.2894815 0.6672"></polygon>
                        <path d="M40.6020741,6.0444 C40.6020741,6.9144 40.3567407,7.6272 39.8660741,8.1864 C39.3517037,8.7612 38.669037,9.048 37.8192593,9.048 C36.9979259,9.048 36.3448889,8.7732 35.858963,8.2212 C35.373037,7.6704 35.1300741,6.9756 35.1300741,6.138 C35.1300741,5.262 35.3801481,4.5432 35.8826667,3.9852 C36.3851852,3.4272 37.0607407,3.1476 37.9105185,3.1476 C38.7318519,3.1476 39.3896296,3.4224 39.8897778,3.9732 C40.3638519,4.5084 40.6020741,5.1996 40.6020741,6.0444 L40.6020741,6.0444 Z M39.3125926,6.0852 C39.3125926,5.5632 39.2011852,5.1156 38.9795556,4.7424 C38.72,4.2912 38.3478519,4.0656 37.8666667,4.0656 C37.3665185,4.0656 36.9872593,4.2912 36.7277037,4.7424 C36.5048889,5.1156 36.3946667,5.5704 36.3946667,6.108 C36.3946667,6.63 36.5060741,7.0776 36.7277037,7.4508 C36.9967407,7.902 37.3712593,8.1276 37.8548148,8.1276 C38.3288889,8.1276 38.6998519,7.8984 38.9677037,7.4388 C39.1988148,7.0584 39.3125926,6.6072 39.3125926,6.0852 L39.3125926,6.0852 Z" id="Shape"></path>
                        <path d="M46.6133333,8.9196 L45.4980741,8.9196 L45.4056296,8.268 L45.3712593,8.268 C44.9896296,8.7876 44.4456296,9.048 43.7392593,9.048 C43.2118519,9.048 42.7851852,8.8764 42.464,8.5356 C42.1724444,8.226 42.0266667,7.8408 42.0266667,7.3836 C42.0266667,6.6924 42.3111111,6.1656 42.8835556,5.8008 C43.4548148,5.436 44.2583704,5.2572 45.293037,5.2656 L45.293037,5.16 C45.293037,4.4148 44.9066667,4.0428 44.1327407,4.0428 C43.5816296,4.0428 43.0957037,4.1832 42.6761481,4.4616 L42.4237037,3.636 C42.9428148,3.3108 43.584,3.1476 44.3401481,3.1476 C45.8002963,3.1476 46.5327407,3.9276 46.5327407,5.4876 L46.5327407,7.5708 C46.5327407,8.136 46.56,8.586 46.6133333,8.9196 L46.6133333,8.9196 Z M45.3238519,6.9756 L45.3238519,6.1032 C43.9537778,6.0792 43.2687407,6.4596 43.2687407,7.2432 C43.2687407,7.5384 43.346963,7.7592 43.506963,7.9068 C43.666963,8.0544 43.8708148,8.1276 44.1137778,8.1276 C44.3863704,8.1276 44.6411852,8.04 44.8734815,7.866 C45.106963,7.6908 45.2503704,7.4688 45.3037037,7.1964 C45.3167407,7.1352 45.3238519,7.0608 45.3238519,6.9756 L45.3238519,6.9756 Z" id="Shape"></path>
                        <path d="M53.6711111,8.9196 L52.5688889,8.9196 L52.5108148,8.0112 L52.4764444,8.0112 C52.1244444,8.7024 51.5247407,9.048 50.6820741,9.048 C50.0088889,9.048 49.4482963,8.7804 49.0038519,8.2452 C48.5594074,7.71 48.3377778,7.0152 48.3377778,6.162 C48.3377778,5.2464 48.5783704,4.5048 49.0619259,3.9384 C49.5300741,3.4104 50.1037037,3.1464 50.7863704,3.1464 C51.5365926,3.1464 52.0616296,3.402 52.3602963,3.9144 L52.384,3.9144 L52.384,0.6672 L53.6272593,0.6672 L53.6272593,7.3956 C53.6272593,7.9464 53.6414815,8.454 53.6711111,8.9196 L53.6711111,8.9196 Z M52.384,6.534 L52.384,5.5908 C52.384,5.4276 52.3721481,5.2956 52.3496296,5.1948 C52.2797037,4.8924 52.1291852,4.638 51.9004444,4.4328 C51.6693333,4.2276 51.3908148,4.1244 51.0696296,4.1244 C50.6062222,4.1244 50.2435556,4.3104 49.9768889,4.6836 C49.7125926,5.0568 49.5786667,5.5332 49.5786667,6.1152 C49.5786667,6.6744 49.7054815,7.128 49.9602963,7.4772 C50.2293333,7.8492 50.592,8.0352 51.0459259,8.0352 C51.4536296,8.0352 51.7795556,7.8804 52.0272593,7.5696 C52.2666667,7.2828 52.384,6.9372 52.384,6.534 L52.384,6.534 Z" id="Shape"></path>
                        <path d="M64.2939259,6.0444 C64.2939259,6.9144 64.0485926,7.6272 63.5579259,8.1864 C63.0435556,8.7612 62.3632593,9.048 61.5111111,9.048 C60.6921481,9.048 60.0391111,8.7732 59.5508148,8.2212 C59.0648889,7.6704 58.8219259,6.9756 58.8219259,6.138 C58.8219259,5.262 59.072,4.5432 59.5745185,3.9852 C60.077037,3.4272 60.7525926,3.1476 61.6047407,3.1476 C62.4237037,3.1476 63.0838519,3.4224 63.5816296,3.9732 C64.0557037,4.5084 64.2939259,5.1996 64.2939259,6.0444 L64.2939259,6.0444 Z M63.0068148,6.0852 C63.0068148,5.5632 62.8954074,5.1156 62.6737778,4.7424 C62.4118519,4.2912 62.0420741,4.0656 61.5585185,4.0656 C61.0607407,4.0656 60.6814815,4.2912 60.4195556,4.7424 C60.1967407,5.1156 60.0865185,5.5704 60.0865185,6.108 C60.0865185,6.63 60.1979259,7.0776 60.4195556,7.4508 C60.6885926,7.902 61.0631111,8.1276 61.5466667,8.1276 C62.0207407,8.1276 62.3940741,7.8984 62.6619259,7.4388 C62.8906667,7.0584 63.0068148,6.6072 63.0068148,6.0852 L63.0068148,6.0852 Z" id="Shape"></path>
                        <path d="M70.9724444,8.9196 L69.7315556,8.9196 L69.7315556,5.6796 C69.7315556,4.6812 69.357037,4.182 68.6044444,4.182 C68.2358519,4.182 67.9383704,4.3188 67.7084444,4.5936 C67.4785185,4.8684 67.3635556,5.1924 67.3635556,5.5632 L67.3635556,8.9184 L66.1202963,8.9184 L66.1202963,4.8792 C66.1202963,4.3824 66.1060741,3.8436 66.0764444,3.2604 L67.1668148,3.2604 L67.2248889,4.1448 L67.2592593,4.1448 C67.405037,3.87 67.6207407,3.6432 67.9028148,3.462 C68.2405926,3.2508 68.6162963,3.144 69.0299259,3.144 C69.5502222,3.144 69.984,3.3144 70.3288889,3.6564 C70.7591111,4.0752 70.9724444,4.7004 70.9724444,5.5308 L70.9724444,8.9196 L70.9724444,8.9196 Z" id="Shape"></path>
                        <path d="M79.3315556,4.2048 L77.9638519,4.2048 L77.9638519,6.9528 C77.9638519,7.6512 78.2068148,8.0004 78.688,8.0004 C78.9108148,8.0004 79.0957037,7.9812 79.2414815,7.9416 L79.2734815,8.8956 C79.0281481,8.9892 78.7057778,9.036 78.3087407,9.036 C77.8180741,9.036 77.4364444,8.8848 77.1602963,8.5824 C76.882963,8.28 76.7454815,7.7712 76.7454815,7.0572 L76.7454815,4.2048 L75.9288889,4.2048 L75.9288889,3.2628 L76.7454815,3.2628 L76.7454815,2.226 L77.9626667,1.854 L77.9626667,3.2616 L79.3303704,3.2616 L79.3303704,4.2048 L79.3315556,4.2048 Z" id="Shape"></path>
                        <path d="M85.906963,8.9196 L84.6637037,8.9196 L84.6637037,5.7036 C84.6637037,4.6896 84.2891852,4.182 83.538963,4.182 C82.962963,4.182 82.5694815,4.476 82.3537778,5.064 C82.317037,5.1876 82.2957037,5.3388 82.2957037,5.5164 L82.2957037,8.9184 L81.0548148,8.9184 L81.0548148,0.6672 L82.2957037,0.6672 L82.2957037,4.0764 L82.3194074,4.0764 C82.7105185,3.456 83.2711111,3.1464 83.9976296,3.1464 C84.512,3.1464 84.9374815,3.3168 85.2752593,3.6588 C85.696,4.0848 85.906963,4.7184 85.906963,5.556 L85.906963,8.9196 L85.906963,8.9196 Z" id="Shape"></path>
                        <path d="M92.6897778,5.8236 C92.6897778,6.0492 92.6731852,6.2388 92.6435556,6.3936 L88.9185185,6.3936 C88.9351111,6.9528 89.1128889,7.3788 89.4577778,7.674 C89.773037,7.938 90.1795556,8.07 90.6773333,8.07 C91.2284444,8.07 91.730963,7.9812 92.1837037,7.8024 L92.3780741,8.676 C91.8482963,8.9088 91.2248889,9.0252 90.5031111,9.0252 C89.6379259,9.0252 88.9564444,8.7672 88.4634074,8.2512 C87.968,7.7352 87.7226667,7.0428 87.7226667,6.174 C87.7226667,5.3208 87.9514074,4.6104 88.4124444,4.044 C88.8936296,3.4392 89.5442963,3.1368 90.3656296,3.1368 C91.1691852,3.1368 91.7795556,3.4392 92.192,4.044 C92.525037,4.524 92.6897778,5.118 92.6897778,5.8236 L92.6897778,5.8236 Z M91.5045926,5.4984 C91.5140741,5.1252 91.4322963,4.8036 91.264,4.5324 C91.0482963,4.1832 90.72,4.008 90.2755556,4.008 C89.8702222,4.008 89.5395556,4.1784 89.2871111,4.5204 C89.0808889,4.7928 88.9588148,5.118 88.9185185,5.4984 L91.5045926,5.4984 L91.5045926,5.4984 Z" id="Shape"></path>
                    </g>
                </g>
            </g>
        </g>
    </g>
</svg>