<?xml version="1.0" encoding="UTF-8" standalone="no"?>
<svg width="220px" height="372px" viewBox="0 0 220 372" version="1.1" xmlns="http://www.w3.org/2000/svg" xmlns:xlink="http://www.w3.org/1999/xlink">
    <!-- Generator: Sketch 39.1 (31720) - http://www.bohemiancoding.com/sketch -->
    <title>Combined Shape</title>
    <desc>Created with Sketch.</desc>
    <defs></defs>
    <g id="Page-1" stroke="none" stroke-width="1" fill="none" fill-rule="evenodd" opacity="0.5">
        <g id="Home-Copy-5" transform="translate(-1325.000000, 0.000000)" fill="#000000">
            <path d="M1325,0 L1545,0 L1545,332.690299 C1545,338.213885 1541.15961,344.99587 1536.43312,347.831763 L1503.56688,367.551492 C1498.83552,370.390306 1490.58369,371.912271 1485.15639,370.954513 L1334.84361,344.428727 C1329.40713,343.469349 1325,338.217609 1325,332.690285 L1325,0 Z M1405.00668,332.647695 C1424.13838,321.602 1430.69339,297.138384 1419.6477,278.006679 C1408.602,258.874974 1384.13838,252.319968 1365.00668,263.365663 C1345.87497,274.411358 1339.31997,298.874974 1350.36566,318.006679 C1361.41136,337.138384 1385.87497,343.69339 1405.00668,332.647695 Z M1403.00668,329.183593 C1420.22521,319.242468 1426.12472,297.225213 1416.18359,280.006679 C1406.24247,262.788145 1384.22521,256.888639 1367.00668,266.829764 C1349.78814,276.77089 1343.88864,298.788145 1353.82976,316.006679 C1363.77089,333.225213 1385.78814,339.124719 1403.00668,329.183593 Z M1399.56645,311.738253 C1405.49167,305.478247 1406.88238,295.838392 1402.35235,287.992151 C1396.8295,278.426299 1384.59769,275.148796 1375.03184,280.671643 C1365.46599,286.194491 1362.18849,298.426299 1367.71133,307.992151 C1372.24136,315.838392 1381.28508,319.45393 1389.66901,317.452539 L1391.5117,320.64416 L1401.40913,314.929875 L1399.56645,311.738253 Z M1393.175,300.667937 C1393.90889,298.431936 1393.7242,295.904904 1392.45492,293.706437 C1390.08798,289.606786 1384.84578,288.202142 1380.74613,290.569076 C1376.64648,292.936011 1375.24183,298.178214 1377.60877,302.277865 C1378.87805,304.476332 1380.97418,305.899792 1383.27756,306.382223 L1381.22598,302.828781 L1391.12342,297.114495 L1393.175,300.667937 Z" id="Combined-Shape"></path>
        </g>
    </g>
</svg>