<?xml version="1.0" encoding="UTF-8" standalone="no"?>
<svg width="20px" height="20px" viewBox="0 0 20 20" version="1.1" xmlns="http://www.w3.org/2000/svg" xmlns:xlink="http://www.w3.org/1999/xlink">
    <!-- Generator: Sketch 39.1 (31720) - http://www.bohemiancoding.com/sketch -->
    <title>insta</title>
    <desc>Created with Sketch.</desc>
    <defs></defs>
    <g id="Page-1" stroke="none" stroke-width="1" fill="none" fill-rule="evenodd" opacity="0.7">
        <g id="insta" fill="#FFFFFF">
            <g id="Group-24">
                <g id="Group-5" transform="translate(2.000000, 4.000000)">
                    <path d="M12.1183432,4.24142012 C11.7844828,4.24142012 11.512426,3.96936331 11.512426,3.63550296 L11.512426,2.42366864 C11.512426,2.08980828 11.7844828,1.81775148 12.1183432,1.81775148 L13.3301775,1.81775148 C13.6640379,1.81775148 13.9360947,2.08980828 13.9360947,2.42366864 L13.9360947,3.63550296 C13.9360947,3.96936331 13.6640379,4.24142012 13.3301775,4.24142012 L12.1183432,4.24142012 L12.1183432,4.24142012 Z" id="Shape"></path>
                    <path d="M7.87692308,5.56716686 C7.43702722,5.56716686 7.03106272,5.69622722 6.68144852,5.90829822 C6.79051361,5.87436686 6.90382012,5.85194793 7.0231858,5.85194793 C7.67030533,5.85194793 8.19442367,6.37606627 8.19442367,7.02379172 C8.19442367,7.66969941 7.67030533,8.19502959 7.0231858,8.19502959 C6.37606627,8.19502959 5.85194793,7.67030533 5.85194793,7.02379172 C5.85194793,6.9032142 5.8755787,6.78990769 5.90890414,6.68144852 C5.6956213,7.03106272 5.56716686,7.43702722 5.56716686,7.87692308 C5.56716686,9.15359053 6.60025562,10.1872852 7.87752899,10.1872852 C9.15298462,10.1872852 10.1878911,9.15419645 10.1878911,7.87692308 C10.1878911,6.5996497 9.1523787,5.56716686 7.87692308,5.56716686 L7.87692308,5.56716686 Z" id="Shape"></path>
                    <path d="M7.87692308,4.24142012 C9.88432663,4.24142012 11.512426,5.86891361 11.512426,7.87692308 C11.512426,9.88493254 9.88372071,11.512426 7.87692308,11.512426 C5.86951953,11.512426 4.24142012,9.88493254 4.24142012,7.87692308 C4.24142012,5.86891361 5.86951953,4.24142012 7.87692308,4.24142012 L7.87692308,4.24142012 Z M7.87692308,3.0295858 C5.20422249,3.0295858 3.0295858,5.20422249 3.0295858,7.87692308 C3.0295858,10.5496237 5.20422249,12.7242604 7.87692308,12.7242604 C10.5496237,12.7242604 12.7242604,10.5496237 12.7242604,7.87692308 C12.7242604,5.20422249 10.5496237,3.0295858 7.87692308,3.0295858 L7.87692308,3.0295858 L7.87692308,3.0295858 Z" id="Shape"></path>
                    <path d="M12.8,0 L2.95384615,0 C1.32211124,0 0,1.32211124 0,2.95384615 L0,12.8 C0,14.4317349 1.32211124,15.7538462 2.95384615,15.7538462 L12.8,15.7538462 C14.4317349,15.7538462 15.7538462,14.4317349 15.7538462,12.8 L15.7538462,2.95384615 C15.7538462,1.32211124 14.4317349,0 12.8,0 L12.8,0 Z M14.5420118,5.45325444 L10.5811314,5.45325444 C11.1585704,6.09734438 11.512426,6.94441657 11.512426,7.87692308 C11.512426,9.88493254 9.88372071,11.512426 7.87692308,11.512426 C5.86951953,11.512426 4.24142012,9.88493254 4.24142012,7.87692308 C4.24142012,6.94441657 4.59527574,6.09673846 5.17271479,5.45325444 L1.21183432,5.45325444 L1.21183432,2.95384615 C1.21183432,1.99346746 1.99346746,1.21183432 2.95384615,1.21183432 L12.8,1.21183432 C13.7609846,1.21183432 14.5420118,1.99346746 14.5420118,2.95384615 L14.5420118,5.45325444 L14.5420118,5.45325444 Z" id="Shape"></path>
                </g>
            </g>
        </g>
    </g>
</svg>