<?xml version="1.0" encoding="UTF-8" standalone="no"?>
<svg width="398px" height="140px" viewBox="0 0 398 140" version="1.1" xmlns="http://www.w3.org/2000/svg" xmlns:xlink="http://www.w3.org/1999/xlink">
    <!-- Generator: Sketch 39.1 (31720) - http://www.bohemiancoding.com/sketch -->
    <title>layer_front</title>
    <desc>Created with Sketch.</desc>
    <defs></defs>
    <g id="Page-1" stroke="none" stroke-width="1" fill="none" fill-rule="evenodd">
        <path d="M249.355611,84.6636 L249.355611,77.4522 L235.718994,77.4522 L235.718994,84.6636 L232.250042,84.6636 L232.250042,140 L263.880448,140 L263.880448,84.6636 L249.355611,84.6636 L249.355611,84.6636 Z M238.65921,129.5854 L235.089547,129.5854 L235.089547,121.3604 L238.65921,121.3604 L238.65921,129.5854 L238.65921,129.5854 Z M238.65921,118.342 L235.089547,118.342 L235.089547,110.1142 L238.65921,110.1142 L238.65921,118.342 L238.65921,118.342 Z M238.65921,107.0944 L235.089547,107.0944 L235.089547,98.8694 L238.65921,98.8694 L238.65921,107.0944 L238.65921,107.0944 Z M238.65921,95.8468 L235.089547,95.8468 L235.089547,87.6246 L238.65921,87.6246 L238.65921,95.8468 L238.65921,95.8468 Z M244.25849,129.5854 L240.684631,129.5854 L240.684631,121.3604 L244.25849,121.3604 L244.25849,129.5854 L244.25849,129.5854 Z M244.25849,118.342 L240.684631,118.342 L240.684631,110.1142 L244.25849,110.1142 L244.25849,118.342 L244.25849,118.342 Z M244.25849,107.0944 L240.684631,107.0944 L240.684631,98.8694 L244.25849,98.8694 L244.25849,107.0944 L244.25849,107.0944 Z M244.25849,95.8468 L240.684631,95.8468 L240.684631,87.6246 L244.25849,87.6246 L244.25849,95.8468 L244.25849,95.8468 Z M249.852175,129.5854 L246.278315,129.5854 L246.278315,121.3604 L249.852175,121.3604 L249.852175,129.5854 L249.852175,129.5854 Z M249.852175,118.342 L246.278315,118.342 L246.278315,110.1142 L249.852175,110.1142 L249.852175,118.342 L249.852175,118.342 Z M249.852175,107.0944 L246.278315,107.0944 L246.278315,98.8694 L249.852175,98.8694 L249.852175,107.0944 L249.852175,107.0944 Z M249.852175,95.8468 L246.278315,95.8468 L246.278315,87.6246 L249.852175,87.6246 L249.852175,95.8468 L249.852175,95.8468 Z M255.451454,129.5854 L251.876196,129.5854 L251.876196,121.3604 L255.451454,121.3604 L255.451454,129.5854 L255.451454,129.5854 Z M255.451454,118.342 L251.876196,118.342 L251.876196,110.1142 L255.451454,110.1142 L255.451454,118.342 L255.451454,118.342 Z M255.451454,107.0944 L251.876196,107.0944 L251.876196,98.8694 L255.451454,98.8694 L255.451454,107.0944 L255.451454,107.0944 Z M255.451454,95.8468 L251.876196,95.8468 L251.876196,87.6246 L255.451454,87.6246 L255.451454,95.8468 L255.451454,95.8468 Z M261.046538,129.5854 L257.469881,129.5854 L257.469881,121.3604 L261.046538,121.3604 L261.046538,129.5854 L261.046538,129.5854 Z M261.046538,118.342 L257.469881,118.342 L257.469881,110.1142 L261.046538,110.1142 L261.046538,118.342 L261.046538,118.342 Z M261.046538,107.0944 L257.469881,107.0944 L257.469881,98.8694 L261.046538,98.8694 L261.046538,107.0944 L261.046538,107.0944 Z M261.046538,95.8468 L257.469881,95.8468 L257.469881,87.6246 L261.046538,87.6246 L261.046538,95.8468 Z M225.745758,128.4976 L225.745758,115.0422 L222.388708,115.0422 L222.388708,41.8978 L219.795387,41.8978 L219.795387,34.0858 L216.744668,34.0858 L216.744668,29.0934 L214.196107,29.0934 L212.304969,14.9814 L212.310564,14.9814 L212.310564,13.5072 L210.908996,13.5072 L210.736947,0 L210.409634,0 L210.238984,13.5072 L208.840214,13.5072 L208.840214,14.9814 L206.953272,29.0934 L204.410306,29.0934 L204.410306,34.0858 L201.355391,34.0858 L201.355391,41.8978 L198.757873,41.8978 L198.757873,115.0422 L195.40502,115.0422 L195.40502,128.4976 L192.902618,128.4976 L192.902618,140 L228.24676,140 L228.24676,128.4976 L225.745758,128.4976 Z M166.344156,49.9912 L166.344156,140 L188.89514,140 L188.89514,49.9912 L166.344156,49.9912 Z M171.873498,127.4518 L168.804594,127.4518 L168.804594,120.61 L171.873498,120.61 L171.873498,127.4518 L171.873498,127.4518 Z M171.873498,117.691 L168.804594,117.691 L168.804594,110.8492 L171.873498,110.8492 L171.873498,117.691 L171.873498,117.691 Z M171.873498,107.9316 L168.804594,107.9316 L168.804594,101.0898 L171.873498,101.0898 L171.873498,107.9316 L171.873498,107.9316 Z M171.873498,98.1708 L168.804594,98.1708 L168.804594,91.329 L171.873498,91.329 L171.873498,98.1708 L171.873498,98.1708 Z M171.873498,88.4114 L168.804594,88.4114 L168.804594,81.5682 L171.873498,81.5682 L171.873498,88.4114 L171.873498,88.4114 Z M171.873498,78.652 L168.804594,78.652 L168.804594,71.8088 L171.873498,71.8088 L171.873498,78.652 L171.873498,78.652 Z M171.873498,68.8912 L168.804594,68.8912 L168.804594,62.0494 L171.873498,62.0494 L171.873498,68.8912 L171.873498,68.8912 Z M171.873498,59.1304 L168.804594,59.1304 L168.804594,52.2886 L171.873498,52.2886 L171.873498,59.1304 L171.873498,59.1304 Z M176.725834,127.4518 L173.659728,127.4518 L173.659728,120.61 L176.725834,120.61 L176.725834,127.4518 L176.725834,127.4518 Z M176.725834,117.691 L173.659728,117.691 L173.659728,110.8492 L176.725834,110.8492 L176.725834,117.691 L176.725834,117.691 Z M176.725834,107.9316 L173.659728,107.9316 L173.659728,101.0898 L176.725834,101.0898 L176.725834,107.9316 L176.725834,107.9316 Z M176.725834,98.1708 L173.659728,98.1708 L173.659728,91.329 L176.725834,91.329 L176.725834,98.1708 L176.725834,98.1708 Z M176.725834,88.4114 L173.659728,88.4114 L173.659728,81.5682 L176.725834,81.5682 L176.725834,88.4114 L176.725834,88.4114 Z M176.725834,78.652 L173.659728,78.652 L173.659728,71.8088 L176.725834,71.8088 L176.725834,78.652 L176.725834,78.652 Z M176.725834,68.8912 L173.659728,68.8912 L173.659728,62.0494 L176.725834,62.0494 L176.725834,68.8912 L176.725834,68.8912 Z M176.725834,59.1304 L173.659728,59.1304 L173.659728,52.2886 L176.725834,52.2886 L176.725834,59.1304 L176.725834,59.1304 Z M181.582366,127.4518 L178.513463,127.4518 L178.513463,120.61 L181.582366,120.61 L181.582366,127.4518 L181.582366,127.4518 Z M181.582366,117.691 L178.513463,117.691 L178.513463,110.8492 L181.582366,110.8492 L181.582366,117.691 L181.582366,117.691 Z M181.582366,107.9316 L178.513463,107.9316 L178.513463,101.0898 L181.582366,101.0898 L181.582366,107.9316 L181.582366,107.9316 Z M181.582366,98.1708 L178.513463,98.1708 L178.513463,91.329 L181.582366,91.329 L181.582366,98.1708 L181.582366,98.1708 Z M181.582366,88.4114 L178.513463,88.4114 L178.513463,81.5682 L181.582366,81.5682 L181.582366,88.4114 L181.582366,88.4114 Z M181.582366,78.652 L178.513463,78.652 L178.513463,71.8088 L181.582366,71.8088 L181.582366,78.652 L181.582366,78.652 Z M181.582366,68.8912 L178.513463,68.8912 L178.513463,62.0494 L181.582366,62.0494 L181.582366,68.8912 L181.582366,68.8912 Z M181.582366,59.1304 L178.513463,59.1304 L178.513463,52.2886 L181.582366,52.2886 L181.582366,59.1304 L181.582366,59.1304 Z M186.434702,127.4518 L183.368596,127.4518 L183.368596,120.61 L186.434702,120.61 L186.434702,127.4518 L186.434702,127.4518 Z M186.434702,117.691 L183.368596,117.691 L183.368596,110.8492 L186.434702,110.8492 L186.434702,117.691 L186.434702,117.691 Z M186.434702,107.9316 L183.368596,107.9316 L183.368596,101.0898 L186.434702,101.0898 L186.434702,107.9316 L186.434702,107.9316 Z M186.434702,98.1708 L183.368596,98.1708 L183.368596,91.329 L186.434702,91.329 L186.434702,98.1708 L186.434702,98.1708 Z M186.434702,88.4114 L183.368596,88.4114 L183.368596,81.5682 L186.434702,81.5682 L186.434702,88.4114 L186.434702,88.4114 Z M186.434702,78.652 L183.368596,78.652 L183.368596,71.8088 L186.434702,71.8088 L186.434702,78.652 L186.434702,78.652 Z M186.434702,68.8912 L183.368596,68.8912 L183.368596,62.0494 L186.434702,62.0494 L186.434702,68.8912 L186.434702,68.8912 Z M186.434702,59.1304 L183.368596,59.1304 L183.368596,52.2886 L186.434702,52.2886 L186.434702,59.1304 Z M158.422917,71.7976 L158.422917,57.4294 L146.081562,57.4294 L146.081562,52.2368 L137.265109,52.2368 L137.265109,57.4294 L133.923446,57.4294 L133.923446,140 L134.150047,140 L158.422917,140 L162.343672,140 L162.343672,71.7976 L158.422917,71.7976 Z M303.528457,48.513792 L303.528457,42 L274.209703,42 L274.209703,48.513792 L267.694424,48.513792 L267.694424,61.5413759 L267.694424,64.7982719 L267.694424,74.5689598 L267.694424,77.8258558 L267.694424,90.8534397 L267.694424,94.1103357 L267.694424,107.13792 L267.694424,110.394816 L267.694424,120.165503 L267.694424,123.422399 L267.694424,139.706879 L310.043736,139.706879 L310.043736,48.513792 L303.528457,48.513792 Z M274.209703,136.449983 L270.952063,136.449983 L270.952063,123.422399 L274.209703,123.422399 L274.209703,136.449983 L274.209703,136.449983 Z M274.209703,120.165503 L270.952063,120.165503 L270.952063,110.394816 L274.209703,110.394816 L274.209703,120.165503 L274.209703,120.165503 Z M274.209703,107.13792 L270.952063,107.13792 L270.952063,94.1103357 L274.209703,94.1103357 L274.209703,107.13792 L274.209703,107.13792 Z M274.209703,90.8534397 L270.952063,90.8534397 L270.952063,77.8258558 L274.209703,77.8258558 L274.209703,90.8534397 L274.209703,90.8534397 Z M274.209703,74.5689598 L270.952063,74.5689598 L270.952063,64.7982719 L274.209703,64.7982719 L274.209703,74.5689598 L274.209703,74.5689598 Z M274.209703,61.5413759 L270.952063,61.5413759 L270.952063,51.7706879 L274.209703,51.7706879 L274.209703,61.5413759 L274.209703,61.5413759 Z M280.724981,136.449983 L277.467342,136.449983 L277.467342,123.422399 L280.724981,123.422399 L280.724981,136.449983 L280.724981,136.449983 Z M280.724981,120.165503 L277.467342,120.165503 L277.467342,110.394816 L280.724981,110.394816 L280.724981,120.165503 L280.724981,120.165503 Z M280.724981,107.13792 L277.467342,107.13792 L277.467342,94.1103357 L280.724981,94.1103357 L280.724981,107.13792 L280.724981,107.13792 Z M280.724981,90.8534397 L277.467342,90.8534397 L277.467342,77.8258558 L280.724981,77.8258558 L280.724981,90.8534397 L280.724981,90.8534397 Z M280.724981,74.5689598 L277.467342,74.5689598 L277.467342,64.7982719 L280.724981,64.7982719 L280.724981,74.5689598 L280.724981,74.5689598 Z M280.724981,61.5413759 L277.467342,61.5413759 L277.467342,51.7706879 L280.724981,51.7706879 L280.724981,61.5413759 L280.724981,61.5413759 Z M287.24026,136.449983 L283.982621,136.449983 L283.982621,123.422399 L287.24026,123.422399 L287.24026,136.449983 L287.24026,136.449983 Z M287.24026,120.165503 L283.982621,120.165503 L283.982621,110.394816 L287.24026,110.394816 L287.24026,120.165503 L287.24026,120.165503 Z M287.24026,107.13792 L283.982621,107.13792 L283.982621,94.1103357 L287.24026,94.1103357 L287.24026,107.13792 L287.24026,107.13792 Z M287.24026,90.8534397 L283.982621,90.8534397 L283.982621,77.8258558 L287.24026,77.8258558 L287.24026,90.8534397 L287.24026,90.8534397 Z M287.24026,74.5689598 L283.982621,74.5689598 L283.982621,64.7982719 L287.24026,64.7982719 L287.24026,74.5689598 L287.24026,74.5689598 Z M287.24026,61.5413759 L283.982621,61.5413759 L283.982621,51.7706879 L287.24026,51.7706879 L287.24026,61.5413759 L287.24026,61.5413759 Z M293.755539,136.449983 L290.4979,136.449983 L290.4979,123.422399 L293.755539,123.422399 L293.755539,136.449983 L293.755539,136.449983 Z M293.755539,120.165503 L290.4979,120.165503 L290.4979,110.394816 L293.755539,110.394816 L293.755539,120.165503 L293.755539,120.165503 Z M293.755539,107.13792 L290.4979,107.13792 L290.4979,94.1103357 L293.755539,94.1103357 L293.755539,107.13792 L293.755539,107.13792 Z M293.755539,90.8534397 L290.4979,90.8534397 L290.4979,77.8258558 L293.755539,77.8258558 L293.755539,90.8534397 L293.755539,90.8534397 Z M293.755539,74.5689598 L290.4979,74.5689598 L290.4979,64.7982719 L293.755539,64.7982719 L293.755539,74.5689598 L293.755539,74.5689598 Z M293.755539,61.5413759 L290.4979,61.5413759 L290.4979,51.7706879 L293.755539,51.7706879 L293.755539,61.5413759 L293.755539,61.5413759 Z M300.270818,136.449983 L297.013178,136.449983 L297.013178,123.422399 L300.270818,123.422399 L300.270818,136.449983 L300.270818,136.449983 Z M300.270818,120.165503 L297.013178,120.165503 L297.013178,110.394816 L300.270818,110.394816 L300.270818,120.165503 L300.270818,120.165503 Z M300.270818,107.13792 L297.013178,107.13792 L297.013178,94.1103357 L300.270818,94.1103357 L300.270818,107.13792 L300.270818,107.13792 Z M300.270818,90.8534397 L297.013178,90.8534397 L297.013178,77.8258558 L300.270818,77.8258558 L300.270818,90.8534397 L300.270818,90.8534397 Z M300.270818,74.5689598 L297.013178,74.5689598 L297.013178,64.7982719 L300.270818,64.7982719 L300.270818,74.5689598 L300.270818,74.5689598 Z M300.270818,61.5413759 L297.013178,61.5413759 L297.013178,51.7706879 L300.270818,51.7706879 L300.270818,61.5413759 L300.270818,61.5413759 Z M306.786097,136.449983 L303.528457,136.449983 L303.528457,123.422399 L306.786097,123.422399 L306.786097,136.449983 L306.786097,136.449983 Z M306.786097,120.165503 L303.528457,120.165503 L303.528457,110.394816 L306.786097,110.394816 L306.786097,120.165503 L306.786097,120.165503 Z M306.786097,107.13792 L303.528457,107.13792 L303.528457,94.1103357 L306.786097,94.1103357 L306.786097,107.13792 L306.786097,107.13792 Z M306.786097,90.8534397 L303.528457,90.8534397 L303.528457,77.8258558 L306.786097,77.8258558 L306.786097,90.8534397 L306.786097,90.8534397 Z M306.786097,74.5689598 L303.528457,74.5689598 L303.528457,64.7982719 L306.786097,64.7982719 L306.786097,74.5689598 L306.786097,74.5689598 Z M306.786097,61.5413759 L303.528457,61.5413759 L303.528457,51.7706879 L306.786097,51.7706879 L306.786097,61.5413759 Z M339.362491,51.7706879 L339.362491,139.706879 L365.423606,139.706879 L365.423606,51.7706879 L339.362491,51.7706879 Z M362.165967,129.936191 L342.62013,129.936191 L342.62013,120.165503 L362.165967,120.165503 L362.165967,129.936191 L362.165967,129.936191 Z M362.165967,116.908608 L342.62013,116.908608 L342.62013,107.13792 L362.165967,107.13792 L362.165967,116.908608 L362.165967,116.908608 Z M362.165967,103.881024 L342.62013,103.881024 L342.62013,94.1103357 L362.165967,94.1103357 L362.165967,103.881024 L362.165967,103.881024 Z M362.165967,90.8534397 L342.62013,90.8534397 L342.62013,81.0827517 L362.165967,81.0827517 L362.165967,90.8534397 L362.165967,90.8534397 Z M362.165967,77.8258558 L342.62013,77.8258558 L342.62013,68.0551678 L362.165967,68.0551678 L362.165967,77.8258558 L362.165967,77.8258558 Z M362.165967,64.7982719 L342.62013,64.7982719 L342.62013,55.0275839 L362.165967,55.0275839 L362.165967,64.7982719 Z M326.331933,100.624128 L326.331933,94.1103357 L323.074294,94.1103357 L323.074294,100.624128 L319.816654,100.624128 L319.816654,87.5965437 L316.559015,87.5965437 L316.559015,100.624128 L313.301375,100.624128 L313.301375,139.706879 L336.104851,139.706879 L336.104851,100.624128 L326.331933,100.624128 Z M332.847212,116.908608 L316.559015,116.908608 L316.559015,113.651712 L332.847212,113.651712 L332.847212,116.908608 L332.847212,116.908608 Z M332.847212,110.394816 L316.559015,110.394816 L316.559015,107.13792 L332.847212,107.13792 L332.847212,110.394816 Z M368.681245,107.13792 L368.681245,110.394816 L368.681245,113.651712 L368.681245,139.706879 L398,139.706879 L398,133.193087 L398,129.936191 L398,126.679295 L398,123.422399 L398,120.165503 L398,116.908608 L398,113.651712 L398,110.394816 L398,107.13792 L368.681245,107.13792 Z M375.196524,136.449983 L371.938885,136.449983 L371.938885,133.193087 L375.196524,133.193087 L375.196524,136.449983 L375.196524,136.449983 Z M375.196524,129.936191 L371.938885,129.936191 L371.938885,126.679295 L375.196524,126.679295 L375.196524,129.936191 L375.196524,129.936191 Z M375.196524,123.422399 L371.938885,123.422399 L371.938885,120.165503 L375.196524,120.165503 L375.196524,123.422399 L375.196524,123.422399 Z M375.196524,116.908608 L371.938885,116.908608 L371.938885,113.651712 L375.196524,113.651712 L375.196524,116.908608 L375.196524,116.908608 Z M381.711803,136.449983 L378.454164,136.449983 L378.454164,133.193087 L381.711803,133.193087 L381.711803,136.449983 L381.711803,136.449983 Z M381.711803,129.936191 L378.454164,129.936191 L378.454164,126.679295 L381.711803,126.679295 L381.711803,129.936191 L381.711803,129.936191 Z M381.711803,123.422399 L378.454164,123.422399 L378.454164,120.165503 L381.711803,120.165503 L381.711803,123.422399 L381.711803,123.422399 Z M381.711803,116.908608 L378.454164,116.908608 L378.454164,113.651712 L381.711803,113.651712 L381.711803,116.908608 L381.711803,116.908608 Z M388.227082,136.449983 L384.969442,136.449983 L384.969442,133.193087 L388.227082,133.193087 L388.227082,136.449983 L388.227082,136.449983 Z M388.227082,129.936191 L384.969442,129.936191 L384.969442,126.679295 L388.227082,126.679295 L388.227082,129.936191 L388.227082,129.936191 Z M388.227082,123.422399 L384.969442,123.422399 L384.969442,120.165503 L388.227082,120.165503 L388.227082,123.422399 L388.227082,123.422399 Z M388.227082,116.908608 L384.969442,116.908608 L384.969442,113.651712 L388.227082,113.651712 L388.227082,116.908608 L388.227082,116.908608 Z M394.742361,136.449983 L391.484721,136.449983 L391.484721,133.193087 L394.742361,133.193087 L394.742361,136.449983 L394.742361,136.449983 Z M394.742361,129.936191 L391.484721,129.936191 L391.484721,126.679295 L394.742361,126.679295 L394.742361,129.936191 L394.742361,129.936191 Z M394.742361,123.422399 L391.484721,123.422399 L391.484721,120.165503 L394.742361,120.165503 L394.742361,123.422399 L394.742361,123.422399 Z M394.742361,116.908608 L391.484721,116.908608 L391.484721,113.651712 L394.742361,113.651712 L394.742361,116.908608 Z M94.4715427,48.513792 L94.4715427,42 L123.790297,42 L123.790297,48.513792 L130.305576,48.513792 L130.305576,61.5413759 L130.305576,64.7982719 L130.305576,74.5689598 L130.305576,77.8258558 L130.305576,90.8534397 L130.305576,94.1103357 L130.305576,107.13792 L130.305576,110.394816 L130.305576,120.165503 L130.305576,123.422399 L130.305576,139.706879 L87.9562639,139.706879 L87.9562639,48.513792 L94.4715427,48.513792 Z M123.790297,136.449983 L127.047937,136.449983 L127.047937,123.422399 L123.790297,123.422399 L123.790297,136.449983 L123.790297,136.449983 Z M123.790297,120.165503 L127.047937,120.165503 L127.047937,110.394816 L123.790297,110.394816 L123.790297,120.165503 L123.790297,120.165503 Z M123.790297,107.13792 L127.047937,107.13792 L127.047937,94.1103357 L123.790297,94.1103357 L123.790297,107.13792 L123.790297,107.13792 Z M123.790297,90.8534397 L127.047937,90.8534397 L127.047937,77.8258558 L123.790297,77.8258558 L123.790297,90.8534397 L123.790297,90.8534397 Z M123.790297,74.5689598 L127.047937,74.5689598 L127.047937,64.7982719 L123.790297,64.7982719 L123.790297,74.5689598 L123.790297,74.5689598 Z M123.790297,61.5413759 L127.047937,61.5413759 L127.047937,51.7706879 L123.790297,51.7706879 L123.790297,61.5413759 L123.790297,61.5413759 Z M117.275019,136.449983 L120.532658,136.449983 L120.532658,123.422399 L117.275019,123.422399 L117.275019,136.449983 L117.275019,136.449983 Z M117.275019,120.165503 L120.532658,120.165503 L120.532658,110.394816 L117.275019,110.394816 L117.275019,120.165503 L117.275019,120.165503 Z M117.275019,107.13792 L120.532658,107.13792 L120.532658,94.1103357 L117.275019,94.1103357 L117.275019,107.13792 L117.275019,107.13792 Z M117.275019,90.8534397 L120.532658,90.8534397 L120.532658,77.8258558 L117.275019,77.8258558 L117.275019,90.8534397 L117.275019,90.8534397 Z M117.275019,74.5689598 L120.532658,74.5689598 L120.532658,64.7982719 L117.275019,64.7982719 L117.275019,74.5689598 L117.275019,74.5689598 Z M117.275019,61.5413759 L120.532658,61.5413759 L120.532658,51.7706879 L117.275019,51.7706879 L117.275019,61.5413759 L117.275019,61.5413759 Z M110.75974,136.449983 L114.017379,136.449983 L114.017379,123.422399 L110.75974,123.422399 L110.75974,136.449983 L110.75974,136.449983 Z M110.75974,120.165503 L114.017379,120.165503 L114.017379,110.394816 L110.75974,110.394816 L110.75974,120.165503 L110.75974,120.165503 Z M110.75974,107.13792 L114.017379,107.13792 L114.017379,94.1103357 L110.75974,94.1103357 L110.75974,107.13792 L110.75974,107.13792 Z M110.75974,90.8534397 L114.017379,90.8534397 L114.017379,77.8258558 L110.75974,77.8258558 L110.75974,90.8534397 L110.75974,90.8534397 Z M110.75974,74.5689598 L114.017379,74.5689598 L114.017379,64.7982719 L110.75974,64.7982719 L110.75974,74.5689598 L110.75974,74.5689598 Z M110.75974,61.5413759 L114.017379,61.5413759 L114.017379,51.7706879 L110.75974,51.7706879 L110.75974,61.5413759 L110.75974,61.5413759 Z M104.244461,136.449983 L107.5021,136.449983 L107.5021,123.422399 L104.244461,123.422399 L104.244461,136.449983 L104.244461,136.449983 Z M104.244461,120.165503 L107.5021,120.165503 L107.5021,110.394816 L104.244461,110.394816 L104.244461,120.165503 L104.244461,120.165503 Z M104.244461,107.13792 L107.5021,107.13792 L107.5021,94.1103357 L104.244461,94.1103357 L104.244461,107.13792 L104.244461,107.13792 Z M104.244461,90.8534397 L107.5021,90.8534397 L107.5021,77.8258558 L104.244461,77.8258558 L104.244461,90.8534397 L104.244461,90.8534397 Z M104.244461,74.5689598 L107.5021,74.5689598 L107.5021,64.7982719 L104.244461,64.7982719 L104.244461,74.5689598 L104.244461,74.5689598 Z M104.244461,61.5413759 L107.5021,61.5413759 L107.5021,51.7706879 L104.244461,51.7706879 L104.244461,61.5413759 L104.244461,61.5413759 Z M97.7291821,136.449983 L100.986822,136.449983 L100.986822,123.422399 L97.7291821,123.422399 L97.7291821,136.449983 L97.7291821,136.449983 Z M97.7291821,120.165503 L100.986822,120.165503 L100.986822,110.394816 L97.7291821,110.394816 L97.7291821,120.165503 L97.7291821,120.165503 Z M97.7291821,107.13792 L100.986822,107.13792 L100.986822,94.1103357 L97.7291821,94.1103357 L97.7291821,107.13792 L97.7291821,107.13792 Z M97.7291821,90.8534397 L100.986822,90.8534397 L100.986822,77.8258558 L97.7291821,77.8258558 L97.7291821,90.8534397 L97.7291821,90.8534397 Z M97.7291821,74.5689598 L100.986822,74.5689598 L100.986822,64.7982719 L97.7291821,64.7982719 L97.7291821,74.5689598 L97.7291821,74.5689598 Z M97.7291821,61.5413759 L100.986822,61.5413759 L100.986822,51.7706879 L97.7291821,51.7706879 L97.7291821,61.5413759 L97.7291821,61.5413759 Z M91.2139033,136.449983 L94.4715427,136.449983 L94.4715427,123.422399 L91.2139033,123.422399 L91.2139033,136.449983 L91.2139033,136.449983 Z M91.2139033,120.165503 L94.4715427,120.165503 L94.4715427,110.394816 L91.2139033,110.394816 L91.2139033,120.165503 L91.2139033,120.165503 Z M91.2139033,107.13792 L94.4715427,107.13792 L94.4715427,94.1103357 L91.2139033,94.1103357 L91.2139033,107.13792 L91.2139033,107.13792 Z M91.2139033,90.8534397 L94.4715427,90.8534397 L94.4715427,77.8258558 L91.2139033,77.8258558 L91.2139033,90.8534397 L91.2139033,90.8534397 Z M91.2139033,74.5689598 L94.4715427,74.5689598 L94.4715427,64.7982719 L91.2139033,64.7982719 L91.2139033,74.5689598 L91.2139033,74.5689598 Z M91.2139033,61.5413759 L94.4715427,61.5413759 L94.4715427,51.7706879 L91.2139033,51.7706879 L91.2139033,61.5413759 Z M58.6375093,51.7706879 L58.6375093,139.706879 L32.576394,139.706879 L32.576394,51.7706879 L58.6375093,51.7706879 Z M35.8340334,129.936191 L55.3798699,129.936191 L55.3798699,120.165503 L35.8340334,120.165503 L35.8340334,129.936191 L35.8340334,129.936191 Z M35.8340334,116.908608 L55.3798699,116.908608 L55.3798699,107.13792 L35.8340334,107.13792 L35.8340334,116.908608 L35.8340334,116.908608 Z M35.8340334,103.881024 L55.3798699,103.881024 L55.3798699,94.1103357 L35.8340334,94.1103357 L35.8340334,103.881024 L35.8340334,103.881024 Z M35.8340334,90.8534397 L55.3798699,90.8534397 L55.3798699,81.0827517 L35.8340334,81.0827517 L35.8340334,90.8534397 L35.8340334,90.8534397 Z M35.8340334,77.8258558 L55.3798699,77.8258558 L55.3798699,68.0551678 L35.8340334,68.0551678 L35.8340334,77.8258558 L35.8340334,77.8258558 Z M35.8340334,64.7982719 L55.3798699,64.7982719 L55.3798699,55.0275839 L35.8340334,55.0275839 L35.8340334,64.7982719 Z M71.6680669,100.624128 L71.6680669,94.1103357 L74.9257063,94.1103357 L74.9257063,100.624128 L78.1833457,100.624128 L78.1833457,87.5965437 L81.4409851,87.5965437 L81.4409851,100.624128 L84.6986245,100.624128 L84.6986245,139.706879 L61.8951487,139.706879 L61.8951487,100.624128 L71.6680669,100.624128 Z M65.1527881,116.908608 L81.4409851,116.908608 L81.4409851,113.651712 L65.1527881,113.651712 L65.1527881,116.908608 L65.1527881,116.908608 Z M65.1527881,110.394816 L81.4409851,110.394816 L81.4409851,107.13792 L65.1527881,107.13792 L65.1527881,110.394816 Z M29.3187546,107.13792 L29.3187546,110.394816 L29.3187546,113.651712 L29.3187546,139.706879 L3.55271368e-15,139.706879 L3.55271368e-15,133.193087 L3.55271368e-15,129.936191 L3.55271368e-15,126.679295 L3.55271368e-15,123.422399 L3.55271368e-15,120.165503 L3.55271368e-15,116.908608 L3.55271368e-15,113.651712 L3.55271368e-15,110.394816 L3.55271368e-15,107.13792 L29.3187546,107.13792 Z M22.8034758,136.449983 L26.0611152,136.449983 L26.0611152,133.193087 L22.8034758,133.193087 L22.8034758,136.449983 L22.8034758,136.449983 Z M22.8034758,129.936191 L26.0611152,129.936191 L26.0611152,126.679295 L22.8034758,126.679295 L22.8034758,129.936191 L22.8034758,129.936191 Z M22.8034758,123.422399 L26.0611152,123.422399 L26.0611152,120.165503 L22.8034758,120.165503 L22.8034758,123.422399 L22.8034758,123.422399 Z M22.8034758,116.908608 L26.0611152,116.908608 L26.0611152,113.651712 L22.8034758,113.651712 L22.8034758,116.908608 L22.8034758,116.908608 Z M16.288197,136.449983 L19.5458364,136.449983 L19.5458364,133.193087 L16.288197,133.193087 L16.288197,136.449983 L16.288197,136.449983 Z M16.288197,129.936191 L19.5458364,129.936191 L19.5458364,126.679295 L16.288197,126.679295 L16.288197,129.936191 L16.288197,129.936191 Z M16.288197,123.422399 L19.5458364,123.422399 L19.5458364,120.165503 L16.288197,120.165503 L16.288197,123.422399 L16.288197,123.422399 Z M16.288197,116.908608 L19.5458364,116.908608 L19.5458364,113.651712 L16.288197,113.651712 L16.288197,116.908608 L16.288197,116.908608 Z M9.77291821,136.449983 L13.0305576,136.449983 L13.0305576,133.193087 L9.77291821,133.193087 L9.77291821,136.449983 L9.77291821,136.449983 Z M9.77291821,129.936191 L13.0305576,129.936191 L13.0305576,126.679295 L9.77291821,126.679295 L9.77291821,129.936191 L9.77291821,129.936191 Z M9.77291821,123.422399 L13.0305576,123.422399 L13.0305576,120.165503 L9.77291821,120.165503 L9.77291821,123.422399 L9.77291821,123.422399 Z M9.77291821,116.908608 L13.0305576,116.908608 L13.0305576,113.651712 L9.77291821,113.651712 L9.77291821,116.908608 L9.77291821,116.908608 Z M3.2576394,136.449983 L6.51527881,136.449983 L6.51527881,133.193087 L3.2576394,133.193087 L3.2576394,136.449983 L3.2576394,136.449983 Z M3.2576394,129.936191 L6.51527881,129.936191 L6.51527881,126.679295 L3.2576394,126.679295 L3.2576394,129.936191 L3.2576394,129.936191 Z M3.2576394,123.422399 L6.51527881,123.422399 L6.51527881,120.165503 L3.2576394,120.165503 L3.2576394,123.422399 L3.2576394,123.422399 Z M3.2576394,116.908608 L6.51527881,116.908608 L6.51527881,113.651712 L3.2576394,113.651712 L3.2576394,116.908608 L3.2576394,116.908608 Z" id="layer_front" fill="#222222"></path>
    </g>
</svg>