<?xml version="1.0" encoding="UTF-8" standalone="no"?>
<svg width="20px" height="20px" viewBox="0 0 20 20" version="1.1" xmlns="http://www.w3.org/2000/svg" xmlns:xlink="http://www.w3.org/1999/xlink">
    <!-- Generator: Sketch 39.1 (31720) - http://www.bohemiancoding.com/sketch -->
    <title>li</title>
    <desc>Created with Sketch.</desc>
    <defs></defs>
    <g id="Page-1" stroke="none" stroke-width="1" fill="none" fill-rule="evenodd" opacity="0.7">
        <g id="li" fill="#FFFFFF">
            <g id="Group-21">
                <path d="M19,13.4226865 L19,20 L15.1420172,20 L15.1420172,13.8631953 C15.1420172,12.3215799 14.5840016,11.2694877 13.1875397,11.2694877 C12.1215181,11.2694877 11.4871279,11.9785208 11.2080364,12.6643909 C11.1062595,12.9095868 11.0800619,13.2508674 11.0800619,13.594092 L11.0800619,20 L7.22078179,20 C7.22078179,20 7.27275834,9.60626712 7.22078179,8.52939888 L11.0796853,8.52939888 L11.0796853,10.1553107 C11.0718595,10.1674712 11.0616902,10.1805831 11.0543248,10.1923713 L11.0796853,10.1923713 L11.0796853,10.1553107 C11.5923784,9.37484489 12.5079943,8.25992331 14.5574274,8.25992331 C17.0965365,8.25988195 19,9.89936059 19,13.4226865 L19,13.4226865 Z M3.18381045,3 C1.86355573,3 1,3.85591068 1,4.98146238 C1,6.08248622 1.83857183,6.96437244 3.13258718,6.96437244 L3.15836621,6.96437244 C4.50419072,6.96437244 5.34117229,6.08265167 5.34117229,4.98146238 C5.31581174,3.85591068 4.50419072,3 3.18381045,3 L3.18381045,3 Z M1.2292074,20 L5.08702283,20 L5.08702283,8.52939888 L1.2292074,8.52939888 L1.2292074,20 L1.2292074,20 Z" id="LinkedIn"></path>
            </g>
        </g>
    </g>
</svg>