<?xml version="1.0" encoding="UTF-8" standalone="no"?>
<svg width="220px" height="372px" viewBox="0 0 220 372" version="1.1" xmlns="http://www.w3.org/2000/svg" xmlns:xlink="http://www.w3.org/1999/xlink">
    <!-- Generator: Sketch 39.1 (31720) - http://www.bohemiancoding.com/sketch -->
    <title>Combined Shape</title>
    <desc>Created with Sketch.</desc>
    <defs></defs>
    <g id="Page-1" stroke="none" stroke-width="1" fill="none" fill-rule="evenodd" opacity="0.5">
        <path d="M0,0 L220,0 L220,332.690299 C220,338.213885 216.159606,344.99587 211.433116,347.831763 L178.566884,367.551492 C173.835524,370.390306 165.583692,371.912271 160.156393,370.954513 L9.84360704,344.428727 C4.40713299,343.469349 1.59514102e-12,338.217609 1.56907241e-12,332.690285 L0,0 Z M109.949226,333 C129.251151,333 144.898453,317.329966 144.898453,298 C144.898453,278.670034 129.251151,263 109.949226,263 C90.6473016,263 75,278.670034 75,298 C75,317.329966 90.6473016,333 109.949226,333 Z M109.949226,329.5 C127.320958,329.5 141.40353,315.39697 141.40353,298 C141.40353,280.60303 127.320958,266.5 109.949226,266.5 C92.5774941,266.5 78.4949226,280.60303 78.4949226,298 C78.4949226,315.39697 92.5774941,329.5 109.949226,329.5 Z M114.941973,314.775304 C122.160209,312.62393 127.423839,305.927552 127.423839,298 C127.423839,288.335017 119.600189,280.5 109.949226,280.5 C100.298264,280.5 92.4746132,288.335017 92.4746132,298 C92.4746132,305.927552 97.7382439,312.62393 104.95648,314.775304 L104.95648,318 L114.941973,318 L114.941973,314.775304 Z M114.941973,303.590266 C116.47412,302.216965 117.438346,300.22125 117.438346,298 C117.438346,293.857864 114.085353,290.5 109.949226,290.5 C105.8131,290.5 102.460106,293.857864 102.460106,298 C102.460106,300.22125 103.424332,302.216965 104.95648,303.590266 L104.95648,300 L114.941973,300 L114.941973,303.590266 Z" id="Combined-Shape" fill="#000000"></path>
    </g>
</svg>