<?xml version="1.0" encoding="UTF-8" standalone="no"?>
<svg width="140px" height="140px" viewBox="0 0 140 140" version="1.1" xmlns="http://www.w3.org/2000/svg" xmlns:xlink="http://www.w3.org/1999/xlink">
    <!-- Generator: Sketch 39.1 (31720) - http://www.bohemiancoding.com/sketch -->
    <title>qudos_customer</title>
    <desc>Created with Sketch.</desc>
    <defs></defs>
    <g id="Page-1" stroke="none" stroke-width="1" fill="none" fill-rule="evenodd">
        <g id="qudos_customer" fill="#48596E">
            <g id="Group">
                <path d="M70,140 C108.659932,140 140,108.659932 140,70 C140,31.3400675 108.659932,0 70,0 C31.3400675,0 0,31.3400675 0,70 C0,108.659932 31.3400675,140 70,140 L70,140 Z M70,133 C104.793939,133 133,104.793939 133,70 C133,35.2060608 104.793939,7 70,7 C35.2060608,7 7,35.2060608 7,70 C7,104.793939 35.2060608,133 70,133 L70,133 Z" id="Combined-Shape-Copy-2"></path>
                <path d="M80,103.550607 C94.4574447,99.2478607 105,85.8551032 105,70 C105,50.6700338 89.3299662,35 70,35 C50.6700338,35 35,50.6700338 35,70 C35,85.8551032 45.5425553,99.2478607 60,103.550607 L60,110 L80,110 L80,103.550607 L80,103.550607 Z M80,81.1805325 C83.0687468,78.4339298 85,74.4424991 85,70 C85,61.7157288 78.2842712,55 70,55 C61.7157288,55 55,61.7157288 55,70 C55,74.4424991 56.9312532,78.4339298 60,81.1805325 L60,74 L80,74 L80,81.1805325 L80,81.1805325 Z" id="Combined-Shape-Copy"></path>
            </g>
        </g>
    </g>
</svg>