<?xml version="1.0" encoding="UTF-8" standalone="no"?>
<svg width="220px" height="369px" viewBox="0 0 220 369" version="1.1" xmlns="http://www.w3.org/2000/svg" xmlns:xlink="http://www.w3.org/1999/xlink">
    <!-- Generator: Sketch 39.1 (31720) - http://www.bohemiancoding.com/sketch -->
    <title>Combined Shape</title>
    <desc>Created with Sketch.</desc>
    <defs></defs>
    <g id="Page-1" stroke="none" stroke-width="1" fill="none" fill-rule="evenodd" opacity="0.5">
        <path d="M0,0 L220,0 L220,325.451434 C220,329.867117 216.602483,334.59107 212.417568,336.000612 L117.582432,367.942497 C113.394771,369.352964 106.602483,369.352039 102.417568,367.942497 L7.58243221,336.000612 C3.39477053,334.590145 0,329.871812 0,325.451434 L0,0 L0,0 Z M109.95648,329 C126.500986,329 139.912959,315.568542 139.912959,299 C139.912959,282.431458 126.500986,269 109.95648,269 C93.4119728,269 80,282.431458 80,299 C80,315.568542 93.4119728,329 109.95648,329 L109.95648,329 Z M109.95648,326 C124.846536,326 136.917311,313.911688 136.917311,299 C136.917311,284.088312 124.846536,272 109.95648,272 C95.0664235,272 82.995648,284.088312 82.995648,299 C82.995648,313.911688 95.0664235,326 109.95648,326 L109.95648,326 Z M114.257737,313.378832 C120.444796,311.534797 124.95648,305.795044 124.95648,299 C124.95648,290.715729 118.250493,284 109.97824,284 C101.705986,284 95,290.715729 95,299 C95,305.795044 99.5116835,311.534797 105.698743,313.378832 L105.698743,316.142857 L114.257737,316.142857 L114.257737,313.378832 L114.257737,313.378832 Z M114.257737,303.791657 C115.571006,302.614541 116.397485,300.903928 116.397485,299 C116.397485,295.449598 113.523491,292.571429 109.97824,292.571429 C106.432988,292.571429 103.558994,295.449598 103.558994,299 C103.558994,300.903928 104.385473,302.614541 105.698743,303.791657 L105.698743,300.714286 L114.257737,300.714286 L114.257737,303.791657 L114.257737,303.791657 Z" id="Combined-Shape" fill="#000000"></path>
    </g>
</svg>