<?xml version="1.0" encoding="UTF-8" standalone="no"?>
<svg width="20px" height="20px" viewBox="0 0 20 20" version="1.1" xmlns="http://www.w3.org/2000/svg" xmlns:xlink="http://www.w3.org/1999/xlink">
    <!-- Generator: Sketch 39.1 (31720) - http://www.bohemiancoding.com/sketch -->
    <title>tw</title>
    <desc>Created with Sketch.</desc>
    <defs></defs>
    <g id="Page-1" stroke="none" stroke-width="1" fill="none" fill-rule="evenodd" opacity="0.7">
        <g id="tw" fill="#FFFFFF">
            <g id="Group-20">
                <path d="M17.1592158,9.48530776 C17.1663255,9.6374884 17.1702036,9.79090628 17.1702036,9.94432416 C17.1702036,14.6155274 13.456318,20 6.66131638,20 C4.57556824,20 2.63395454,19.4166409 1,18.4132385 C1.28891522,18.4460254 1.58300118,18.4627281 1.88096521,18.4627281 C3.61187116,18.4627281 5.20381342,17.897309 6.46805989,16.9495824 C4.85220295,16.9211259 3.48777335,15.8991649 3.01788215,14.4942778 C3.24280944,14.5351067 3.47484649,14.5579957 3.71205429,14.5579957 C4.04879888,14.5579957 4.37584832,14.5159295 4.68544652,14.4348902 C2.9959065,14.1107331 1.72325757,12.6823384 1.72325757,10.9687597 C1.72325757,10.9539128 1.72325757,10.9384473 1.72390391,10.924219 C2.22158785,11.1883699 2.79101584,11.347974 3.39599267,11.365914 C2.40579554,10.7330653 1.75363568,9.65047943 1.75363568,8.42437365 C1.75363568,7.77605939 1.935258,7.16857408 2.25325864,6.6464584 C4.07400625,8.785648 6.79640203,10.192391 9.86523753,10.3408599 C9.80189594,10.0816579 9.77022514,9.812558 9.77022514,9.5347974 C9.77022514,7.5830498 11.42357,6 13.4627814,6 C14.525369,6 15.4838953,6.42932261 16.1586772,7.11599134 C17.0008618,6.9576245 17.7894,6.66439839 18.5049014,6.25796474 C18.226974,7.08382307 17.6433265,7.77605939 16.878703,8.21404268 C17.6265216,8.12867306 18.340084,7.93937519 19,7.65790288 C18.5074868,8.3656047 17.8811807,8.98855552 17.1592158,9.48530776 L17.1592158,9.48530776 Z" id="Path"></path>
            </g>
        </g>
    </g>
</svg>